SplineFontDB: 3.2
FontName: FreeSansOblique
FullName: FreeSans Oblique
FamilyName: FreeSans
Weight: Book
Copyright: Copyright 2002, 2003, 2005, 2008, 2009, 2010, 2012, 2020 GNU Freefont contributors.
Version: $Revision: 4253 $
ItalicAngle: -12
UnderlinePosition: -151
UnderlineWidth: 50
Ascent: 800
Descent: 200
InvalidEm: 0
LayerCount: 2
Layer: 0 0 "Back" 1
Layer: 1 0 "Fore" 0
BaseHoriz: 1 'hang'
BaseScript: 'beng' 0  558
BaseScript: 'bng2' 0  558
FSType: 0
OS2Version: 4
OS2_WeightWidthSlopeOnly: 0
OS2_UseTypoMetrics: 1
CreationTime: 1203284335
ModificationTime: 1599674821
PfmFamily: 33
TTFWeight: 400
TTFWidth: 5
LineGap: 100
VLineGap: 0
Panose: 2 11 5 4 2 2 2 9 2 4
OS2TypoAscent: 0
OS2TypoAOffset: 1
OS2TypoDescent: 0
OS2TypoDOffset: 1
OS2TypoLinegap: 100
OS2WinAscent: 0
OS2WinAOffset: 1
OS2WinDescent: 0
OS2WinDOffset: 1
HheadAscent: 0
HheadAOffset: 1
HheadDescent: 0
HheadDOffset: 1
OS2SubXSize: 650
OS2SubYSize: 666
OS2SubXOff: 0
OS2SubYOff: 200
OS2SupXSize: 650
OS2SupYSize: 666
OS2SupXOff: 0
OS2SupYOff: 390
OS2StrikeYSize: 49
OS2StrikeYPos: 258
OS2FamilyClass: 2053
OS2Vendor: 'GNU '
OS2CodePages: 600001bf.00000000
OS2UnicodeRanges: e4010eff.4240e5ff.08401020.00000004
Lookup: 2 0 0 "subst. i-ogonek with dotless-i+-ogonek" { "subst. i-ogonek with dotless-i+-ogonek"  } []
Lookup: 4 0 0 "ordinal symbols in Latin" { "ordinal symbols in Latin-3"  "ordinal symbols in Latin-2"  "ordinal symbols in Latin-1"  } []
Lookup: 1 0 0 "stretch800" { "stretch800-1"  } []
Lookup: 1 0 0 "stretch1000" { "stretch1000-1"  } []
Lookup: 1 0 0 "stretch900" { "stretch900-1"  } []
Lookup: 1 0 0 "stretch550" { "stretch550-1"  } []
Lookup: 1 0 0 "stretch400" { "stretch400-1"  } []
Lookup: 1 0 0 "stretch700" { "stretch700-1"  } []
Lookup: 1 0 0 "subst. tall cons. post ikaar in Bengali" { "subst. tall cons. post ikaar in Bengali-1"  } []
Lookup: 4 0 0 "subst. post base vowels in Bengali" { "subst. post base ZWJ-vowels in Bengali"  "subst. post base vowels simple in Bengali"  } []

StartChar: exclam
Encoding: 33 33 1
Width: 278
Flags: HMW
LayerCount: 2
Fore
SplineSet
363 729 m 1
 289 379 l 1
 222 168 l 1
 182 168 l 1
 205 379 l 1
 279 729 l 1
 363 729 l 1
230 103 m 1
 208 0 l 1
 124 0 l 1
 146 103 l 1
 230 103 l 1
EndSplineSet
Validated: 3073
Substitution2: "'locl' local. punct in Bengali-1" indic_exclam
EndChar

StartChar: numbersign
Encoding: 35 35 3
Width: 556
Flags: MW
LayerCount: 2
Fore
SplineSet
632 697 m 1
 555 503 l 1
 649 503 l 1
 635 439 l 1
 530 439 l 1
 457 255 l 1
 564 255 l 1
 550 191 l 1
 432 191 l 1
 349 -20 l 1
 273 -20 l 1
 356 191 l 1
 231 191 l 1
 148 -20 l 1
 72 -20 l 1
 155 191 l 1
 54 191 l 1
 68 255 l 1
 180 255 l 1
 253 439 l 1
 144 439 l 1
 157 503 l 1
 278 503 l 1
 355 697 l 1
 431 697 l 1
 355 503 l 1
 479 503 l 1
 556 697 l 1
 632 697 l 1
454 439 m 1
 330 439 l 1
 256 255 l 1
 381 255 l 1
 454 439 l 1
EndSplineSet
Validated: 1
EndChar

StartChar: dollar
Encoding: 36 36 4
Width: 556
Flags: HMW
LayerCount: 2
Fore
SplineSet
311 318 m 1
 210 353 152 380 152 469 c 0
 152 518 174 700 396 716 c 1
 407 770 l 1
 466 770 l 1
 455 716 l 1
 555 711 613 655 613 565 c 0
 613 549 612 539 607 519 c 1
 528 519 l 1
 529.333 531.667 530 540.6 530 555 c 0
 530 607 495 643 440 646 c 1
 387 397 l 1
 501 362 565 335 565 243 c 0
 565 96 464 -18 298 -23 c 1
 276 -126 l 1
 217 -126 l 1
 239 -23 l 1
 122 -5 69 43 69 134 c 0
 69 157 71 174 77 208 c 1
 156 208 l 1
 154.376 190.141 152 166.035 152 150 c 0
 152 95 180 67 253 46 c 1
 311 318 l 1
381 645 m 1
 258 636 235 532 235 501 c 0
 235 452 261 426 330 405 c 1
 381 645 l 1
368 309 m 1
 312 46 l 1
 417 54 477 114 477 211 c 0
 477 259 449 285 368 309 c 1
EndSplineSet
Validated: 3073
EndChar

StartChar: percent
Encoding: 37 37 5
Width: 889
Flags: MW
LayerCount: 2
Fore
SplineSet
759 709 m 1
 825 709 l 1
 275 -20 l 1
 209 -20 l 1
 759 709 l 1
345 682 m 0
 423 682 483 625 483 552 c 0
 483 444 382 346 270 346 c 0
 192 346 134 402 134 478 c 0
 134 583 237 682 345 682 c 0
329 616 m 0
 265 616 204 557 204 494 c 0
 204 447 239 412 286 412 c 0
 351 412 413 472 413 534 c 0
 413 583 379 616 329 616 c 0
757 320 m 0
 835 320 895 263 895 190 c 0
 895 82 794 -16 682 -16 c 0
 604 -16 546 40 546 116 c 0
 546 221 649 320 757 320 c 0
741 254 m 0
 677 254 616 195 616 132 c 0
 616 85 651 50 698 50 c 0
 763 50 825 110 825 172 c 0
 825 221 791 254 741 254 c 0
EndSplineSet
Validated: 1
EndChar

StartChar: ampersand
Encoding: 38 38 6
Width: 667
Flags: HMW
LayerCount: 2
Fore
SplineSet
83 128 m 0
 83 285 225 354 288 390 c 1
 267.482 446.423 247 472.894 247 523 c 0
 247 620 346 709 455 709 c 0
 536 709 588 662 588 587 c 0
 588 500 531 434 407 378 c 1
 505 215 l 1
 537 252 553 285 565 334 c 1
 644 334 l 1
 632 273 593 202 544 151 c 1
 634 0 l 1
 528 0 l 1
 482 78 l 1
 391 3 333 -23 253 -23 c 0
 148 -23 83 35 83 128 c 0
377 434 m 1
 469 480 505 519 505 574 c 0
 505 614 479 639 436 639 c 0
 377 639 330 592 330 533 c 0
 330 505 336 492 377 434 c 1
448 137 m 1
 329 336 l 1
 217 276 171 224 171 159 c 0
 171 94 213 54 280 54 c 0
 329 54 375 76 448 137 c 1
EndSplineSet
Validated: 3073
EndChar

StartChar: quotesingle
Encoding: 39 39 7
Width: 191
Flags: MW
LayerCount: 2
Fore
SplineSet
198 709 m 1
 292 709 l 1
 268 598 l 1
 213 464 l 1
 173 464 l 1
 174 598 l 1
 198 709 l 1
EndSplineSet
Validated: 1
EndChar

StartChar: parenleft
Encoding: 40 40 8
Width: 333
Flags: HMW
LayerCount: 2
Fore
SplineSet
391 729 m 1
 446 729 l 1
 278 523 191 301 191 79 c 0
 191 -23 209 -117 246 -213 c 1
 191 -213 l 1
 142 -127 113 -3 113 116 c 0
 113 319 217 547 391 729 c 1
EndSplineSet
Validated: 1
Substitution2: "'subs' subscript-punct" parenleftinferior
Substitution2: "'sups' superscript-punct" parenleftsuperior
Substitution2: "'dnom' denominators-1" parenleftinferior
Substitution2: "'numr' numerators-1" parenleftsuperior
EndChar

StartChar: asterisk
Encoding: 42 42 10
Width: 389
Flags: MW
LayerCount: 2
Fore
SplineSet
319 729 m 1
 381 729 l 1
 352 617 l 1
 462 655 l 1
 471 593 l 1
 358 566 l 1
 411 475 l 1
 353 438 l 1
 309 534 l 1
 228 439 l 1
 181 479 l 1
 273 567 l 1
 169 598 l 1
 199 657 l 1
 299 617 l 1
 319 729 l 1
EndSplineSet
Validated: 1
EndChar

StartChar: plus
Encoding: 43 43 11
Width: 584
Flags: MW
LayerCount: 2
Fore
SplineSet
591 269 m 1
 576 197 l 1
 369 197 l 1
 325 -11 l 1
 255 -11 l 1
 299 197 l 1
 92 197 l 1
 107 269 l 1
 314 269 l 1
 358 473 l 1
 428 473 l 1
 384 269 l 1
 591 269 l 1
EndSplineSet
Validated: 1
Substitution2: "'dnom' denominators-1" plusinferior
Substitution2: "'numr' numerators-1" plussuperior
Substitution2: "'sups' superscript-numeric" plussuperior
Substitution2: "'subs' subscript-numeric" plusinferior
EndChar

StartChar: comma
Encoding: 44 44 12
Width: 278
Flags: HMW
LayerCount: 2
Fore
SplineSet
109 103 m 1
 214 103 l 1
 188 -16 l 1
 171 -99 124 -147 61 -147 c 0
 55 -147 l 1
 63 -109 l 1
 111 -109 132 -82 146 0 c 1
 87 0 l 1
 109 103 l 1
EndSplineSet
Validated: 3073
Substitution2: "'subs' subscript-punct" sub.comma
Substitution2: "'sups' superscript-punct" sup.comma
Substitution2: "'dnom' denominators-1" dnom_comma
Substitution2: "'numr' numerators-1" sup.comma
EndChar

StartChar: hyphen
Encoding: 45 45 13
Width: 333
Flags: HMW
LayerCount: 2
Fore
SplineSet
351 312 m 1
 336 240 l 1
 97 240 l 1
 112 312 l 1
 351 312 l 1
EndSplineSet
Validated: 3073
EndChar

StartChar: period
Encoding: 46 46 14
Width: 278
Flags: MW
LayerCount: 2
Fore
SplineSet
213 103 m 1
 191 0 l 1
 87 0 l 1
 109 103 l 1
 213 103 l 1
EndSplineSet
Validated: 1
Substitution2: "'subs' subscript-punct" sub.period
Substitution2: "'sups' superscript-punct" sup.period
Substitution2: "'dnom' denominators-1" dnom_period
Substitution2: "'numr' numerators-1" sup.period
EndChar

StartChar: slash
Encoding: 47 47 15
Width: 278
Flags: MW
LayerCount: 2
Fore
SplineSet
379 729 m 1
 434 729 l 1
 43 -20 l 1
 -12 -20 l 1
 379 729 l 1
EndSplineSet
Validated: 1
EndChar

StartChar: zero
Encoding: 48 48 16
Width: 556
Flags: MW
AnchorPoint: "middle" 348 344 basechar 0
LayerCount: 2
Fore
SplineSet
98 170 m 0
 98 281 146 709 418 709 c 0
 531 709 598 636 598 514 c 0
 598 400 550 -23 276 -23 c 0
 203 -23 98 16 98 170 c 0
287 54 m 0
 465 54 510 407 510 504 c 0
 510 585 471 632 406 632 c 0
 230 632 186 278 186 181 c 0
 186 102 224 54 287 54 c 0
EndSplineSet
Validated: 3073
Substitution2: "'dnom' denominators-1" dnom_zero
Substitution2: "'numr' numerators-1" zerosuperior
Substitution2: "'sups' superscript-numeric" zerosuperior
Substitution2: "'subs' subscript-numeric" zeroinferior
Substitution2: "'zero' slashed zero-1" zeroslashed
Substitution2: "'pnum' proportional-width numbers-2" fit.zero
EndChar

StartChar: one
Encoding: 49 49 17
Width: 556
Flags: MW
AnchorPoint: "middle" 348 344 basechar 0
LayerCount: 2
Fore
SplineSet
367 505 m 1
 208 505 l 1
 221 568 l 1
 365 588 386 601 440 709 c 1
 498 709 l 1
 347 0 l 1
 259 0 l 1
 367 505 l 1
EndSplineSet
Validated: 3073
Substitution2: "'dnom' denominators-1" dnom_one
Substitution2: "'numr' numerators-1" onesuperior
Substitution2: "'sups' superscript-numeric" onesuperior
Substitution2: "'subs' subscript-numeric" oneinferior
Substitution2: "'pnum' proportional-width numbers-2" fit.one
EndChar

StartChar: two
Encoding: 50 50 18
Width: 556
Flags: MW
AnchorPoint: "middle" 357 344 basechar 0
LayerCount: 2
Fore
SplineSet
428 709 m 0
 582 709 620 606 620 537 c 0
 620 437 555 354 422 287 c 2
 310 230 l 2
 219 185 164 136 147 87 c 1
 524 87 l 1
 505 0 l 1
 34 0 l 1
 78 161 120.6 218.8 297 307 c 2
 401 359 l 2
 484 401 532 461 532 525 c 0
 532 589 486 632 416 632 c 0
 271 632 244 498 235 463 c 1
 147 463 l 1
 186 632 274 709 428 709 c 0
EndSplineSet
Validated: 3073
Substitution2: "'dnom' denominators-1" dnom_two
Substitution2: "'numr' numerators-1" twosuperior
Substitution2: "'sups' superscript-numeric" twosuperior
Substitution2: "'subs' subscript-numeric" twoinferior
Substitution2: "'pnum' proportional-width numbers-2" fit.two
EndChar

StartChar: three
Encoding: 51 51 19
Width: 556
Flags: MW
AnchorPoint: "middle" 348 344 basechar 0
LayerCount: 2
Fore
SplineSet
555 249 m 0
 555 101 441 -23 264 -23 c 0
 139 -23 71 36 71 144 c 0
 71 162 72 176 76 206 c 1
 164 206 l 1
 163.205 200.83 159 174.8 159 154 c 0
 159 93 206 54 277 54 c 0
 389 54 467 128 467 236 c 0
 467 293 418 327 335 327 c 0
 321 327 311 327 290 325 c 1
 306 400 l 1
 324 400 l 2
 431 400 511 434 511 545 c 0
 511 599 470 632 405 632 c 0
 270 632 246 520 237 480 c 1
 149 480 l 1
 162 529 203 709 417 709 c 0
 527 709 599 651 599 563 c 0
 599 474 562 415 477 367 c 1
 533 339 555 306 555 249 c 0
EndSplineSet
Validated: 3073
Substitution2: "'dnom' denominators-1" dnom_three
Substitution2: "'numr' numerators-1" threesuperior
Substitution2: "'sups' superscript-numeric" threesuperior
Substitution2: "'subs' subscript-numeric" threeinferior
Substitution2: "'pnum' proportional-width numbers-2" fit.three
EndChar

StartChar: four
Encoding: 52 52 20
Width: 556
Flags: MW
AnchorPoint: "middle" 348 344 basechar 0
LayerCount: 2
Fore
SplineSet
362 170 m 1
 63 170 l 1
 83 262 l 1
 499 709 l 1
 565 709 l 1
 467 248 l 1
 573 248 l 1
 556 170 l 1
 450 170 l 1
 414 0 l 1
 326 0 l 1
 362 170 l 1
379 248 m 1
 444 556 l 1
 158 248 l 1
 379 248 l 1
EndSplineSet
Validated: 3073
Substitution2: "'dnom' denominators-1" dnom_four
Substitution2: "'numr' numerators-1" foursuperior
Substitution2: "'sups' superscript-numeric" foursuperior
Substitution2: "'subs' subscript-numeric" fourinferior
Substitution2: "'pnum' proportional-width numbers-2" fit.four
EndChar

StartChar: five
Encoding: 53 53 21
Width: 556
Flags: MW
AnchorPoint: "middle" 348 344 basechar 0
LayerCount: 2
Fore
SplineSet
271 -23 m 0
 196 -23 70 2 70 152 c 2
 70 174 l 1
 158 174 l 1
 161 94 204 54 283 54 c 0
 396 54 479 145 479 269 c 0
 479 346 433 390 353 390 c 0
 295 390 265 377 204 323 c 1
 124 323 l 1
 259 709 l 1
 629 709 l 1
 611 622 l 1
 311 622 l 1
 241 424 l 1
 290 454 333 467 381 467 c 0
 494 467 567 399 567 295 c 0
 567 150.808 461.258 -23 271 -23 c 0
EndSplineSet
Validated: 3073
Substitution2: "'dnom' denominators-1" dnom_five
Substitution2: "'numr' numerators-1" fivesuperior
Substitution2: "'sups' superscript-numeric" fivesuperior
Substitution2: "'subs' subscript-numeric" fiveinferior
Substitution2: "'pnum' proportional-width numbers-2" fit.five
EndChar

StartChar: six
Encoding: 54 54 22
Width: 556
Flags: MW
AnchorPoint: "middle" 348 344 basechar 0
LayerCount: 2
Fore
SplineSet
566 271 m 0
 566 207 508 -23 286 -23 c 0
 168 -23 93 51 93 167 c 0
 93 299.58 161.4 709 435 709 c 0
 542 709 611 647 611 551 c 0
 611 545 611 535 610 524 c 1
 522 524 l 1
 523 526 523 528 523 529 c 0
 523 566 504 632 421 632 c 0
 320 632 238 527 209 358 c 1
 266 415 322 442 388 442 c 0
 495 442 566 374 566 271 c 0
364 365 m 0
 262 365 181 280 181 174 c 0
 181 103 230 54 299 54 c 0
 398 54 478 144 478 256 c 0
 478 321 432 365 364 365 c 0
EndSplineSet
Validated: 3073
Substitution2: "'dnom' denominators-1" dnom_six
Substitution2: "'numr' numerators-1" sixsuperior
Substitution2: "'sups' superscript-numeric" sixsuperior
Substitution2: "'subs' subscript-numeric" sixinferior
Substitution2: "'pnum' proportional-width numbers-2" fit.six
EndChar

StartChar: seven
Encoding: 55 55 23
Width: 556
Flags: MW
AnchorPoint: "middle" 348 344 basechar 0
LayerCount: 2
Fore
SplineSet
671 709 m 1
 654 628 l 1
 483 460 302 189 235 0 c 1
 137 0 l 1
 227 211 335 369 560 622 c 1
 177 622 l 1
 196 709 l 1
 671 709 l 1
EndSplineSet
Validated: 3073
Substitution2: "'dnom' denominators-1" dnom_seven
Substitution2: "'numr' numerators-1" sevensuperior
Substitution2: "'sups' superscript-numeric" sevensuperior
Substitution2: "'subs' subscript-numeric" seveninferior
Substitution2: "'pnum' proportional-width numbers-2" fit.seven
EndChar

StartChar: eight
Encoding: 56 56 24
Width: 556
Flags: MW
AnchorPoint: "middle" 348 344 basechar 0
LayerCount: 2
Fore
SplineSet
560 239 m 0
 560 180 504 -23 281 -23 c 0
 155 -23 74 43 74 145 c 0
 74 247 128 325 233 373 c 1
 181.846 415.628 169 428.375 169 480 c 0
 169 580.334 254.823 709 421 709 c 0
 567 709 604 617 604 561 c 0
 604 440 509 393 477 373 c 1
 533 341 560 297 560 239 c 0
364 408 m 0
 457 408 516 471 516 545 c 0
 516 599 475 632 407 632 c 0
 320 632 257 573 257 491 c 0
 257 439 297 408 364 408 c 0
344 334 m 0
 243 334 162 257 162 160 c 0
 162 97 213 54 287 54 c 0
 392 54 472 129 472 226 c 0
 472 292 422 334 344 334 c 0
EndSplineSet
Validated: 3073
Substitution2: "'dnom' denominators-1" dnom_eight
Substitution2: "'numr' numerators-1" eightsuperior
Substitution2: "'sups' superscript-numeric" eightsuperior
Substitution2: "'subs' subscript-numeric" eightinferior
Substitution2: "'pnum' proportional-width numbers-2" fit.eight
EndChar

StartChar: nine
Encoding: 57 57 25
Width: 556
Flags: MW
AnchorPoint: "middle" 338 344 basechar 0
LayerCount: 2
Fore
SplineSet
404 709 m 0
 560 709 599 593 599 525 c 0
 599 405 548 -23 258 -23 c 0
 152 -23 83 39 83 135 c 0
 83 141 83 151 84 162 c 1
 171 162 l 1
 171 93 206 54 270 54 c 0
 371 54 441 144 481 324 c 1
 452 300 396 244 303 244 c 0
 195 244 126 311 126 417 c 0
 126 488 182 709 404 709 c 0
392 632 m 0
 295 632 214 543 214 436 c 0
 214 364 256 321 327 321 c 0
 428 321 511 408 511 514 c 0
 511 581 460 632 392 632 c 0
EndSplineSet
Validated: 3073
Substitution2: "'dnom' denominators-1" dnom_nine
Substitution2: "'numr' numerators-1" ninesuperior
Substitution2: "'sups' superscript-numeric" ninesuperior
Substitution2: "'subs' subscript-numeric" nineinferior
Substitution2: "'pnum' proportional-width numbers-2" fit.nine
EndChar

StartChar: less
Encoding: 60 60 28
Width: 584
Flags: MW
LayerCount: 2
Fore
SplineSet
87 198 m 1
 102 267 l 1
 635 474 l 1
 618 395 l 1
 196 231 l 1
 549 68 l 1
 532 -9 l 1
 87 198 l 1
EndSplineSet
Validated: 1
EndChar

StartChar: equal
Encoding: 61 61 29
Width: 584
Flags: MW
LayerCount: 2
Fore
SplineSet
609 355 m 1
 594 283 l 1
 111 283 l 1
 125 355 l 1
 609 355 l 1
572 183 m 1
 558 111 l 1
 74 111 l 1
 89 183 l 1
 572 183 l 1
EndSplineSet
Validated: 1
Substitution2: "'sups' superscript-numeric" equalsuperior
Substitution2: "'subs' subscript-numeric" equalinferior
EndChar

StartChar: question
Encoding: 63 63 31
Width: 556
Flags: MW
LayerCount: 2
Fore
SplineSet
449 741 m 0
 594 741 630 647 630 590 c 0
 630 403 420 385 381 246 c 2
 371 199 l 1
 281 199 l 1
 293 254 l 2
 327 403 534 431 534 578 c 0
 534 629 490 664 427 664 c 0
 339 664 291 616 269 507 c 1
 184 507 l 1
 215 661 305 741 449 741 c 0
351 103 m 1
 329 0 l 1
 239 0 l 1
 261 103 l 1
 351 103 l 1
EndSplineSet
Validated: 1
Substitution2: "'locl' local. punct in Bengali-1" indic_question
EndChar

StartChar: at
Encoding: 64 64 32
Width: 1015
Flags: HMW
LayerCount: 2
Fore
SplineSet
597 134 m 1
 536 91 513 62 445 62 c 0
 364 62 310 117 310 201 c 0
 310 353 477 524 626 524 c 0
 685 524 723 494 735 435 c 1
 771 501 l 1
 853 501 l 1
 704 221 l 2
 687 189 680 172 680 163 c 0
 680 144 699 127 721 127 c 0
 830 127 953 280 953 414 c 0
 953 558 829 664 660 664 c 0
 413 664 168 431 168 196 c 0
 168 40 292 -65 475 -65 c 0
 536 -65 591 -56 679 -33 c 1
 692 -100 l 1
 618 -127 528 -142 447 -142 c 0
 244 -142 80 -6 80 182 c 0
 80 409 301 741 681 741 c 0
 886 741 1036 611 1036 434 c 0
 1036 132 776 57 696 57 c 0
 599.333 57 597 102.333 597 134 c 1
478 124 m 0
 597 124 682 331 682 390 c 0
 682 432 658 455 614 455 c 0
 503 455 402 305 402 210 c 0
 402 160 434 124 478 124 c 0
EndSplineSet
Validated: 3073
EndChar

StartChar: A
Encoding: 65 65 33
Width: 667
Flags: HMW
AnchorPoint: "middle" 389 279 basechar 0
AnchorPoint: "ogonek" 614 0 basechar 0
AnchorPoint: "above" 486 729 basechar 0
AnchorPoint: "below" 343 0 basechar 0
LayerCount: 2
Fore
SplineSet
523 219 m 1
 238 219 l 1
 115 0 l 1
 16 0 l 1
 431 729 l 1
 551 729 l 1
 652 0 l 1
 550 0 l 1
 523 219 l 1
513 297 m 1
 473 630 l 1
 282 297 l 1
 513 297 l 1
EndSplineSet
Validated: 3073
Substitution2: "'c2sc' caps to small caps in Latin-1" sc.a
Substitution2: "'sups' superscript-latin" Asup
EndChar

StartChar: B
Encoding: 66 66 34
Width: 664
Flags: HMW
AnchorPoint: "middle" 412 377 basechar 0
AnchorPoint: "below" 345 0 basechar 0
AnchorPoint: "above" 488 729 basechar 0
LayerCount: 2
Fore
SplineSet
673 258 m 0
 673 123 570 0 410 0 c 2
 80 0 l 1
 235 729 l 1
 531 729 l 2
 676 729 712 646 712 584 c 0
 712 495 663 423 576 384 c 1
 646 354 673 319 673 258 c 0
442 415 m 2
 582 415 616 497 616 561 c 0
 616 620 577 647 492 647 c 2
 312 647 l 1
 262 415 l 1
 442 415 l 2
418 82 m 2
 516 82 577 152 577 242 c 0
 577 301 540 333 471 333 c 2
 245 333 l 1
 191 82 l 1
 418 82 l 2
EndSplineSet
Validated: 3073
Substitution2: "'c2sc' caps to small caps in Latin-1" sc.b
Substitution2: "'sups' superscript-latin" Bsup
EndChar

StartChar: C
Encoding: 67 67 35
Width: 710
Flags: HMW
AnchorPoint: "middle" 440 377 basechar 0
AnchorPoint: "below" 362 0 basechar 0
AnchorPoint: "above" 515 729 basechar 0
LayerCount: 2
Fore
SplineSet
355 -23 m 0
 149 -23 100 136 100 242 c 0
 100 451.052 239.129 741 520 741 c 0
 615 741 748 703 758 503 c 1
 662 503 l 1
 654 611 604 660 503 660 c 0
 257 660 196 354 196 260 c 0
 196 139 265 58 369 58 c 0
 523 58 581 165 625 266 c 1
 723 266 l 1
 628 40 504 -23 355 -23 c 0
EndSplineSet
Validated: 3073
Substitution2: "'c2sc' caps to small caps in Latin-1" sc.c
Substitution2: "'sups' superscript-latin" sup.C
EndChar

StartChar: D
Encoding: 68 68 36
Width: 702
Flags: HMW
AnchorPoint: "middle" 425 377 basechar 0
AnchorPoint: "below" 335 0 basechar 0
AnchorPoint: "above" 497 729 basechar 0
LayerCount: 2
Fore
SplineSet
517 729 m 2
 706 729 750 574 750 488 c 0
 750 310.527 649.144 0 362 0 c 2
 80 0 l 1
 235 729 l 1
 517 729 l 2
191 82 m 1
 363 82 l 2
 607.927 82 654 373.544 654 480 c 0
 654 584 590 647 483 647 c 2
 312 647 l 1
 191 82 l 1
EndSplineSet
Validated: 3073
Substitution2: "'c2sc' caps to small caps in Latin-1" sc.d
Substitution2: "'sups' superscript-latin" Dsup
EndChar

StartChar: E
Encoding: 69 69 37
Width: 657
Flags: HMW
AnchorPoint: "middle" 438 377 basechar 0
AnchorPoint: "ogonek" 576 0 basechar 0
AnchorPoint: "below" 349 0 basechar 0
AnchorPoint: "above" 500 729 basechar 0
LayerCount: 2
Fore
SplineSet
245 332 m 1
 191 82 l 1
 620 82 l 1
 603 0 l 1
 80 0 l 1
 235 729 l 1
 741 729 l 1
 724 647 l 1
 312 647 l 1
 262 414 l 1
 658 414 l 1
 640 332 l 1
 245 332 l 1
EndSplineSet
Validated: 3073
Substitution2: "'c2sc' caps to small caps in Latin-1" sc.e
Substitution2: "'sups' superscript-latin" Esup
EndChar

StartChar: F
Encoding: 70 70 38
Width: 601
Flags: HMW
AnchorPoint: "middle" 401 377 basechar 0
AnchorPoint: "below" 133 0 basechar 0
AnchorPoint: "above" 491 729 basechar 0
LayerCount: 2
Fore
SplineSet
245 332 m 1
 174 0 l 1
 80 0 l 1
 235 729 l 1
 724 729 l 1
 707 647 l 1
 312 647 l 1
 262 414 l 1
 609 414 l 1
 592 332 l 1
 245 332 l 1
EndSplineSet
Validated: 3073
Substitution2: "'c2sc' caps to small caps in Latin-1" sc.f
Substitution2: "'sups' superscript-latin" sup.F
EndChar

StartChar: G
Encoding: 71 71 39
Width: 778
Flags: HMW
AnchorPoint: "middle" 451 377 basechar 0
AnchorPoint: "below" 390 0 basechar 0
AnchorPoint: "above" 554 729 basechar 0
LayerCount: 2
Fore
SplineSet
205 277 m 0
 205 91 327 58 411 58 c 0
 527 58 654 130 687 277 c 2
 693 303 l 1
 471 303 l 1
 489 385 l 1
 793 385 l 1
 710 -4 l 1
 651 -4 l 1
 647 86 l 1
 570 22 497 -23 378 -23 c 0
 270 -23 109 34 109 261 c 0
 109 462.918 258.891 741 555 741 c 0
 712 741 809 658 809 525 c 2
 809 508 l 1
 718 508 l 1
 715 633 608 660 537 660 c 0
 259 660 205 357 205 277 c 0
EndSplineSet
Validated: 3073
Substitution2: "'c2sc' caps to small caps in Latin-1" sc.g
Substitution2: "'sups' superscript-latin" Gsup
EndChar

StartChar: H
Encoding: 72 72 40
Width: 721
Flags: HMW
AnchorPoint: "middle" 442 377 basechar 0
AnchorPoint: "below" 353 0 basechar 0
AnchorPoint: "above" 517 729 basechar 0
LayerCount: 2
Fore
SplineSet
618 332 m 1
 245 332 l 1
 174 0 l 1
 80 0 l 1
 235 729 l 1
 329 729 l 1
 262 414 l 1
 635 414 l 1
 702 729 l 1
 796 729 l 1
 641 0 l 1
 547 0 l 1
 618 332 l 1
EndSplineSet
Validated: 3073
Substitution2: "'c2sc' caps to small caps in Latin-1" sc.h
Substitution2: "'sups' superscript-latin" Hsup
EndChar

StartChar: I
Encoding: 73 73 41
Width: 278
Flags: HMW
AnchorPoint: "middle" 232 377 basechar 0
AnchorPoint: "ogonek" 173 0 basechar 0 {150-150 -2} {}
AnchorPoint: "below" 150 0 basechar 0
AnchorPoint: "above" 306 727 basechar 0
LayerCount: 2
Fore
SplineSet
349 729 m 1
 194 0 l 1
 100 0 l 1
 255 729 l 1
 349 729 l 1
EndSplineSet
Validated: 3073
Substitution2: "'c2sc' caps to small caps in Latin-1" sc.i
Substitution2: "'sups' superscript-latin" Isup
EndChar

StartChar: J
Encoding: 74 74 42
Width: 507
Flags: HMW
AnchorPoint: "middle" 452 377 basechar 0
AnchorPoint: "below" 223 0 basechar 0
AnchorPoint: "above" 540 729 basechar 0
LayerCount: 2
Fore
SplineSet
213 -23 m 0
 79 -23 47 72 47 122 c 0
 47 144.4 47.5644 145.152 67 234 c 1
 161 234 l 1
 144.141 154.522 143 154 143 134 c 0
 143 89 179 58 233 58 c 0
 349 58 371 183 378 216 c 2
 487 729 l 1
 581 729 l 1
 465 182 l 2
 437 51 345 -23 213 -23 c 0
EndSplineSet
Validated: 3073
Substitution2: "'c2sc' caps to small caps in Latin-1" sc.j
Substitution2: "'sups' superscript-latin" Jsup
EndChar

StartChar: K
Encoding: 75 75 43
Width: 667
Flags: HMW
AnchorPoint: "middle" 386 377 basechar 0
AnchorPoint: "below" 345 0 basechar 0
AnchorPoint: "above" 473 729 basechar 0
LayerCount: 2
Fore
SplineSet
227 249 m 1
 174 0 l 1
 80 0 l 1
 235 729 l 1
 329 729 l 1
 250 356 l 1
 694 729 l 1
 814 729 l 1
 453 431 l 1
 659 0 l 1
 549 0 l 1
 381 376 l 1
 227 249 l 1
EndSplineSet
Validated: 3073
Substitution2: "'c2sc' caps to small caps in Latin-1" sc.k
Substitution2: "'sups' superscript-latin" Ksup
EndChar

StartChar: L
Encoding: 76 76 44
Width: 556
Flags: HMW
AnchorPoint: "middle" 240 377 basechar 0
AnchorPoint: "below" 330 0 basechar 0
AnchorPoint: "above" 461 729 basechar 0
LayerCount: 2
Fore
SplineSet
329 729 m 1
 191 82 l 1
 551 82 l 1
 534 0 l 1
 80 0 l 1
 235 729 l 1
 329 729 l 1
EndSplineSet
Validated: 3073
Substitution2: "'c2sc' caps to small caps in Latin-1" sc.l
Substitution2: "'sups' superscript-latin" Lsup
EndChar

StartChar: M
Encoding: 77 77 45
Width: 846
Flags: HMW
AnchorPoint: "middle" 495 377 basechar 0
AnchorPoint: "below" 424 0 basechar 0
AnchorPoint: "above" 559 729 basechar 0
LayerCount: 2
Fore
SplineSet
472 0 m 1
 375 0 l 1
 298 605 l 1
 169 0 l 1
 80 0 l 1
 235 729 l 1
 364 729 l 1
 444 102 l 1
 790 729 l 1
 921 729 l 1
 766 0 l 1
 677 0 l 1
 806 605 l 1
 472 0 l 1
EndSplineSet
Validated: 3073
Substitution2: "'c2sc' caps to small caps in Latin-1" sc.m
Substitution2: "'sups' superscript-latin" Msup
EndChar

StartChar: N
Encoding: 78 78 46
Width: 730
Flags: HMW
AnchorPoint: "middle" 439 377 basechar 0
AnchorPoint: "below" 362 0 basechar 0
AnchorPoint: "above" 521 729 basechar 0
LayerCount: 2
Fore
SplineSet
805 729 m 1
 650 0 l 1
 544 0 l 1
 295 591 l 1
 169 0 l 1
 80 0 l 1
 235 729 l 1
 339 729 l 1
 589 131 l 1
 716 729 l 1
 805 729 l 1
EndSplineSet
Validated: 3073
Substitution2: "'c2sc' caps to small caps in Latin-1" sc.n
Substitution2: "'sups' superscript-latin" Nsup
EndChar

StartChar: O
Encoding: 79 79 47
Width: 770
Flags: HMW
AnchorPoint: "far-right-dot" 780 630 basechar 0
AnchorPoint: "middle" 460 377 basechar 0
AnchorPoint: "ogonek" 486 0 basechar 0
AnchorPoint: "below" 392 0 basechar 0
AnchorPoint: "above" 529 729 basechar 0
LayerCount: 2
Fore
SplineSet
387 -23 m 0
 263 -23 100 34 100 263 c 0
 100 485.393 264.723 741 533 741 c 0
 766 741 824 582 824 464 c 0
 824 357 756 -23 387 -23 c 0
728 446 m 0
 728 617 608 660 521 660 c 0
 323.041 660 196 463.372 196 271 c 0
 196 101 318 58 400 58 c 0
 677 58 728 368 728 446 c 0
EndSplineSet
Validated: 3073
Substitution2: "'c2sc' caps to small caps in Latin-1" sc.o
Substitution2: "'sups' superscript-latin" Osup
EndChar

StartChar: P
Encoding: 80 80 48
Width: 646
Flags: HMW
AnchorPoint: "middle" 404 377 basechar 0
AnchorPoint: "below" 289 0 basechar 0
AnchorPoint: "above" 475 729 basechar 0
LayerCount: 2
Fore
SplineSet
722 568 m 0
 722 432 622 309 468 309 c 2
 240 309 l 1
 174 0 l 1
 80 0 l 1
 235 729 l 1
 537 729 l 2
 659 729 722 674 722 568 c 0
451 391 m 2
 561 391 626 464 626 550 c 0
 626 613 584 647 506 647 c 2
 312 647 l 1
 257 391 l 1
 451 391 l 2
EndSplineSet
Validated: 3073
Substitution2: "'c2sc' caps to small caps in Latin-1" sc.p
Substitution2: "'sups' superscript-latin" Psup
EndChar

StartChar: Q
Encoding: 81 81 49
Width: 776
Flags: HMW
AnchorPoint: "middle" 456 377 basechar 0
AnchorPoint: "below" 393 0 basechar 0
AnchorPoint: "above" 536 729 basechar 0
LayerCount: 2
Fore
SplineSet
535 741 m 0
 662 741 826 684 826 456 c 0
 826 312 763 175 653 76 c 1
 731 -1 l 1
 671 -59 l 1
 584 28 l 1
 511 -11 465 -23 388 -23 c 0
 208 -23 102 84 102 264 c 0
 102 478.103 260.076 741 535 741 c 0
730 446 m 0
 730 617 610 660 523 660 c 0
 320.381 660 198 454.939 198 272 c 0
 198 138 276 58 407 58 c 0
 448 58 477 65 526 87 c 1
 464 149 l 1
 522 205 l 1
 596 132 l 1
 683 216 730 327 730 446 c 0
EndSplineSet
Validated: 3073
Substitution2: "'c2sc' caps to small caps in Latin-1" sc.q
Substitution2: "'sups' superscript-latin" sup.Q
EndChar

StartChar: R
Encoding: 82 82 50
Width: 709
Flags: HMW
AnchorPoint: "middle" 438 377 basechar 0
AnchorPoint: "below" 360 0 basechar 0
AnchorPoint: "above" 540 729 basechar 0
LayerCount: 2
Fore
SplineSet
549 47 m 0
 549 119 581 175 581 239 c 0
 581 288 545 314 480 314 c 2
 241 314 l 1
 174 0 l 1
 80 0 l 1
 235 729 l 1
 571 729 l 2
 699 729 757 681 757 575 c 0
 757 435 657 382 617 360 c 1
 664 329 677 308 677 264 c 0
 677 222 650 112 650 76 c 0
 650 54 658 35 671 23 c 1
 666 0 l 1
 553 0 l 1
 550 21 549 32 549 47 c 0
661 558 m 0
 661 633 610 647 542 647 c 2
 312 647 l 1
 258 396 l 1
 489 396 l 2
 628 396 661 494 661 558 c 0
EndSplineSet
Validated: 3073
Substitution2: "'c2sc' caps to small caps in Latin-1" sc.r
Substitution2: "'sups' superscript-latin" Rsup
EndChar

StartChar: S
Encoding: 83 83 51
Width: 651
Flags: HMW
AnchorPoint: "middle" 403 377 basechar 0
AnchorPoint: "below" 332 0 basechar 0
AnchorPoint: "above" 478 729 basechar 0
LayerCount: 2
Fore
SplineSet
480 741 m 0
 661 741 706 638 706 571 c 0
 706 556 704 543 698 515 c 1
 610 515 l 1
 613 535 614 542 614 551 c 0
 614 633 550 660 462 660 c 0
 352 660 266 605 266 518 c 0
 266 474 290 454 367 432 c 2
 539 383 l 2
 630 358 661 287 661 237 c 0
 661 185 610 -23 322 -23 c 0
 171 -23 81 49 81 169 c 0
 81 190 83 206 90 232 c 1
 177 232 l 1
 174 213 173 204 173 191 c 0
 173 100 225 58 338 58 c 0
 481 58 565 128 565 209 c 0
 565 257 532 286 452 309 c 2
 281 357 l 2
 214 376 170 429 170 492 c 0
 170 531.991 203.209 741 480 741 c 0
EndSplineSet
Validated: 3073
Substitution2: "'c2sc' caps to small caps in Latin-1" sc.s
Substitution2: "'sups' superscript-latin" sup.S
EndChar

StartChar: T
Encoding: 84 84 52
Width: 611
Flags: HMW
AnchorPoint: "middle" 391 377 basechar 0
AnchorPoint: "below" 311 0 basechar 0
AnchorPoint: "above" 457 729 basechar 0
LayerCount: 2
Fore
SplineSet
493 647 m 1
 355 0 l 1
 261 0 l 1
 399 647 l 1
 158 647 l 1
 175 729 l 1
 748 729 l 1
 731 647 l 1
 493 647 l 1
EndSplineSet
Validated: 3073
Substitution2: "'c2sc' caps to small caps in Latin-1" sc.t
Substitution2: "'sups' superscript-latin" Tsup
EndChar

StartChar: U
Encoding: 85 85 53
Width: 721
Flags: HMW
AnchorPoint: "middle" 428 377 basechar 0
AnchorPoint: "ogonek" 463 0 basechar 0
AnchorPoint: "below" 370 0 basechar 0
AnchorPoint: "above" 503 729 basechar 0
LayerCount: 2
Fore
SplineSet
359 -23 m 0
 212 -23 120 53 120 155 c 0
 120 170 127 218 134 251 c 2
 236 729 l 1
 330 729 l 1
 221 217 l 2
 217.63 201.169 216 187 216 173 c 0
 216 104 281 58 377 58 c 0
 490 58 572 118 593 217 c 2
 702 729 l 1
 796 729 l 1
 687 217 l 2
 656 71 527 -23 359 -23 c 0
EndSplineSet
Validated: 3073
Substitution2: "'c2sc' caps to small caps in Latin-1" sc.u
Substitution2: "'sups' superscript-latin" Usup
EndChar

StartChar: V
Encoding: 86 86 54
Width: 645
Flags: HMW
AnchorPoint: "middle" 396 377 basechar 0
AnchorPoint: "below" 329 0 basechar 0
AnchorPoint: "above" 451 729 basechar 0
LayerCount: 2
Fore
SplineSet
377 0 m 1
 277 0 l 1
 170 729 l 1
 267 729 l 1
 350 112 l 1
 686 729 l 1
 785 729 l 1
 377 0 l 1
EndSplineSet
Validated: 3073
Substitution2: "'c2sc' caps to small caps in Latin-1" sc.v
Substitution2: "'sups' superscript-latin" Vsup
EndChar

StartChar: W
Encoding: 87 87 55
Width: 937
Flags: HMW
AnchorPoint: "middle" 543 377 basechar 0
AnchorPoint: "below" 480 0 basechar 0
AnchorPoint: "above" 620 729 basechar 0
LayerCount: 2
Fore
SplineSet
737 0 m 1
 635 0 l 1
 594 592 l 1
 304 0 l 1
 202 0 l 1
 170 729 l 1
 270 729 l 1
 285 137 l 1
 573 729 l 1
 669 729 l 1
 710 137 l 1
 973 729 l 1
 1077 729 l 1
 737 0 l 1
EndSplineSet
Validated: 3073
Substitution2: "'c2sc' caps to small caps in Latin-1" sc.w
Substitution2: "'sups' superscript-latin" Wsup
EndChar

StartChar: X
Encoding: 88 88 56
Width: 669
Flags: HMW
AnchorPoint: "middle" 414 377 basechar 0
AnchorPoint: "below" 342 0 basechar 0
AnchorPoint: "above" 478 729 basechar 0
LayerCount: 2
Fore
SplineSet
469 374 m 1
 648 0 l 1
 533 0 l 1
 399 304 l 1
 135 0 l 1
 20 0 l 1
 359 374 l 1
 192 729 l 1
 305 729 l 1
 430 444 l 1
 678 729 l 1
 792 729 l 1
 469 374 l 1
EndSplineSet
Validated: 3073
Substitution2: "'c2sc' caps to small caps in Latin-1" sc.x
Substitution2: "'sups' superscript-latin" sup.X
EndChar

StartChar: Y
Encoding: 89 89 57
Width: 678
Flags: HMW
AnchorPoint: "middle" 423 377 basechar 0
AnchorPoint: "ogonek" 368 0 basechar 0
AnchorPoint: "below" 345 0 basechar 0
AnchorPoint: "above" 487 729 basechar 0
LayerCount: 2
Fore
SplineSet
450 286 m 1
 389 0 l 1
 295 0 l 1
 356 286 l 1
 170 729 l 1
 282 729 l 1
 418 372 l 1
 707 729 l 1
 818 729 l 1
 450 286 l 1
EndSplineSet
Validated: 3073
Substitution2: "'c2sc' caps to small caps in Latin-1" sc.y
Substitution2: "'sups' superscript-latin" sup.Y
EndChar

StartChar: Z
Encoding: 90 90 58
Width: 611
Flags: HMW
AnchorPoint: "middle" 399 377 basechar 0
AnchorPoint: "below" 321 0 basechar 0
AnchorPoint: "above" 465 729 basechar 0
LayerCount: 2
Fore
SplineSet
739 729 m 1
 721 645 l 1
 165 82 l 1
 603 82 l 1
 586 0 l 1
 30 0 l 1
 48 84 l 1
 603 647 l 1
 197 647 l 1
 214 729 l 1
 739 729 l 1
EndSplineSet
Validated: 3073
Substitution2: "'c2sc' caps to small caps in Latin-1" sc.z
Substitution2: "'sups' superscript-latin" sup.Z
EndChar

StartChar: bracketleft
Encoding: 91 91 59
Width: 278
Flags: MW
LayerCount: 2
Fore
SplineSet
405 729 m 1
 390 657 l 1
 288 657 l 1
 118 -141 l 1
 220 -141 l 1
 205 -213 l 1
 19 -213 l 1
 219 729 l 1
 405 729 l 1
EndSplineSet
Validated: 1
EndChar

StartChar: backslash
Encoding: 92 92 60
Width: 278
Flags: HMW
LayerCount: 2
Fore
SplineSet
140 729 m 1
 195 729 l 1
 273 -20 l 1
 218 -20 l 1
 140 729 l 1
EndSplineSet
Validated: 3073
EndChar

StartChar: asciicircum
Encoding: 94 94 62
Width: 469
Flags: MW
LayerCount: 2
Fore
SplineSet
349 709 m 1
 422 709 l 1
 496 329 l 1
 427 329 l 1
 369 628 l 1
 187 329 l 1
 115 329 l 1
 349 709 l 1
EndSplineSet
Validated: 1
EndChar

StartChar: underscore
Encoding: 95 95 63
Width: 500
Flags: HMW
LayerCount: 2
Fore
SplineSet
473 -126 m 1
 462 -176 l 1
 -38 -176 l 1
 -27 -126 l 1
 473 -126 l 1
EndSplineSet
Validated: 1
EndChar

StartChar: grave
Encoding: 96 96 64
Width: 333
Flags: HMW
LayerCount: 2
Fore
SplineSet
285 740 m 1
 357 592 l 1
 304 592 l 1
 179 740 l 1
 285 740 l 1
EndSplineSet
Validated: 3073
EndChar

StartChar: a
Encoding: 97 97 65
Width: 554
Flags: HMW
AnchorPoint: "middle" 328 263 basechar 0
AnchorPoint: "ogonek" 491 0 basechar 0
AnchorPoint: "below" 289 0 basechar 0
AnchorPoint: "above" 392 526 basechar 0
LayerCount: 2
Fore
SplineSet
370 462 m 0
 259 462 239 388 233 369 c 1
 149 369 l 1
 168 480 253 539 392 539 c 0
 497 539 566 494 566 426 c 0
 566 416 566 416 560 389 c 2
 496 88 l 2
 495 85 495 82 495 78 c 0
 495 58 507 49 533 49 c 0
 537 49 541 49 550 51 c 1
 537 -14 l 1
 514 -18 507 -23 484 -23 c 0
 412 -23 408 37 408 54 c 1
 382 32 328 -23 207 -23 c 0
 117 -23 63 25 63 105 c 0
 63 181 112 278 301 295 c 0
 386 303 457 297 471 361 c 2
 474 379 l 2
 475 387 476 397 476 401 c 0
 476 438 430 462 370 462 c 0
449 258 m 1
 344 222 151 244 151 115 c 0
 151 73 183 49 240 49 c 0
 328 49 416 102 429 164 c 2
 449 258 l 1
EndSplineSet
Validated: 3073
Substitution2: "'smcp' lowercase to small caps in Latin-1" sc.a
Substitution2: "'sups' superscript-latin" asup
Substitution2: "'subs' subscript-latin" asub
EndChar

StartChar: b
Encoding: 98 98 66
Width: 561
Flags: HMW
AnchorPoint: "middle" 347 263 basechar 0
AnchorPoint: "below" 309 0 basechar 0
AnchorPoint: "above" 398 729 basechar 0
LayerCount: 2
Fore
SplineSet
300 -23 m 0
 211 -23 173 27 152 78 c 1
 135 0 l 1
 60 0 l 1
 215 729 l 1
 299 729 l 1
 241 454 l 1
 265 480 311 539 417 539 c 0
 518 539 594 455 594 343 c 0
 594 179.973 488.044 -23 300 -23 c 0
302 54 m 0
 472 54 506 268 506 324 c 0
 506 410 462 462 389 462 c 0
 267.335 462 191 316.481 191 183 c 0
 191 104 234 54 302 54 c 0
EndSplineSet
Validated: 3073
Substitution2: "'smcp' lowercase to small caps in Latin-1" sc.b
Substitution2: "'sups' superscript-latin" bsup
Substitution2: "'subs' subscript-latin" sub.b
EndChar

StartChar: c
Encoding: 99 99 67
Width: 515
Flags: HMW
AnchorPoint: "middle" 330 263 basechar 0
AnchorPoint: "below" 274 0 basechar 0
AnchorPoint: "above" 380 526 basechar 0
LayerCount: 2
Fore
SplineSet
381 539 m 0
 487 539 554 470 554 392 c 0
 554 387.61 552.667 368.667 551 348 c 1
 467 348 l 1
 468 357 468 364 468 370 c 0
 468 427 429 462 366 462 c 0
 196 462 164 238 164 181 c 0
 164 103 208 54 277 54 c 0
 349 54 404 98 434 180 c 1
 518 180 l 1
 503 129 461 -23 263 -23 c 0
 113 -23 76 99 76 170 c 0
 76 378 197 539 381 539 c 0
EndSplineSet
Validated: 3073
Substitution2: "'smcp' lowercase to small caps in Latin-1" sc.c
Substitution2: "'sups' superscript-latin" csuper
Substitution2: "'subs' subscript-latin" sub.c
EndChar

StartChar: d
Encoding: 100 100 68
Width: 558
Flags: HMW
AnchorPoint: "middle" 324 263 basechar 0
AnchorPoint: "below" 260 0 basechar 0
AnchorPoint: "above" 425 729 basechar 0
LayerCount: 2
Fore
SplineSet
433 76 m 1
 401 12 314 -23 247 -23 c 0
 143 -23 76 53 76 170 c 0
 76 381 200 539 366 539 c 0
 437 539 477 513 509 448 c 1
 569 729 l 1
 653 729 l 1
 498 0 l 1
 417 0 l 1
 433 76 l 1
281 54 m 0
 437 54 476 263 476 327 c 0
 476 412 432 462 358 462 c 0
 196 462 164 245 164 190 c 0
 164 104 207 54 281 54 c 0
EndSplineSet
Validated: 3073
Substitution2: "'smcp' lowercase to small caps in Latin-1" sc.d
Substitution2: "'sups' superscript-latin" dsup
Substitution2: "'subs' subscript-latin" sub.d
EndChar

StartChar: e
Encoding: 101 101 69
Width: 547
Flags: HMW
AnchorPoint: "middle" 328 263 basechar 0
AnchorPoint: "ogonek" 355 0 basechar 0
AnchorPoint: "below" 283 0 basechar 0
AnchorPoint: "above" 379 526 basechar 0
LayerCount: 2
Fore
SplineSet
77 173 m 0
 77 246 123 539 382 539 c 0
 490 539 573 464 573 368 c 0
 573 326.286 563.95 279.051 556 234 c 1
 170 234 l 1
 166 219 165 209 165 188 c 0
 165 103 210 54 289 54 c 0
 356 54 409 90 445 159 c 1
 529 159 l 1
 498 51 395 -23 275 -23 c 0
 153 -23 77 66 77 173 c 0
188 306 m 1
 482 306 l 1
 484 322 485 329 485 339 c 0
 485 414 440 462 369 462 c 0
 288 462 214 398 188 306 c 1
EndSplineSet
Validated: 3073
Substitution2: "'smcp' lowercase to small caps in Latin-1" sc.e
Substitution2: "'sups' superscript-latin" esup
Substitution2: "'subs' subscript-latin" esub
EndChar

StartChar: f
Encoding: 102 102 70
Width: 260
Flags: HMW
AnchorPoint: "middle" 175 263 basechar 0
AnchorPoint: "below" 120 0 basechar 0
AnchorPoint: "above" 353 729 basechar 0
LayerCount: 2
Fore
SplineSet
352 524 m 1
 338 457 l 1
 252 457 l 1
 155 0 l 1
 71 0 l 1
 168 457 l 1
 98 457 l 1
 112 524 l 1
 182 524 l 1
 201 613 l 2
 217 687 273 732 350 732 c 0
 366 732 377 731 395 727 c 1
 380 658 l 1
 366 660 360 660 353 660 c 0
 310 660 292 643 281 593 c 2
 266 524 l 1
 352 524 l 1
EndSplineSet
Validated: 3073
Substitution2: "'smcp' lowercase to small caps in Latin-1" sc.f
Substitution2: "'sups' superscript-latin" fsup
Substitution2: "'subs' subscript-latin" sub.f
EndChar

StartChar: g
Encoding: 103 103 71
Width: 552
Flags: HMW
AnchorPoint: "below" 220 -200 basechar 0
AnchorPoint: "middle" 329 263 basechar 0
AnchorPoint: "above" 372 526 basechar 0
LayerCount: 2
Fore
SplineSet
371 539 m 0
 467 539 501 466 510 446 c 1
 527 524 l 1
 603 524 l 1
 510 85 l 2
 465 -125 390 -218 211 -218 c 0
 104 -218 34 -168 34 -91 c 0
 34 -78.5996 34 -77.5 36 -60 c 1
 120 -60 l 1
 120 -74 l 2
 120 -119 160 -146 228 -146 c 0
 355.823 -146 393.586 -67.2168 421 63 c 1
 371 10 312 -17 249 -17 c 0
 147 -17 76 59 76 168 c 0
 76 242 128 539 371 539 c 0
365 462 m 0
 195 462 164 240 164 184 c 0
 164 105 206 55 273 55 c 0
 396.222 55 471 198.436 471 339 c 0
 471 414 429 462 365 462 c 0
EndSplineSet
Validated: 3073
Substitution2: "'smcp' lowercase to small caps in Latin-1" sc.g
Substitution2: "'sups' superscript-latin" gsup
Substitution2: "'subs' subscript-latin" sub.g
EndChar

StartChar: h
Encoding: 104 104 72
Width: 540
Flags: HMW
AnchorPoint: "middle" 319 263 basechar 0
AnchorPoint: "below" 264 0 basechar 0
AnchorPoint: "above" 382 729 basechar 0
LayerCount: 2
Fore
SplineSet
215 729 m 1
 299 729 l 1
 242 459 l 1
 305 518 354 539 429 539 c 0
 513 539 564 492 564 413 c 0
 564 401 563 389 560 376 c 2
 480 0 l 1
 396 0 l 1
 469 343 l 2
 475 370 475 370 475 382 c 0
 475 433 441 467 390 467 c 0
 299 467 228 399 205 289 c 2
 144 0 l 1
 60 0 l 1
 215 729 l 1
EndSplineSet
Validated: 3073
Substitution2: "'smcp' lowercase to small caps in Latin-1" sc.h
Substitution2: "'sups' superscript-latin" hsuper
Substitution2: "'subs' subscript-latin" hsub
EndChar

StartChar: i
Encoding: 105 105 73
Width: 222
Flags: HMW
AnchorPoint: "middle" 169 263 basechar 0
AnchorPoint: "ogonek" 132 0 basechar 0 {150-150 -2} {}
AnchorPoint: "below" 112 0 basechar 0
AnchorPoint: "above" 263 729 basechar 0
LayerCount: 2
Fore
SplineSet
261 524 m 1
 150 0 l 1
 66 0 l 1
 177 524 l 1
 261 524 l 1
305 729 m 1
 283 626 l 1
 199 626 l 1
 221 729 l 1
 305 729 l 1
EndSplineSet
Validated: 3073
Substitution2: "subst. i,j with dotless form-1" dotlessi
Substitution2: "'smcp' lowercase to small caps in Latin-1" sc.i
Substitution2: "'sups' superscript-latin" isuperior
Substitution2: "'subs' subscript-latin" isub
Substitution2: "'smcp' lowercase to small caps in Latin for Turkish 1" sc.i_dot
EndChar

StartChar: j
Encoding: 106 106 74
Width: 242
Flags: HMW
AnchorPoint: "below" 78 -200 basechar 0
AnchorPoint: "middle" 189 263 basechar 0
AnchorPoint: "above" 284 729 basechar 0
LayerCount: 2
Fore
SplineSet
200 524 m 1
 284 524 l 1
 150 -109 l 2
 132 -191 89 -218 -26 -218 c 0
 -35 -218 -38 -217 -45 -215 c 1
 -30 -144 l 1
 -12 -146 -10 -146 -5 -146 c 0
 46 -146 61 -132 73 -76 c 2
 200 524 l 1
328 729 m 1
 306 626 l 1
 222 626 l 1
 244 729 l 1
 328 729 l 1
EndSplineSet
Validated: 3073
Substitution2: "subst. i,j with dotless form-1" dotlessj
Substitution2: "'smcp' lowercase to small caps in Latin-1" sc.j
Substitution2: "'sups' superscript-latin" jsuper
Substitution2: "'subs' subscript-latin" sub.j
EndChar

StartChar: k
Encoding: 107 107 75
Width: 502
Flags: HMW
AnchorPoint: "middle" 296 263 basechar 0
AnchorPoint: "below" 272 0 basechar 0
AnchorPoint: "above" 394 729 basechar 0
LayerCount: 2
Fore
SplineSet
299 729 m 1
 209 306 l 1
 478 524 l 1
 586 524 l 1
 364 343 l 1
 504 0 l 1
 408 0 l 1
 294 291 l 1
 187 203 l 1
 144 0 l 1
 60 0 l 1
 215 729 l 1
 299 729 l 1
EndSplineSet
Validated: 3073
Substitution2: "'smcp' lowercase to small caps in Latin-1" sc.k
Substitution2: "'sups' superscript-latin" ksup
Substitution2: "'subs' subscript-latin" ksub
EndChar

StartChar: l
Encoding: 108 108 76
Width: 222
Flags: HMW
AnchorPoint: "middle" 166 263 basechar 0
AnchorPoint: "below" 111 0 basechar 0
AnchorPoint: "above" 265 729 basechar 0
LayerCount: 2
Fore
SplineSet
307 729 m 1
 152 0 l 1
 68 0 l 1
 223 729 l 1
 307 729 l 1
EndSplineSet
Validated: 3073
Substitution2: "'smcp' lowercase to small caps in Latin-1" sc.l
Substitution2: "'sups' superscript-latin" lsuper
Substitution2: "'subs' subscript-latin" lsub
EndChar

StartChar: m
Encoding: 109 109 77
Width: 816
Flags: HMW
AnchorPoint: "middle" 462 263 basechar 0
AnchorPoint: "below" 408 0 basechar 0
AnchorPoint: "above" 510 526 basechar 0
LayerCount: 2
Fore
SplineSet
714 539 m 0
 817 539 841 466 841 428 c 0
 841 417 837 384 835 373 c 2
 756 0 l 1
 672 0 l 1
 744 341 l 2
 751.266 375.412 753 375 753 390 c 0
 753 438 724 467 677 467 c 0
 605 467 537 407 520 329 c 2
 450 0 l 1
 366 0 l 1
 443 361 l 2
 446 374 447 387 447 398 c 0
 447 439 414 467 365 467 c 0
 298 467 230 405 214 329 c 2
 144 0 l 1
 60 0 l 1
 171 524 l 1
 247 524 l 1
 234 459 l 1
 298 519 344 539 412 539 c 0
 478 539 517 512 533 456 c 1
 592 513 649 539 714 539 c 0
EndSplineSet
Validated: 3073
Substitution2: "'smcp' lowercase to small caps in Latin-1" sc.m
Substitution2: "'sups' superscript-latin" msup
Substitution2: "'subs' subscript-latin" msub
EndChar

StartChar: n
Encoding: 110 110 78
Width: 540
Flags: HMW
AnchorPoint: "middle" 328 263 basechar 0
AnchorPoint: "below" 270 0 basechar 0
AnchorPoint: "above" 389 526 basechar 0
LayerCount: 2
Fore
SplineSet
171 524 m 1
 247 524 l 1
 234 459 l 1
 286 512 352 539 428 539 c 0
 511 539 564 490 564 414 c 0
 564 401 563 389 560 376 c 2
 480 0 l 1
 396 0 l 1
 470 349 l 2
 474 365 476 380 476 386 c 0
 476 432 439 467 389 467 c 0
 299 467 228 399 205 289 c 2
 144 0 l 1
 60 0 l 1
 171 524 l 1
EndSplineSet
Validated: 3073
Substitution2: "'smcp' lowercase to small caps in Latin-1" sc.n
Substitution2: "'sups' superscript-latin" nsuperior
Substitution2: "'subs' subscript-latin" nsub
EndChar

StartChar: o
Encoding: 111 111 79
Width: 556
Flags: HMW
AnchorPoint: "far-right-dot" 540 410 basechar 0
AnchorPoint: "middle" 330 263 basechar 0
AnchorPoint: "ogonek" 354 0 basechar 0
AnchorPoint: "below" 276 0 basechar 0
AnchorPoint: "above" 382 537 basechar 0
LayerCount: 2
Fore
SplineSet
384 539 m 0
 501 539 576 462 576 352 c 0
 576 236.777 514.6 -23 269 -23 c 0
 157 -23 80 53 80 164 c 0
 80 277.306 140.8 539 384 539 c 0
283 54 m 0
 457 54 488 274 488 333 c 0
 488 414 445 462 371 462 c 0
 200 462 168 240 168 184 c 0
 168 104 212 54 283 54 c 0
EndSplineSet
Validated: 3073
Substitution2: "'smcp' lowercase to small caps in Latin-1" sc.o
Substitution2: "'sups' superscript-latin" osup
Substitution2: "'subs' subscript-latin" osub
EndChar

StartChar: p
Encoding: 112 112 80
Width: 563
Flags: HMW
AnchorPoint: "middle" 346 263 basechar 0
AnchorPoint: "below" 273 -200 basechar 0
AnchorPoint: "above" 420 526 basechar 0
LayerCount: 2
Fore
SplineSet
593 344 m 0
 593 139 468 -23 301 -23 c 0
 230 -23 189 3 158 68 c 1
 98 -213 l 1
 14 -213 l 1
 171 524 l 1
 252 524 l 1
 234 440 l 1
 263 501 348 539 419 539 c 0
 526 539 593 464 593 344 c 0
309 54 m 0
 473 54 505 270 505 324 c 0
 505 410 461 462 386 462 c 0
 229 462 190 250 190 184 c 0
 190 104 236 54 309 54 c 0
EndSplineSet
Validated: 3073
Substitution2: "'smcp' lowercase to small caps in Latin-1" sc.p
Substitution2: "'sups' superscript-latin" psup
Substitution2: "'subs' subscript-latin" psub
EndChar

StartChar: q
Encoding: 113 113 81
Width: 556
Flags: HMW
AnchorPoint: "middle" 320 263 basechar 0
AnchorPoint: "below" 217 -200 basechar 0
AnchorPoint: "above" 367 526 basechar 0
LayerCount: 2
Fore
SplineSet
425 62 m 1
 399 36 351 -23 248 -23 c 0
 147 -23 71 61 71 173 c 0
 71 321.85 165.929 539 366 539 c 0
 439 539 490 503 513 438 c 1
 532 524 l 1
 607 524 l 1
 450 -213 l 1
 366 -213 l 1
 425 62 l 1
364 462 m 0
 191 462 159 241 159 186 c 0
 159 106 205 54 276 54 c 0
 395.921 54 474 197.43 474 333 c 0
 474 412 431 462 364 462 c 0
EndSplineSet
Validated: 3073
Substitution2: "'smcp' lowercase to small caps in Latin-1" sc.q
Substitution2: "'sups' superscript-latin" sup.q
Substitution2: "'subs' subscript-latin" sub.q
EndChar

StartChar: r
Encoding: 114 114 82
Width: 324
Flags: HMW
AnchorPoint: "middle" 164 263 basechar 0
AnchorPoint: "below" 99 0 basechar 0
AnchorPoint: "above" 300 526 basechar 0
LayerCount: 2
Fore
SplineSet
171 524 m 1
 247 524 l 1
 230 442 l 1
 292 513 337 539 395 539 c 0
 406 539 414 538 427 536 c 1
 409 451 l 1
 314.897 451 232.545 416.174 202 272 c 2
 144 0 l 1
 60 0 l 1
 171 524 l 1
EndSplineSet
Validated: 3073
Substitution2: "'smcp' lowercase to small caps in Latin-1" sc.r
Substitution2: "'sups' superscript-latin" rsuper
Substitution2: "'subs' subscript-latin" rsub
EndChar

StartChar: s
Encoding: 115 115 83
Width: 493
Flags: HMW
AnchorPoint: "middle" 310 263 basechar 0
AnchorPoint: "below" 252 0 basechar 0
AnchorPoint: "above" 354 526 basechar 0
LayerCount: 2
Fore
SplineSet
123 345 m 0
 123 450 214 539 356 539 c 0
 453 539 520 491 520 421 c 0
 520 408 519 399 514 378 c 1
 430 378 l 1
 431 386 431 393 431 400 c 0
 431 439 398 462 339 462 c 0
 262 462 211 419 211 367 c 0
 211 341 240 321 296 307 c 2
 372 288 l 2
 460 266 493 234 493 173 c 0
 493 54 396 -23 247 -23 c 0
 131 -23 61 25 61 105 c 0
 61 121 62 133 67 156 c 1
 156 156 l 1
 155 146 154 137 154 131 c 0
 154 81 193 54 262 54 c 0
 382 54 405 130 405 150 c 0
 405 194 353 204 335 209 c 2
 261 228 l 2
 158 255 123 284 123 345 c 0
EndSplineSet
Validated: 3073
Substitution2: "'smcp' lowercase to small caps in Latin-1" sc.s
Substitution2: "'sups' superscript-latin" ssuper
Substitution2: "'subs' subscript-latin" ssub
EndChar

StartChar: t
Encoding: 116 116 84
Width: 265
Flags: HMW
AnchorPoint: "middle" 173 263 basechar 0
AnchorPoint: "below" 167 0 basechar 0
AnchorPoint: "above" 250 668 basechar 0
LayerCount: 2
Fore
SplineSet
356 524 m 1
 342 457 l 1
 253 457 l 1
 175 90 l 2
 174 84 173 79 173 76 c 0
 173 60 187 49 209 49 c 0
 221 49 226 50 257 57 c 1
 241 -16 l 1
 227 -20 196 -23 176 -23 c 0
 121 -23 87 7 87 56 c 0
 87 66 88 77 90 87 c 2
 169 457 l 1
 98 457 l 1
 112 524 l 1
 183 524 l 1
 214 668 l 1
 298 668 l 1
 267 524 l 1
 356 524 l 1
EndSplineSet
Validated: 3073
Substitution2: "'smcp' lowercase to small caps in Latin-1" sc.t
Substitution2: "'sups' superscript-latin" tsup
Substitution2: "'subs' subscript-latin" tsub
EndChar

StartChar: u
Encoding: 117 117 85
Width: 538
Flags: HMW
AnchorPoint: "middle" 320 263 basechar 0
AnchorPoint: "ogonek" 301 0 basechar 0 {150-150 22} {}
AnchorPoint: "below" 243 0 basechar 0
AnchorPoint: "above" 373 526 basechar 0
LayerCount: 2
Fore
SplineSet
478 0 m 1
 402 0 l 1
 414 57 l 1
 356 1 299 -23 221 -23 c 0
 135 -23 83 18 83 86 c 0
 83 99 84 110 86 120 c 2
 172 524 l 1
 256 524 l 1
 177 153 l 2
 175 143 174 134 174 126 c 0
 174 79 209 49 263 49 c 0
 348 49 419 119 442 227 c 2
 505 524 l 1
 589 524 l 1
 478 0 l 1
EndSplineSet
Validated: 3073
Substitution2: "'smcp' lowercase to small caps in Latin-1" sc.u
Substitution2: "'sups' superscript-latin" usup
Substitution2: "'subs' subscript-latin" usub
EndChar

StartChar: v
Encoding: 118 118 86
Width: 497
Flags: HMW
AnchorPoint: "middle" 304 263 basechar 0
AnchorPoint: "below" 243 0 basechar 0
AnchorPoint: "above" 353 526 basechar 0
LayerCount: 2
Fore
SplineSet
287 0 m 1
 196 0 l 1
 122 524 l 1
 214 524 l 1
 263 102 l 1
 507 524 l 1
 598 524 l 1
 287 0 l 1
EndSplineSet
Validated: 3073
Substitution2: "'smcp' lowercase to small caps in Latin-1" sc.v
Substitution2: "'sups' superscript-latin" vsup
Substitution2: "'subs' subscript-latin" vsub
EndChar

StartChar: w
Encoding: 119 119 87
Width: 723
Flags: HMW
AnchorPoint: "middle" 414 263 basechar 0
AnchorPoint: "below" 363 0 basechar 0
AnchorPoint: "above" 469 526 basechar 0
LayerCount: 2
Fore
SplineSet
560 0 m 1
 465 0 l 1
 453 418 l 1
 258 0 l 1
 162 0 l 1
 122 524 l 1
 213 524 l 1
 232 116 l 1
 421 524 l 1
 526 524 l 1
 537 116 l 1
 733 524 l 1
 824 524 l 1
 560 0 l 1
EndSplineSet
Validated: 3073
Substitution2: "'smcp' lowercase to small caps in Latin-1" sc.w
Substitution2: "'sups' superscript-latin" wsuper
Substitution2: "'subs' subscript-latin" sub.w
EndChar

StartChar: x
Encoding: 120 120 88
Width: 490
Flags: HMW
AnchorPoint: "middle" 303 263 basechar 0
AnchorPoint: "below" 251 0 basechar 0
AnchorPoint: "above" 361 526 basechar 0
LayerCount: 2
Fore
SplineSet
350 267 m 1
 473 0 l 1
 379 0 l 1
 289 200 l 1
 115 0 l 1
 17 0 l 1
 256 267 l 1
 138 524 l 1
 231 524 l 1
 319 332 l 1
 486 524 l 1
 583 524 l 1
 350 267 l 1
EndSplineSet
Validated: 3073
Substitution2: "'smcp' lowercase to small caps in Latin-1" sc.x
Substitution2: "'sups' superscript-latin" xsuper
Substitution2: "'subs' subscript-latin" xsub
EndChar

StartChar: y
Encoding: 121 121 89
Width: 479
Flags: HMW
AnchorPoint: "middle" 284 263 basechar 0
AnchorPoint: "ogonek" 344 0 basechar 0 {150-150 9} {}
AnchorPoint: "below" 367 0 basechar 0
AnchorPoint: "above" 343 526 basechar 0
LayerCount: 2
Fore
SplineSet
491 524 m 1
 580 524 l 1
 212 -110 l 2
 169 -184 118 -218 47 -218 c 0
 28 -218 16 -216 -2 -208 c 1
 14 -133 l 1
 41 -136 48 -137 58 -137 c 0
 95 -137 111 -127 138 -85 c 2
 190 -4 l 1
 122 524 l 1
 212 524 l 1
 258 117 l 1
 491 524 l 1
EndSplineSet
Validated: 3073
Substitution2: "'smcp' lowercase to small caps in Latin-1" sc.y
Substitution2: "'sups' superscript-latin" ysuper
Substitution2: "'subs' subscript-latin" sub.y
EndChar

StartChar: z
Encoding: 122 122 90
Width: 500
Flags: HMW
AnchorPoint: "middle" 300 263 basechar 0
AnchorPoint: "below" 258 0 basechar 0
AnchorPoint: "above" 357 526 basechar 0
LayerCount: 2
Fore
SplineSet
557 524 m 1
 539 449 l 1
 147 72 l 1
 473 72 l 1
 458 0 l 1
 31 0 l 1
 49 74 l 1
 444 452 l 1
 150 452 l 1
 165 524 l 1
 557 524 l 1
EndSplineSet
Validated: 3073
Substitution2: "'smcp' lowercase to small caps in Latin-1" sc.z
Substitution2: "'sups' superscript-latin" zsup
Substitution2: "'subs' subscript-latin" sub.z
EndChar

StartChar: braceleft
Encoding: 123 123 91
Width: 334
Flags: MW
LayerCount: 2
Fore
SplineSet
431 729 m 1
 417 664 l 1
 401 664 l 2
 351 664 334 649 323 597 c 2
 284 416 l 1
 270 345 232 290 176 259 c 1
 213 235 224 213 224 162 c 0
 224 140 222 120 218 101 c 2
 179 -80 l 1
 176 -92 175 -103 175 -113 c 0
 175 -137 191 -147 229 -147 c 2
 245 -147 l 1
 231 -213 l 1
 184 -213 l 2
 130 -213 98 -184 98 -134 c 0
 98 -118 100 -98 104 -80 c 2
 139 86 l 1
 145 113 148 137 148 153 c 0
 148 193 128 218 91 224 c 1
 106 293 l 1
 164 303 193 342 212 431 c 0
 248 597 l 2
 276 721 355 729 384 729 c 2
 431 729 l 1
EndSplineSet
Validated: 1
EndChar

StartChar: bar
Encoding: 124 124 92
Width: 260
Flags: MW
LayerCount: 2
Fore
SplineSet
255 729 m 1
 315 729 l 1
 114 -212 l 1
 54 -212 l 1
 255 729 l 1
EndSplineSet
Validated: 1
EndChar

StartChar: asciitilde
Encoding: 126 126 94
Width: 584
Flags: MW
LayerCount: 2
Fore
SplineSet
594 411 m 1
 572 282 486 268 458 268 c 0
 434 268 406 278 384 294 c 2
 299 357 l 2
 288 365 270 372 260 372 c 0
 229 372 205 345 189 293 c 1
 137 293 l 1
 162 387 211 438 275 438 c 0
 293 438 311 432 326 422 c 2
 428 353 l 2
 446 341 460 336 475 336 c 0
 510 336 531 360 542 411 c 1
 594 411 l 1
EndSplineSet
Validated: 1
EndChar

StartChar: cent
Encoding: 162 162 96
Width: 556
Flags: HMW
LayerCount: 2
Fore
SplineSet
423 538 m 1
 557 538 585 424 585 392 c 0
 585 387.61 584.5 370 582 348 c 1
 498 348 l 1
 499 357 499 365 499 371 c 0
 499 447.743 439 459.5 407 463 c 1
 320 53 l 1
 391 61 434 98 465 180 c 1
 549 180 l 1
 514 49 438 -15 304 -23 c 1
 283 -120 l 1
 243 -120 l 1
 264 -22 l 1
 161 -11 96 64 96 171 c 0
 96 247 127 513 383 538 c 1
 402 628 l 1
 442 628 l 1
 423 538 l 1
281 56 m 1
 366 460 l 1
 230.773 435.09 184 271.062 184 183 c 0
 184 113 221 64 281 56 c 1
EndSplineSet
Validated: 3073
EndChar

StartChar: sterling
Encoding: 163 163 97
Width: 556
Flags: HMW
LayerCount: 2
Fore
SplineSet
256 492 m 0
 256 451 262 456 287 376 c 1
 447 376 l 1
 435 321 l 1
 298 321 l 1
 299.333 312.333 301 295 301 283 c 0
 301 180 210 118 136 61 c 1
 192 89 230 100 269 100 c 0
 327 100 354 70 424 70 c 0
 455 70 476 77 518 101 c 1
 543 31 l 1
 500 -4 449 -23 401 -23 c 0
 318 -23 270 23 199 23 c 0
 162 23 127 12 81 -14 c 1
 44 52 l 1
 161 129 218 200 218 271 c 0
 218 286 217 292 208 321 c 1
 95 321 l 1
 107 376 l 1
 190 376 l 1
 181 404 160 434 160 480 c 0
 160 610 295 729 442 729 c 0
 553 729 628 669 628 579 c 0
 628 557 626 539 619 497 c 1
 531 497 l 1
 538 523 540 536 540 554 c 0
 540 614 495 652 424 652 c 0
 329 652 256 582 256 492 c 0
EndSplineSet
Validated: 3073
EndChar

StartChar: currency
Encoding: 164 164 98
Width: 556
Flags: MW
LayerCount: 2
Fore
SplineSet
156 305 m 0
 156 389 205 424 214 445 c 1
 172 500 l 1
 238 556 l 1
 283 498 l 1
 310 514 351 525 385 525 c 0
 422 525 458 514 478 496 c 1
 546 552 l 1
 593 494 l 1
 524 438 l 1
 533 422 537 406 537 381 c 0
 537 334 513 274 483 245 c 1
 526 191 l 1
 456 137 l 1
 414 190 l 1
 386 171 348 160 309 160 c 0
 270 160 238 169 219 185 c 1
 154 133 l 1
 110 191 l 1
 170 240 l 1
 161 257 156 281 156 305 c 0
369 448 m 0
 300 448 235 388 235 323 c 0
 235 274 274 237 325 237 c 0
 394 237 458 299 458 364 c 0
 458 411 419 448 369 448 c 0
EndSplineSet
Validated: 1
EndChar

StartChar: yen
Encoding: 165 165 99
Width: 556
Flags: MW
LayerCount: 2
Fore
SplineSet
573 354 m 1
 562 303 l 1
 390 303 l 1
 373 226 l 1
 545 226 l 1
 535 175 l 1
 362 175 l 1
 325 0 l 1
 237 0 l 1
 274 175 l 1
 100 175 l 1
 111 226 l 1
 285 226 l 1
 302 303 l 1
 127 303 l 1
 138 354 l 1
 292 354 l 1
 162 709 l 1
 247 709 l 1
 363 387 l 1
 611 709 l 1
 696 709 l 1
 419 354 l 1
 573 354 l 1
EndSplineSet
Validated: 1
EndChar

StartChar: brokenbar
Encoding: 166 166 100
Width: 260
Flags: MW
LayerCount: 2
Fore
SplineSet
255 729 m 1
 315 729 l 1
 229 328 l 1
 169 328 l 1
 255 729 l 1
140 189 m 1
 200 189 l 1
 114 -212 l 1
 54 -212 l 1
 140 189 l 1
EndSplineSet
Validated: 1
EndChar

StartChar: section
Encoding: 167 167 101
Width: 556
Flags: HMW
LayerCount: 2
Fore
SplineSet
104 274 m 0
 104 394 211 444 247 463 c 1
 229 486 221 510 221 540 c 0
 221 638 324 729 436 729 c 0
 526 729 589 673 589 594 c 0
 589 573 588 569 577 533 c 0
 577 532 576 529 575 524 c 1
 491 524 l 1
 498 544 501 559 501 575 c 0
 501 622 468 652 418 652 c 0
 362 652 313 605 313 553 c 0
 313 530 321 518 355 491 c 2
 482 390 l 2
 503 373 559 338 559 267 c 0
 559 231 541 113 412 71 c 1
 434 41 442 18 442 -16 c 0
 442 -94.8 361.356 -213 225 -213 c 0
 127 -213 63 -158 63 -75 c 0
 63 -54 66 -41 74 -14 c 1
 159 -14 l 1
 153 -35 151 -46 151 -59 c 0
 151 -104 188 -136 238 -136 c 0
 299 -136 350 -89 350 -34 c 0
 350 -5 340 14 312 38 c 2
 167 162 l 2
 121 201 104 232 104 274 c 0
236 229 m 2
 374 108 l 1
 438 141 471 183 471 231 c 0
 471 261 450 296 418 322 c 2
 287 428 l 1
 217 388 192 357 192 309 c 0
 192 277 202 258 236 229 c 2
EndSplineSet
Validated: 3073
EndChar

StartChar: copyright
Encoding: 169 169 103
Width: 737
Flags: HMW
LayerCount: 2
Fore
SplineSet
618 312 m 1
 564 175 489 126 400 126 c 0
 306 126 249 189 249 292 c 0
 249 431.208 345.724 592 503 592 c 0
 593 592 635 543 637 437 c 1
 566 437 l 1
 563 503 540 530 488 530 c 0
 354 530 321 355 321 301 c 0
 321 234 359 188 416 188 c 0
 471 188 517 231 547 312 c 1
 618 312 l 1
530 742 m 0
 707 742 836 614 836 440 c 0
 836 200 607 -22 361 -22 c 0
 184 -22 55 106 55 281 c 0
 55 520 284 742 530 742 c 0
516 680 m 0
 314 680 125 493 125 293 c 0
 125 147 231 40 375 40 c 0
 577 40 766 227 766 428 c 0
 766 573 660 680 516 680 c 0
EndSplineSet
Validated: 3073
EndChar

StartChar: ordfeminine
Encoding: 170 170 104
Width: 370
Flags: HMW
LayerCount: 2
Fore
SplineSet
406 354 m 1
 395 303 l 1
 107 303 l 1
 118 354 l 1
 406 354 l 1
184 634 m 1
 196 678 212 742 337 742 c 0
 401 742 441 717 441 676 c 0
 441 669 441 661 440 658 c 2
 399 468 l 2
 398 465 398 463 398 461 c 0
 398 454 406 447 415 447 c 0
 419 447 432 449 432 449 c 1
 423 405 l 1
 418 404 414 403 413 403 c 0
 396 399 394 399 387 399 c 0
 359 399 343 414 340 442 c 1
 310 414 272 399 231 399 c 0
 170 399 136 428 136 479 c 0
 136 583 244 592 320 600 c 0
 359 604 382 609 382 656 c 0
 382 684 347 691 320 691 c 0
 286 691 254 679 240 634 c 1
 184 634 l 1
363 566 m 1
 307 546 196 558 196 486 c 0
 196 461 214 449 249 449 c 0
 294 449 347 483 353 515 c 2
 363 566 l 1
EndSplineSet
Validated: 3073
Ligature2: "ordinal symbols in Latin-1" a
EndChar

StartChar: logicalnot
Encoding: 172 172 106
Width: 584
Flags: MW
LayerCount: 2
Fore
SplineSet
114 377 m 1
 619 377 l 1
 558 86 l 1
 488 86 l 1
 534 305 l 1
 99 305 l 1
 114 377 l 1
EndSplineSet
Validated: 1
EndChar

StartChar: macron
Encoding: 175 175 108
Width: 333
Flags: HMW
LayerCount: 2
Fore
SplineSet
450 696 m 1
 435 627 l 1
 160 627 l 1
 175 696 l 1
 450 696 l 1
EndSplineSet
Validated: 3073
EndChar

StartChar: degree
Encoding: 176 176 109
Width: 606
Flags: MW
LayerCount: 2
Fore
SplineSet
442 686 m 0
 526 686 594 618 594 535 c 0
 594 450 526 383 441 383 c 0
 359 383 291 452 291 535 c 0
 291 618 359 686 442 686 c 0
443 643 m 0
 384 643 336 594 336 535 c 0
 336 476 384 426 441 426 c 0
 501 426 549 474 549 535 c 0
 549 594 501 643 443 643 c 0
EndSplineSet
Validated: 1
EndChar

StartChar: plusminus
Encoding: 177 177 110
Width: 584
Flags: MW
LayerCount: 2
Fore
SplineSet
625 429 m 1
 610 357 l 1
 403 357 l 1
 359 149 l 1
 288 149 l 1
 333 357 l 1
 126 357 l 1
 141 429 l 1
 348 429 l 1
 391 633 l 1
 462 633 l 1
 418 429 l 1
 625 429 l 1
549 72 m 1
 534 0 l 1
 50 0 l 1
 65 72 l 1
 549 72 l 1
EndSplineSet
Validated: 1
EndChar

StartChar: twosuperior
Encoding: 178 178 111
Width: 352
Flags: HMW
LayerCount: 2
Fore
SplineSet
376 420 m 1
 364 360 l 1
 64 360 l 1
 92 461 119 492 229 548 c 2
 292 579 l 2
 339 601 367 635 367 670 c 0
 367 706 340 730 299 730 c 0
 243 730 211 700 194 631 c 1
 131 631 l 1
 155 738 210 785 309 785 c 0
 384 785 432 744 432 679 c 0
 432 619 391 569 308 528 c 2
 240 495 l 2
 186 468 164 451 145 420 c 1
 376 420 l 1
EndSplineSet
Validated: 3073
EndChar

StartChar: threesuperior
Encoding: 179 179 112
Width: 352
VWidth: 1085
Flags: HMW
LayerCount: 2
Fore
SplineSet
137 644 m 1
 146 678 171 788 307 788 c 0
 378 788 424 752 424 697 c 0
 424 646 405 614 355 583 c 1
 386 568 399 546 399 513 c 0
 399 419 320 349 216 349 c 0
 136 349 92 386 92 452 c 0
 92 462 93 471 95 493 c 1
 159 493 l 1
 157.5 479.667 157 473.2 157 460 c 0
 157 426 184 404 225 404 c 0
 290 404 334 444 334 504 c 0
 334 536 305 554 256 554 c 0
 249 554 241 554 225 553 c 1
 236 606 l 1
 252 606 l 2
 325 606 359 631 359 685 c 0
 359 715 335 733 297 733 c 0
 215 733 204 662 200 644 c 1
 137 644 l 1
EndSplineSet
Validated: 3073
EndChar

StartChar: acute
Encoding: 180 180 113
Width: 333
Flags: HMW
LayerCount: 2
Fore
SplineSet
346 740 m 1
 458 740 l 1
 278 592 l 1
 218 592 l 1
 346 740 l 1
EndSplineSet
Validated: 3073
EndChar

StartChar: paragraph
Encoding: 182 182 115
Width: 537
Flags: MW
LayerCount: 2
Fore
SplineSet
677 729 m 1
 663 665 l 1
 607 665 l 1
 428 -178 l 1
 364 -178 l 1
 543 665 l 1
 460 665 l 1
 281 -178 l 1
 217 -178 l 1
 310 259 l 1
 207 262 145 329 145 436 c 0
 145 588 281 729 427 729 c 2
 677 729 l 1
EndSplineSet
Validated: 1
EndChar

StartChar: middot
Encoding: 183 183 116
Width: 278
Flags: HMW
LayerCount: 2
Fore
SplineSet
293 420 m 1
 271 317 l 1
 166 317 l 1
 188 420 l 1
 293 420 l 1
EndSplineSet
Validated: 3073
EndChar

StartChar: cedilla
Encoding: 184 184 117
Width: 333
Flags: MW
LayerCount: 2
Fore
SplineSet
155 -94 m 0
 151 -94 135 -97 128 -98 c 1
 115 -92 l 1
 165 0 l 1
 206 0 l 1
 176 -56 l 1
 189 -54 193 -54 197 -54 c 0
 234 -54 264 -77 264 -105 c 0
 264 -168 203 -214 119 -214 c 0
 81 -214 52 -206 1 -180 c 1
 29 -142 l 1
 70 -163 95 -171 123 -171 c 0
 160 -171 186 -148 186 -116 c 0
 186 -104 172 -94 155 -94 c 0
EndSplineSet
Validated: 1
EndChar

StartChar: onesuperior
Encoding: 185 185 118
Width: 250
Flags: HMW
LayerCount: 2
Fore
SplineSet
231 671 m 1
 134 671 l 1
 144 717 l 1
 235 729 245 735 278 800 c 1
 322 800 l 1
 232 375 l 1
 168 375 l 1
 231 671 l 1
EndSplineSet
Validated: 3073
EndChar

StartChar: ordmasculine
Encoding: 186 186 119
Width: 365
Flags: MW
LayerCount: 2
Fore
SplineSet
388 354 m 1
 377 303 l 1
 114 303 l 1
 125 354 l 1
 388 354 l 1
149 509 m 0
 149 639 224 742 336 742 c 0
 430 742 452 671 452 627 c 0
 452 509 380 399 262 399 c 0
 195 399 149 444 149 509 c 0
327 690 m 0
 261 690 209 618 209 525 c 0
 209 478 234 451 276 451 c 0
 341 451 392 524 392 617 c 0
 392 662 367 690 327 690 c 0
EndSplineSet
Validated: 1
Ligature2: "ordinal symbols in Latin-1" o
EndChar

StartChar: AE
Encoding: 198 198 131
Width: 1000
Flags: MW
LayerCount: 2
Fore
SplineSet
513 214 m 1
 244 214 l 1
 114 0 l 1
 11 0 l 1
 465 729 l 1
 1087 729 l 1
 1070 647 l 1
 699 647 l 1
 650 414 l 1
 1001 414 l 1
 983 332 l 1
 632 332 l 1
 579 82 l 1
 967 82 l 1
 950 0 l 1
 468 0 l 1
 513 214 l 1
531 295 m 1
 605 647 l 1
 505 647 l 1
 293 295 l 1
 531 295 l 1
EndSplineSet
Validated: 1
Substitution2: "'c2sc' caps to small caps in Latin-1" sc.ae
Substitution2: "'sups' superscript-latin" AEsup
EndChar

StartChar: Ccedilla
Encoding: 199 199 132
Width: 711
Flags: HMW
LayerCount: 2
Fore
SplineSet
369 58 m 0
 523 58 581 165 625 266 c 1
 723 266 l 1
 644 68 530 -21 356 -23 c 1
 339 -56 l 1
 352 -54 355 -54 360 -54 c 0
 397 -54 427 -77 427 -105 c 0
 427 -168 366 -214 282 -214 c 0
 244 -214 215 -206 164 -180 c 1
 192 -142 l 1
 232 -163 258 -171 286 -171 c 0
 323 -171 349 -148 349 -116 c 0
 349 -104 335 -94 318 -94 c 0
 313 -94 297 -97 291 -98 c 1
 278 -92 l 1
 316 -21 l 1
 116.247 8.81348 100 176.777 100 242 c 0
 100 451.052 239.129 741 520 741 c 0
 615 741 748 703 758 503 c 1
 662 503 l 1
 654 611 604 660 503 660 c 0
 257 660 196 354 196 260 c 0
 196 139 265 58 369 58 c 0
EndSplineSet
Validated: 3073
MultipleSubs2: "'c2sc' caps to small caps in Latin pre-decompose-basic" C cedilla.cmb
EndChar

StartChar: Eth
Encoding: 208 208 141
Width: 722
Flags: HMW
LayerCount: 2
Fore
SplineSet
526 729 m 2
 715 729 759 574 759 488 c 0
 759 310.527 658.144 0 371 0 c 2
 89 0 l 1
 160 335 l 1
 92 335 l 1
 106 413 l 1
 177 413 l 1
 244 729 l 1
 526 729 l 2
254 335 m 1
 200 82 l 1
 372 82 l 2
 617.859 82 663 375.817 663 480 c 0
 663 585 599 647 492 647 c 2
 321 647 l 1
 271 413 l 1
 436 413 l 1
 421 335 l 1
 254 335 l 1
EndSplineSet
Validated: 1
Substitution2: "'c2sc' caps to small caps in Latin-1" sc.eth
EndChar

StartChar: multiply
Encoding: 215 215 148
Width: 584
Flags: HMW
LayerCount: 2
Fore
SplineSet
529 427 m 1
 568 377 l 1
 390 231 l 1
 507 84 l 1
 446 34 l 1
 330 181 l 1
 152 35 l 1
 113 84 l 1
 291 231 l 1
 176 377 l 1
 236 426 l 1
 351 281 l 1
 529 427 l 1
EndSplineSet
Validated: 3073
EndChar

StartChar: Ostroke
Encoding: 216 216 149
Width: 778
Flags: HMW
LayerCount: 2
Fore
SplineSet
822 463 m 0
 822 363 751 -23 388 -23 c 0
 295 -23 219 5 168 57 c 1
 77 -24 l 1
 42 15 l 1
 136 100 l 1
 112 141 98 205 98 268 c 0
 98 465.299 248.129 741 529 741 c 0
 626 741 711 709 755 657 c 1
 842 735 l 1
 877 696 l 1
 785 613 l 1
 810 570 822 519 822 463 c 0
212 168 m 1
 682 592 l 1
 646 635 585 660 518 660 c 0
 337 660 194 486 194 265 c 0
 194 225 199 198 212 168 c 1
710 546 m 1
 240 123 l 1
 274 83 335 58 401 58 c 0
 599.998 58 726 258.652 726 443 c 0
 726 485 720 521 710 546 c 1
EndSplineSet
Validated: 3073
Substitution2: "'c2sc' caps to small caps in Latin-1" sc.ostroke
EndChar

StartChar: Thorn
Encoding: 222 222 155
Width: 646
Flags: HMW
LayerCount: 2
Fore
SplineSet
697 450 m 0
 697 314 597 191 443 191 c 2
 215 191 l 1
 174 0 l 1
 80 0 l 1
 235 729 l 1
 329 729 l 1
 304 611 l 1
 512 611 l 2
 634 611 697 556 697 450 c 0
426 273 m 2
 536 273 601 346 601 432 c 0
 601 495 559 529 481 529 c 2
 286 529 l 1
 232 273 l 1
 426 273 l 2
EndSplineSet
Validated: 3073
Substitution2: "'c2sc' caps to small caps in Latin-1" sc.thorn
EndChar

StartChar: ssharp
Encoding: 223 223 156
Width: 579
Flags: HMW
LayerCount: 2
Fore
SplineSet
355.581 427 m 1
 481.149 427 539.719 485.557 539.719 565.534 c 0
 539.719 616.954 499.608 652 430.526 652 c 0
 332.526 652 285.366 595 265.743 510 c 2
 148 0 l 1
 60 0 l 1
 182.822 532 l 2
 209.372 647 308.072 728 449.072 728 c 0
 566.792 728 631.801 675.577 631.801 591.669 c 0
 631.801 478.471 539.465 416.505 510.348 400 c 1
 566.759 383.739 591.944 323.848 591.944 269.775 c 0
 591.944 72.499 412.492 -24 296.459 -24 c 0
 267.459 -24 238.075 -12.667 227.153 -8 c 1
 244.468 67 l 1
 258.237 61.667 291.929 56 305.929 56 c 0
 400.433 56 498.033 132.651 498.033 258.079 c 0
 498.033 334.223 435.258 354 338.728 354 c 1
 355.581 427 l 1
EndSplineSet
Validated: 3073
Substitution2: "'smcp' lowercase to small caps in Latin-1" sc.ssharp
EndChar

StartChar: ae
Encoding: 230 230 163
Width: 897
Flags: HMW
AnchorPoint: "above" 542 526 basechar 0
AnchorPoint: "below" 439 0 basechar 0
LayerCount: 2
Fore
SplineSet
513 163 m 2
 513 140 532 54 638 54 c 0
 704 54 757 90 793 159 c 1
 877 159 l 1
 845 50 743 -23 622 -23 c 0
 542 -23 487 9 448 79 c 1
 381 14 294 -23 207 -23 c 0
 120 -23 65 27 65 105 c 0
 65 180.715 112.696 279.502 312 294.796 c 0
 391.156 300.87 453.785 296.487 469 361 c 2
 474 386 l 2
 475 393 476 402 476 408 c 0
 476 440 436 462 372 462 c 0
 293 462 252 435 231 369 c 1
 147 369 l 1
 161 419 184 539 393 539 c 0
 489 539 542 498 552 474 c 1
 597 514 666 539 734 539 c 0
 836 539 921 462 921 370 c 0
 921 326.807 912.019 279.441 904 234 c 1
 518 234 l 1
 514 216 513 204 513 181 c 2
 513 163 l 2
447 257 m 1
 348 222 153 243 153 115 c 0
 153 72 185 49 243 49 c 0
 327 49 414 104 427 164 c 2
 447 257 l 1
536 306 m 1
 830 306 l 1
 832 321 833 328 833 339 c 0
 833 414 789 462 718 462 c 0
 635 462 567 404 536 306 c 1
EndSplineSet
Validated: 3073
Substitution2: "'smcp' lowercase to small caps in Latin-1" sc.ae
EndChar

StartChar: ccedilla
Encoding: 231 231 164
Width: 510
Flags: MW
LayerCount: 2
Fore
SplineSet
366 462 m 0
 196 462 164 238 164 181 c 0
 164 103 208 54 277 54 c 0
 349 54 404 98 434 180 c 1
 518 180 l 1
 486 51 400 -19 271 -23 c 1
 253 -56 l 1
 266 -54 270 -54 274 -54 c 0
 311 -54 341 -77 341 -105 c 0
 341 -168 280 -214 196 -214 c 0
 158 -214 129 -206 78 -180 c 1
 106 -142 l 1
 147 -163 172 -171 200 -171 c 0
 237 -171 263 -148 263 -116 c 0
 263 -104 248 -94 232 -94 c 0
 227 -94 211 -97 205 -98 c 1
 192 -92 l 1
 230 -22 l 1
 111 1 76 97 76 170 c 0
 76 378 197 539 381 539 c 0
 528 539 554 425 554 393 c 0
 554 390 553 379 552 363 c 2
 551 348 l 1
 467 348 l 1
 468 357 468 364 468 370 c 0
 468 427 429 462 366 462 c 0
EndSplineSet
Validated: 3073
MultipleSubs2: "'smcp' small caps in Latin pre-decompose-basic" c cedilla.cmb
EndChar

StartChar: eth
Encoding: 240 240 173
Width: 556
Flags: HMW
AnchorPoint: "below" 289 0 basechar 0
LayerCount: 2
Fore
SplineSet
80 164 m 0
 80 243 123 534 369 534 c 0
 395 534 407 531 435 517 c 1
 403 559 387 576 351 609 c 1
 251 564 l 1
 219 603 l 1
 308 644 l 1
 269 678 272 669 233 698 c 1
 275 743 l 1
 284.228 737.128 343.134 701.4 377 676 c 1
 476 719 l 1
 515 681 l 1
 420 640 l 1
 525 550 576 454 576 347 c 0
 576 268 531 -23 273 -23 c 0
 157 -23 80 52 80 164 c 0
283 54 m 0
 457 54 488 274 488 333 c 0
 488 414 445 462 371 462 c 0
 200 462 168 240 168 184 c 0
 168 104 212 54 283 54 c 0
EndSplineSet
Validated: 3073
Substitution2: "'smcp' lowercase to small caps in Latin-1" sc.eth
Substitution2: "'sups' superscript-phonetic" ethsup
EndChar

StartChar: divide
Encoding: 247 247 180
Width: 584
Flags: MW
LayerCount: 2
Fore
SplineSet
591 269 m 1
 576 197 l 1
 92 197 l 1
 107 269 l 1
 591 269 l 1
305 104 m 0
 334 104 357 81 357 51 c 0
 357 24 333 0 305 0 c 0
 277 0 253 24 253 52 c 0
 253 80 277 104 305 104 c 0
379 462 m 0
 408 462 431 439 431 409 c 0
 431 382 407 358 379 358 c 0
 351 358 327 382 327 410 c 0
 327 439 350 462 379 462 c 0
EndSplineSet
Validated: 1
EndChar

StartChar: ostroke
Encoding: 248 248 181
Width: 561
Flags: HMW
AnchorPoint: "above" 392 526 basechar 0
AnchorPoint: "below" 289 0 basechar 0
LayerCount: 2
Fore
SplineSet
577 354 m 0
 577 160 461 -23 274 -23 c 0
 206 -23 153 -1 123 41 c 1
 45 -30 l 1
 19 -2 l 1
 102 74 l 1
 87 106 81 133 81 164 c 0
 81 275.334 141.4 539 383 539 c 0
 454 539 504 517 537 472 c 1
 613 541 l 1
 639 511 l 1
 558 437 l 1
 571 408 577 383 577 354 c 0
369 462 m 0
 200 462 169 240 169 180 c 0
 169 163 170 156 175 141 c 1
 470 410 l 1
 451 444 415 462 369 462 c 0
289 54 m 0
 449 54 489 263 489 328 c 0
 489 339 488 350 484 370 c 1
 190 102 l 1
 209 71 245 54 289 54 c 0
EndSplineSet
Validated: 3073
Substitution2: "'smcp' lowercase to small caps in Latin-1" sc.ostroke
EndChar

StartChar: thorn
Encoding: 254 254 187
Width: 561
Flags: HMW
LayerCount: 2
Fore
SplineSet
594 344 m 0
 594 139 469 -23 302 -23 c 0
 231 -23 190 3 159 68 c 1
 99 -213 l 1
 15 -213 l 1
 215 729 l 1
 299 729 l 1
 238 440 l 1
 268 498 344 539 420 539 c 0
 527 539 594 464 594 344 c 0
310 54 m 0
 474 54 506 270 506 324 c 0
 506 410 462 462 387 462 c 0
 230 462 191 250 191 184 c 0
 191 104 237 54 310 54 c 0
EndSplineSet
Validated: 3073
Substitution2: "'smcp' lowercase to small caps in Latin-1" sc.thorn
EndChar

StartChar: Aogonek
Encoding: 260 260 193
Width: 667
Flags: HMW
AnchorPoint: "above" 487 729 basechar 0
LayerCount: 2
Fore
SplineSet
452 -130 m 0
 452 -81 488 -33 582 0 c 1
 551 0 l 1
 524 219 l 1
 226 219 l 1
 116 0 l 1
 17 0 l 1
 432 729 l 1
 552 729 l 1
 653 0 l 1
 564 -39 527 -73 527 -116 c 0
 527 -143 554 -160 595 -160 c 0
 619 -160 643 -157 663 -150 c 1
 654 -195 l 1
 612 -204 605 -205 582 -205 c 0
 502 -205 452 -176 452 -130 c 0
514 297 m 1
 474 630 l 1
 283 297 l 1
 514 297 l 1
EndSplineSet
Validated: 3073
MultipleSubs2: "'c2sc' caps to small caps in Latin pre-decompose-A" A ogonek.cmb
EndChar

StartChar: aogonek
Encoding: 261 261 194
Width: 556
Flags: HMW
AnchorPoint: "above" 403.5 538 basechar 0
LayerCount: 2
Fore
SplineSet
372 462 m 0
 261 462 241 388 235 369 c 1
 151 369 l 1
 170 480 255 539 394 539 c 0
 499 539 568 494 568 426 c 0
 568 416 568 416 562 389 c 2
 498 88 l 2
 497 85 497 82 497 78 c 0
 497 58 509 49 535 49 c 0
 539 49 543 49 552 51 c 1
 539 -14 l 1
 484 -27 435 -75 435 -116 c 0
 435 -143 462 -160 503 -160 c 0
 527 -160 551 -157 571 -150 c 1
 562 -195 l 1
 522 -204 513 -205 490 -205 c 0
 408 -205 360 -177 360 -128 c 0
 360 -83 384 -56 455 -19 c 1
 425 -10 410 11 410 43 c 2
 410 54 l 1
 384 32 330 -23 209 -23 c 0
 119 -23 65 25 65 105 c 0
 65 163 95 216 147 249 c 0
 283 335 451 259 473 361 c 2
 476 379 l 1
 477 387 478 394 478 398 c 0
 478 435 432 462 372 462 c 0
451 258 m 1
 346 222 153 244 153 115 c 0
 153 73 185 49 242 49 c 0
 330 49 418 102 431 164 c 2
 451 258 l 1
EndSplineSet
Validated: 3073
MultipleSubs2: "'smcp' small caps in Latin pre-decompose-A" a ogonek.cmb
EndChar

StartChar: Dcroat
Encoding: 272 272 205
Width: 722
Flags: HMW
LayerCount: 2
Fore
SplineSet
526 729 m 2
 715 729 759 574 759 488 c 0
 759 310.527 658.144 0 371 0 c 2
 89 0 l 1
 161 341 l 1
 93 341 l 1
 106 408 l 1
 176 408 l 1
 244 729 l 1
 526 729 l 2
255 341 m 1
 200 82 l 1
 372 82 l 2
 617.859 82 663 375.817 663 480 c 0
 663 585 599 647 492 647 c 2
 321 647 l 1
 270 408 l 1
 436 408 l 1
 422 341 l 1
 255 341 l 1
EndSplineSet
Validated: 3073
Substitution2: "'c2sc' caps to small caps in Latin-1" sc.eth
EndChar

StartChar: dcroat
Encoding: 273 273 206
Width: 556
Flags: MW
LayerCount: 2
Fore
SplineSet
73 170 m 0
 73 374 193 539 363 539 c 0
 433 539 474 513 506 448 c 1
 538 600 l 1
 388 600 l 1
 400 653 l 1
 550 653 l 1
 566 729 l 1
 650 729 l 1
 634 653 l 1
 695 653 l 1
 684 600 l 1
 622 600 l 1
 495 0 l 1
 414 0 l 1
 430 76 l 1
 398 12 311 -23 244 -23 c 0
 140 -23 73 53 73 170 c 0
278 54 m 0
 434 54 473 263 473 327 c 0
 473 412 429 462 355 462 c 0
 193 462 161 245 161 190 c 0
 161 104 204 54 278 54 c 0
EndSplineSet
Validated: 1
Substitution2: "'smcp' lowercase to small caps in Latin-1" sc.eth
EndChar

StartChar: Eogonek
Encoding: 280 280 213
Width: 657
Flags: HMW
AnchorPoint: "above" 477 729 basechar 0
LayerCount: 2
Fore
SplineSet
245 332 m 1
 191 82 l 1
 620 82 l 1
 603 0 l 1
 601 0 l 1
 586 -11 477 -44 477 -116 c 0
 477 -142 504 -160 543 -160 c 0
 570 -160 595 -156 613 -150 c 1
 604 -195 l 1
 583 -202 564 -205 536 -205 c 0
 451 -205 402 -177 402 -130 c 0
 402 -78 438 -35 532 0 c 1
 80 0 l 1
 235 729 l 1
 741 729 l 1
 724 647 l 1
 312 647 l 1
 262 414 l 1
 658 414 l 1
 640 332 l 1
 245 332 l 1
EndSplineSet
Validated: 3073
MultipleSubs2: "'c2sc' caps to small caps in Latin pre-decompose-A" E ogonek.cmb
EndChar

StartChar: eogonek
Encoding: 281 281 214
Width: 547
Flags: HMW
AnchorPoint: "above" 377.5 538 basechar 0
LayerCount: 2
Fore
SplineSet
529 159 m 1
 489 11 320 -18 320 -114 c 0
 320 -141 348 -160 387 -160 c 0
 414 -160 439 -156 457 -150 c 1
 448 -195 l 1
 427 -202 409 -205 380 -205 c 0
 321 -205 246 -190 246 -127 c 0
 246 -86 269 -58 339 -16 c 1
 307 -22 293 -23 273 -23 c 0
 154 -23 77 66 77 173 c 0
 77 246 123 539 382 539 c 0
 490 539 573 464 573 368 c 0
 573 341 568 299 559 251 c 2
 556 234 l 1
 170 234 l 1
 166 219 165 209 165 188 c 0
 165 103 210 54 289 54 c 0
 356 54 409 90 445 159 c 1
 529 159 l 1
188 306 m 1
 482 306 l 1
 484 322 485 329 485 339 c 0
 485 414 440 462 369 462 c 0
 288 462 214 398 188 306 c 1
EndSplineSet
Validated: 3073
MultipleSubs2: "'smcp' small caps in Latin pre-decompose-A" e ogonek.cmb
EndChar

StartChar: Hbar
Encoding: 294 294 227
Width: 722
Flags: HMW
LayerCount: 2
Fore
SplineSet
283 504 m 1
 264 414 l 1
 639 414 l 1
 658 504 l 1
 283 504 l 1
205 576 m 1
 237 729 l 1
 330 729 l 1
 298 576 l 1
 673 576 l 1
 705 729 l 1
 798 729 l 1
 766 576 l 1
 830 576 l 1
 815 506 l 1
 751 506 l 1
 644 0 l 1
 551 0 l 1
 621 332 l 1
 247 332 l 1
 177 0 l 1
 83 0 l 1
 190 506 l 1
 126 506 l 1
 141 576 l 1
 205 576 l 1
EndSplineSet
Validated: 3073
Substitution2: "'c2sc' caps to small caps in Latin-1" sc.hbar
Substitution2: "'sups' superscript-Latin-D" Hbarsup
EndChar

StartChar: hbar
Encoding: 295 295 228
Width: 556
Flags: HMW
LayerCount: 2
Fore
SplineSet
284 653 m 1
 434 653 l 1
 423 600 l 1
 273 600 l 1
 242 452 l 1
 304 516 354 539 428 539 c 0
 516 539 566 498 566 430 c 0
 566 419 565 408 563 396 c 2
 479 0 l 1
 396 0 l 1
 473 363 l 2
 475 374 476 384 476 393 c 0
 476 441 433 466 387 466 c 0
 301 466 230 396 207 289 c 2
 146 0 l 1
 63 0 l 1
 190 600 l 1
 127 600 l 1
 138 653 l 1
 201 653 l 1
 217 729 l 1
 300 729 l 1
 284 653 l 1
EndSplineSet
Validated: 3073
Substitution2: "'smcp' lowercase to small caps in Latin-1" sc.hbar
EndChar

StartChar: Iogonek
Encoding: 302 302 235
Width: 278
Flags: HMW
AnchorPoint: "above" 307 729 basechar 0
LayerCount: 2
Fore
SplineSet
349 729 m 1
 194 0 l 1
 174.5 -8 69 -44 69 -116 c 0
 69 -142 96 -160 135 -160 c 0
 162 -160 187 -156 205 -150 c 1
 196 -195 l 1
 175 -202 156 -205 128 -205 c 0
 43 -205 -6 -177 -6 -130 c 0
 -6 -78 30 -35 124 0 c 1
 100 0 l 1
 255 729 l 1
 349 729 l 1
EndSplineSet
Validated: 3073
MultipleSubs2: "'c2sc' caps to small caps in Latin pre-decompose-A" I ogonek.cmb
EndChar

StartChar: iogonek
Encoding: 303 303 236
Width: 262
Flags: HMW
AnchorPoint: "above" 287 729 basechar 0
LayerCount: 2
Fore
SplineSet
325 729 m 1
 303 626 l 1
 219 626 l 1
 241 729 l 1
 325 729 l 1
281 524 m 1
 170 0 l 1
 155 -11 45 -44 45 -116 c 0
 45 -142 72 -160 111 -160 c 0
 138 -160 163 -156 181 -150 c 1
 172 -195 l 1
 151 -202 132 -205 104 -205 c 0
 19 -205 -30 -177 -30 -130 c 0
 -30 -78 6 -35 100 0 c 1
 86 0 l 1
 197 524 l 1
 281 524 l 1
EndSplineSet
Validated: 3073
MultipleSubs2: "subst. i-ogonek with dotless-i+-ogonek" dotlessi ogonek.cmb
MultipleSubs2: "'smcp' small caps in Latin pre-decompose-A" i ogonek.cmb
EndChar

StartChar: dotlessi
Encoding: 305 305 238
Width: 222
Flags: HMW
AnchorPoint: "ogonek" 124 0 basechar 0 {150-150 22} {}
AnchorPoint: "below" 104 0 basechar 0
AnchorPoint: "above" 218.5 538 basechar 0
LayerCount: 2
Fore
SplineSet
261 524 m 1
 150 0 l 1
 66 0 l 1
 177 524 l 1
 261 524 l 1
EndSplineSet
Validated: 3073
Substitution2: "'smcp' lowercase to small caps in Latin-1" sc.i
Substitution2: "'smcp' lowercase to small caps in Latin for Turkish 1" sc.i
EndChar

StartChar: kgreenlandic
Encoding: 312 312 245
Width: 500
Flags: HMW
LayerCount: 2
Fore
SplineSet
254 524 m 1
 207 302 l 1
 476 524 l 1
 583 524 l 1
 256 264 l 1
 504 0 l 1
 401 0 l 1
 189 216 l 1
 143 0 l 1
 60 0 l 1
 171 524 l 1
 254 524 l 1
EndSplineSet
Validated: 3073
EndChar

StartChar: Lslash
Encoding: 321 321 254
Width: 556
Flags: MW
LayerCount: 2
Fore
SplineSet
261 315 m 1
 211 82 l 1
 570 82 l 1
 552 0 l 1
 100 0 l 1
 158 276 l 1
 75 225 l 1
 92 304 l 1
 175 355 l 1
 255 729 l 1
 349 729 l 1
 278 394 l 1
 474 512 l 1
 457 433 l 1
 261 315 l 1
EndSplineSet
Validated: 1
Substitution2: "'c2sc' caps to small caps in Latin-1" sc.lslash
EndChar

StartChar: lslash
Encoding: 322 322 255
Width: 222
Flags: MW
LayerCount: 2
Fore
SplineSet
239 414 m 1
 312 456 l 1
 298 389 l 1
 225 347 l 1
 151 0 l 1
 67 0 l 1
 134 314 l 1
 62 270 l 1
 76 337 l 1
 149 382 l 1
 222 729 l 1
 306 729 l 1
 239 414 l 1
EndSplineSet
Validated: 1
Substitution2: "'smcp' lowercase to small caps in Latin-1" sc.lslash
EndChar

StartChar: Eng
Encoding: 330 330 263
Width: 642
Flags: HMW
LayerCount: 2
Fore
SplineSet
698 522 m 0
 698 385 589 -16 379 -16 c 0
 317 -16 288 -2 278 0 c 1
 293 71 l 1
 310 70 340 57 386 57 c 0
 481 57 601 324 601 497 c 0
 601 631 527 671 473 671 c 0
 387 671 301 601 278 494 c 2
 173 0 l 17
 80 0 l 9
 235 729 l 1
 328 729 l 1
 312 652 l 1
 374 725 435 744 513 744 c 0
 598 744 698 680 698 522 c 0
EndSplineSet
Validated: 3073
Substitution2: "'c2sc' caps to small caps in Latin-1" sc.eng
Substitution2: "'locl' Localized Forms for Sami-1" Engsami
EndChar

StartChar: eng
Encoding: 331 331 264
Width: 538
Flags: HMW
AnchorPoint: "above" 425 526 basechar 0
LayerCount: 2
Fore
SplineSet
561 396 m 2
 454 -109 l 2
 439 -180 382 -218 288 -218 c 0
 275 -218 270 -217 260 -215 c 1
 275 -144 l 1
 292 -145 292 -145 295 -145 c 0
 346 -145 367 -128 378 -76 c 2
 471 363 l 2
 473 372 474 381 474 389 c 0
 474 437 441 466 385 466 c 0
 299 466 228 396 205 289 c 2
 144 0 l 1
 60 0 l 1
 171 524 l 1
 248 524 l 1
 230 436 l 1
 291 509 347 539 425 539 c 0
 513 539 565 497 565 429 c 0
 565 418 563 407 561 396 c 2
EndSplineSet
Validated: 3073
Substitution2: "'smcp' lowercase to small caps in Latin-1" sc.eng
Substitution2: "'sups' superscript-phonetic" engsup
EndChar

StartChar: OE
Encoding: 338 338 271
Width: 1000
Flags: HMW
LayerCount: 2
Fore
SplineSet
687 327 m 1
 634 82 l 1
 974 82 l 1
 957 0 l 1
 523 0 l 1
 539 77 l 1
 482 7 419 -23 332 -23 c 0
 193 -23 101 73 101 219 c 0
 101 448.262 235.507 741 496 741 c 0
 579 741 631 714 662 653 c 1
 678 729 l 1
 1108 729 l 1
 1091 647 l 1
 755 647 l 1
 704 409 l 1
 1031 409 l 1
 1013 327 l 1
 687 327 l 1
562 182 m 1
 638 539 l 1
 619 621 568 660 480 660 c 0
 248.125 660 197 340.221 197 222 c 0
 197 120 256 58 352 58 c 0
 436 58 505 99 562 182 c 1
EndSplineSet
Validated: 3073
Substitution2: "'c2sc' caps to small caps in Latin-1" OEsmallcap
EndChar

StartChar: oe
Encoding: 339 339 272
Width: 937
Flags: HMW
AnchorPoint: "above" 562 526 basechar 0
AnchorPoint: "below" 459 0 basechar 0
LayerCount: 2
Fore
SplineSet
80 165 m 0
 80 247 125 539 381 539 c 0
 465 539 524 503 553 436 c 1
 596 495 688 539 770 539 c 0
 878 539 961 464 961 368 c 0
 961 326.286 951.95 279.051 944 234 c 1
 558 234 l 1
 553 208 551 196 551 176 c 0
 551 102 600 54 678 54 c 0
 744 54 797 90 833 159 c 1
 917 159 l 1
 885 50 783 -23 662 -23 c 0
 549 -23 500 51 486 84 c 1
 436 17 357 -23 270 -23 c 0
 117 -23 80 95 80 165 c 0
280 54 m 0
 396 54 482 176 482 334 c 0
 482 414 438 462 366 462 c 0
 256 462 168 338 168 181 c 0
 168 103 211 54 280 54 c 0
576 306 m 1
 870 306 l 1
 872 320 873 328 873 338 c 0
 873 414 828 462 759 462 c 0
 677 462 602 398 576 306 c 1
EndSplineSet
Validated: 3073
Substitution2: "'smcp' lowercase to small caps in Latin-1" OEsmallcap
Substitution2: "'sups' superscript-Latin-D" oesup
EndChar

StartChar: Scedilla
Encoding: 350 350 283
Width: 667
Flags: HMW
LayerCount: 2
Fore
SplineSet
470 660 m 0
 360 660 274 605 274 518 c 0
 274 474 298 454 375 432 c 2
 547 383 l 2
 638 358 669 287 669 237 c 0
 669 158.895 594.481 -22 338 -22 c 1
 320 -56 l 1
 333 -54 336 -54 341 -54 c 0
 378 -54 408 -77 408 -105 c 0
 408 -168 347 -214 263 -214 c 0
 225 -214 197 -206 145 -180 c 1
 173 -142 l 1
 213 -163 239 -171 267 -171 c 0
 304 -171 330 -148 330 -116 c 0
 330 -104 315 -94 299 -94 c 0
 294 -94 278 -97 272 -98 c 1
 259 -92 l 1
 296 -22 l 1
 159 -4 89 54 89 169 c 0
 89 190 91 206 98 232 c 1
 185 232 l 1
 182 213 181 204 181 191 c 0
 181 100 233 58 346 58 c 0
 489 58 573 128 573 209 c 0
 573 257 540 286 460 309 c 2
 289 357 l 2
 222 376 178 429 178 492 c 0
 178 531.991 211.209 741 488 741 c 0
 669 741 714 638 714 571 c 0
 714 555 712 543 706 515 c 1
 618 515 l 1
 621 535 622 543 622 551 c 0
 622 633 558 660 470 660 c 0
EndSplineSet
Validated: 3073
MultipleSubs2: "'c2sc' caps to small caps in Latin pre-decompose-A" S cedilla.cmb
EndChar

StartChar: scedilla
Encoding: 351 351 284
Width: 500
Flags: MW
LayerCount: 2
Fore
SplineSet
340 462 m 0
 261 462 211 419 211 367 c 0
 211 341 240 321 296 307 c 2
 372 288 l 2
 461 266 494 234 494 173 c 0
 494 97 453 -14 255 -23 c 1
 237 -56 l 1
 250 -54 253 -54 258 -54 c 0
 295 -54 325 -77 325 -105 c 0
 325 -168 264 -214 180 -214 c 0
 142 -214 113 -206 62 -180 c 1
 90 -142 l 1
 130 -163 156 -171 184 -171 c 0
 221 -171 247 -148 247 -116 c 0
 247 -104 233 -94 216 -94 c 0
 211 -94 195 -97 189 -98 c 1
 176 -92 l 1
 214 -22 l 1
 112 -9 61 33 61 105 c 0
 61 121 63 133 67 156 c 1
 156 156 l 1
 155 146 154 137 154 131 c 0
 154 81 193 54 262 54 c 0
 383 54 406 131 406 150 c 0
 406 194 354 204 335 209 c 2
 261 228 l 2
 158 255 123 284 123 345 c 0
 123 450 214 539 356 539 c 0
 454 539 521 491 521 421 c 0
 521 409 519 399 514 378 c 1
 431 378 l 1
 431 400 l 2
 431 440 398 462 340 462 c 0
EndSplineSet
Validated: 1
MultipleSubs2: "'smcp' small caps in Latin pre-decompose-A" s cedilla.cmb
EndChar

StartChar: Tcedilla
Encoding: 354 354 287
Width: 611
Flags: HM
LayerCount: 2
Fore
SplineSet
304.442 -92.8662 m 0
 300.442 -92.8662 284.442 -95.8662 277.442 -96.8662 c 1
 264.442 -90.8662 l 1
 313.826 2.22045e-15 l 1
 261 0 l 1
 399 647 l 1
 158 647 l 1
 175 729 l 1
 748 729 l 1
 731 647 l 1
 493 647 l 1
 354.835 -1.38778e-17 l 1
 325.442 -54.8662 l 1
 338.442 -52.8662 342.442 -52.8662 346.442 -52.8662 c 0
 383.442 -52.8662 413.442 -75.8662 413.442 -103.866 c 0
 413.442 -166.866 352.442 -212.866 268.442 -212.866 c 0
 230.442 -212.866 201.442 -204.866 150.442 -178.866 c 1
 178.442 -140.866 l 1
 219.442 -161.866 244.442 -169.866 272.442 -169.866 c 0
 309.442 -169.866 335.442 -146.866 335.442 -114.866 c 0
 335.442 -102.866 321.442 -92.8662 304.442 -92.8662 c 0
EndSplineSet
Validated: 1
MultipleSubs2: "'c2sc' caps to small caps in Latin pre-decompose-A" T cedilla.cmb
EndChar

StartChar: tcedilla
Encoding: 355 355 288
Width: 278
Flags: HM
LayerCount: 2
Fore
SplineSet
136.442 -109.867 m 0
 132.442 -109.867 116.442 -112.867 109.442 -113.867 c 1
 96.4424 -107.867 l 1
 146.061 -16.5694 l 1
 115.026 -5.28429 97 20.321 97 56 c 0
 97 66 98 77 100 87 c 2
 179 457 l 1
 108 457 l 1
 122 524 l 1
 193 524 l 1
 224 668 l 1
 308 668 l 1
 277 524 l 1
 366 524 l 1
 352 457 l 1
 263 457 l 1
 185 90 l 2
 184 84 183 79 183 76 c 0
 183 60 197 49 219 49 c 0
 231 49 236 50 267 57 c 1
 251 -16 l 1
 237 -20 206 -23 186 -23 c 0
 185.206 -23 184.416 -22.9937 183.631 -22.9813 c 1
 157.442 -71.8672 l 1
 170.442 -69.8672 174.442 -69.8672 178.442 -69.8672 c 0
 215.442 -69.8672 245.442 -92.8672 245.442 -120.867 c 0
 245.442 -183.867 184.442 -229.867 100.442 -229.867 c 0
 62.4424 -229.867 33.4424 -221.867 -17.5576 -195.867 c 1
 10.4424 -157.867 l 1
 51.4424 -178.867 76.4424 -186.867 104.442 -186.867 c 0
 141.442 -186.867 167.442 -163.867 167.442 -131.867 c 0
 167.442 -119.867 153.442 -109.867 136.442 -109.867 c 0
EndSplineSet
Validated: 1
MultipleSubs2: "'smcp' small caps in Latin pre-decompose-A" t cedilla.cmb
EndChar

StartChar: Tbar
Encoding: 358 358 291
Width: 611
Flags: HMW
LayerCount: 2
Fore
SplineSet
198 357 m 1
 216 435 l 1
 357 435 l 1
 401 647 l 1
 161 647 l 1
 178 729 l 1
 750 729 l 1
 733 647 l 1
 494 647 l 1
 450 435 l 1
 591 435 l 1
 573 357 l 1
 433 357 l 1
 357 0 l 1
 264 0 l 1
 340 357 l 1
 198 357 l 1
EndSplineSet
Validated: 3073
MultipleSubs2: "'c2sc' caps to small caps in Latin pre-decompose-B" T barshortoverlay.cmb
EndChar

StartChar: tbar
Encoding: 359 359 292
Width: 278
Flags: HMW
LayerCount: 2
Fore
SplineSet
359 524 m 1
 344 456 l 1
 258 456 l 1
 228 312 l 1
 307 312 l 1
 291 240 l 1
 212 240 l 1
 182 97 l 2
 180 89 179 81 179 76 c 0
 179 56 190 50 218 50 c 0
 234 50 247 51 259 54 c 1
 244 -16 l 1
 215 -21 195 -23 175 -23 c 0
 119 -23 89 -1 89 39 c 0
 89 46 90 53 91 60 c 2
 129 240 l 1
 53 240 l 1
 69 312 l 1
 144 312 l 1
 175 456 l 1
 104 456 l 1
 119 524 l 1
 190 524 l 1
 220 668 l 1
 303 668 l 1
 273 524 l 1
 359 524 l 1
EndSplineSet
Validated: 3073
MultipleSubs2: "'smcp' small caps in Latin pre-decompose-B" t barshortoverlay.cmb
EndChar

StartChar: Uogonek
Encoding: 370 370 303
Width: 722
Flags: HMW
AnchorPoint: "above" 507 729 basechar 0
LayerCount: 2
Fore
SplineSet
366 -23 m 0
 220 -23 124 48 124 155 c 0
 124 170 131 218 138 251 c 2
 240 729 l 1
 334 729 l 1
 225 217 l 2
 222 201 220 187 220 173 c 0
 220 104 285 58 381 58 c 0
 494 58 576 118 597 217 c 2
 706 729 l 1
 800 729 l 1
 691 217 l 2
 670.444 120.447 623 66 514 -6 c 0
 462 -40 431 -84 431 -116 c 0
 431 -142 457 -160 497 -160 c 0
 524 -160 549 -156 568 -150 c 1
 559 -195 l 1
 537 -203 519 -205 487 -205 c 0
 403 -205 356 -177 356 -127 c 0
 356 -84 388 -46 453 -13 c 1
 415 -21 397 -23 366 -23 c 0
EndSplineSet
Validated: 3073
MultipleSubs2: "'c2sc' caps to small caps in Latin pre-decompose-A" U ogonek.cmb
EndChar

StartChar: uogonek
Encoding: 371 371 304
Width: 556
Flags: HMW
AnchorPoint: "above" 384.5 538 basechar 0
LayerCount: 2
Fore
SplineSet
594 524 m 1
 483 0 l 1
 456 -15 378 -69 378 -115 c 0
 378 -140 403 -160 433 -160 c 0
 453 -160 478 -156 495 -150 c 1
 486 -195 l 1
 465 -202 446 -205 419 -205 c 0
 348 -205 304 -175 304 -127 c 0
 304 -79 348 -33 427 0 c 1
 407 0 l 1
 419 57 l 1
 361 1 304 -23 226 -23 c 0
 140 -23 88 18 88 86 c 0
 88 99 89 110 91 120 c 2
 177 524 l 1
 261 524 l 1
 182 153 l 2
 180 143 179 134 179 126 c 0
 179 79 214 49 268 49 c 0
 353 49 424 119 447 227 c 2
 510 524 l 1
 594 524 l 1
EndSplineSet
Validated: 3073
MultipleSubs2: "'smcp' small caps in Latin pre-decompose-A" u ogonek.cmb
EndChar

StartChar: longs
Encoding: 383 383 316
Width: 278
Flags: MW
LayerCount: 2
Fore
SplineSet
173 0 m 1
 89 0 l 1
 186 457 l 1
 116 457 l 1
 130 524 l 1
 200 524 l 1
 219 613 l 2
 235 687 291 732 368 732 c 0
 384 732 395 731 413 727 c 1
 398 658 l 1
 384 660 378 660 371 660 c 0
 328 660 310 643 299 593 c 2
 173 0 l 1
EndSplineSet
Validated: 1
Substitution2: "'smcp' lowercase to small caps in Latin-1" sc.s
EndChar

StartChar: fhook
Encoding: 402 402 317
Width: 278
Flags: MW
LayerCount: 2
Fore
SplineSet
370 524 m 1
 356 457 l 1
 270 457 l 1
 150 -109 l 2
 132 -191 89 -218 -26 -218 c 0
 -35 -218 -38 -217 -45 -215 c 1
 -30 -144 l 1
 -12 -146 -10 -146 -5 -146 c 0
 46 -146 61 -132 73 -76 c 2
 186 457 l 1
 116 457 l 1
 130 524 l 1
 200 524 l 1
 219 613 l 2
 235 687 291 732 368 732 c 0
 384 732 395 731 413 727 c 1
 398 658 l 1
 384 660 378 660 371 660 c 0
 328 660 310 643 299 593 c 2
 284 524 l 1
 370 524 l 1
EndSplineSet
Validated: 1
Substitution2: "'smcp' lowercase to small caps in Latin-1" sc.fhook
EndChar

StartChar: Oogonek
Encoding: 490 490 342
Width: 778
Flags: HM
AnchorPoint: "above" 537 729 basechar 0
LayerCount: 2
Fore
SplineSet
186 -146 m 0
 186 -94 222 -51 316 -16 c 1
 210 5 104 78 104 263 c 0
 104 485.393 268.723 741 537 741 c 0
 770 741 828 582 828 464 c 0
 828 357 760 -23 391 -23 c 0
 385 -23 379 -23 372 -23 c 1
 339 -38 261 -71 261 -132 c 0
 261 -158 288 -176 327 -176 c 0
 354 -176 379 -172 397 -166 c 1
 388 -211 l 1
 367 -218 348 -221 320 -221 c 0
 235 -221 186 -193 186 -146 c 0
732 446 m 0
 732 617 612 660 525 660 c 0
 327.041 660 200 463.372 200 271 c 0
 200 101 322 58 404 58 c 0
 681 58 732 368 732 446 c 0
EndSplineSet
Validated: 3073
MultipleSubs2: "'c2sc' caps to small caps in Latin pre-decompose-B" O ogonek.cmb
EndChar

StartChar: oogonek
Encoding: 491 491 343
Width: 551
Flags: HMW
AnchorPoint: "above" 379.5 538 basechar 0
LayerCount: 2
Fore
SplineSet
278 54 m 0
 452 54 483 274 483 333 c 0
 483 414 440 462 366 462 c 0
 195 462 163 240 163 184 c 0
 163 104 207 54 278 54 c 0
379 539 m 0
 496 539 571 462 571 352 c 0
 571 274.488 532.499 -6.2041 286.018 -22.293 c 1
 253.442 -37.4893 174 -70.5322 174 -132 c 0
 174 -158 201 -176 240 -176 c 0
 267 -176 292 -172 310 -166 c 1
 301 -211 l 1
 280 -218 261 -221 233 -221 c 0
 148 -221 99 -193 99 -146 c 0
 99 -95.4883 132.968 -53.4688 221.07 -19.0254 c 1
 132.793 -2.06055 75 67.835 75 164 c 0
 75 276.406 135.8 539 379 539 c 0
EndSplineSet
Validated: 3073
MultipleSubs2: "'smcp' small caps in Latin pre-decompose-B" o ogonek.cmb
EndChar

StartChar: kappa
Encoding: 954 954 381
Width: 516
Flags: HMW
AnchorPoint: "above" 312 526 basechar 0
LayerCount: 2
Fore
SplineSet
431 0 m 1
 323 0 l 1
 217 266 l 1
 140 206 l 1
 89 0 l 1
 1 0 l 1
 130 518 l 1
 218 518 l 1
 166 308 l 1
 426 518 l 1
 540 518 l 1
 294 326 l 1
 431 0 l 1
EndSplineSet
Validated: 1
Substitution2: "'locl' local. forms in Greek-1" kappasymbol
Substitution2: "'smcp' lowercase to small caps in Greek-1" sc.k
EndChar

StartChar: lambda
Encoding: 955 955 382
Width: 579
Flags: HMW
AnchorPoint: "above" 386 729 basechar 0
LayerCount: 2
Fore
SplineSet
490 73 m 0
 500 73 524 81 527 84 c 1
 529 14 l 1
 494 -2 465 -10 443 -10 c 0
 410 -10 390 6 386 38 c 0
 386 41 381 68 381 68 c 1
 352 304 l 1
 347 348 347 387 347 422 c 1
 317 368 295 322 279 302 c 2
 96 2 l 1
 0 2 l 1
 328 522 l 1
 326 542 l 2
 319 629 297 646 251 646 c 0
 231 646 195 638 195 638 c 1
 226 720 l 1
 249 728 269 732 284 732 c 0
 386 732 395 657 410 530 c 2
 460 120 l 2
 462.492 99.5645 465.961 73 490 73 c 0
EndSplineSet
Validated: 1
Substitution2: "'smcp' lowercase to small caps in Greek-1" sc.lambda
EndChar

StartChar: uni03BC
Encoding: 956 956 383
Width: 571
Flags: HMW
AnchorPoint: "above" 352 526 basechar 0
LayerCount: 2
Fore
SplineSet
135 167 m 0
 135 110 174 64 238 64 c 0
 297 64 374 101 399 208 c 2
 476 518 l 1
 562 518 l 1
 471 152 l 2
 464 124 461 104 461 93 c 0
 462 84 465 79 471 79 c 0
 472 79 476.688 79.8125 480 81 c 1
 492 21 l 1
 470 8 456 0 434 0 c 0
 384 0 371 28 371 74 c 1
 334 25 275 -10 217 -10 c 0
 149 -10 117 23 104 62 c 1
 39 -200 l 1
 -49 -200 l 1
 130 518 l 1
 218 518 l 1
 141 208 l 2
 137 193 135 180 135 167 c 0
EndSplineSet
Validated: 1
Substitution2: "'smcp' lowercase to small caps in Greek-1" sc.m
EndChar

StartChar: nu
Encoding: 957 957 384
Width: 518
Flags: HMW
AnchorPoint: "above" 342 526 basechar 0
LayerCount: 2
Fore
SplineSet
566 518 m 1
 241 0 l 1
 159 0 l 1
 92 518 l 1
 184 518 l 1
 219 208 l 2
 223 165 225 117 225 104 c 1
 476 518 l 1
 566 518 l 1
EndSplineSet
Validated: 1
Substitution2: "'smcp' lowercase to small caps in Greek-1" sc.n
EndChar

StartChar: xi
Encoding: 958 958 385
Width: 499
Flags: HMW
AnchorPoint: "above" 386 729 basechar 0
LayerCount: 2
Fore
SplineSet
243 70 m 0
 367 70 400 56 400 -4 c 0
 400 -37 385 -91 318 -194 c 1
 251 -166 l 1
 302 -86 317 -57 317 -30 c 0
 317 -6 300 0 233 0 c 2
 214 0 l 2
 49 0 19 76 19 130 c 0
 19 235 101 356 242 376 c 1
 158 388 149 456 149 476 c 0
 149 543 200 619 264 648 c 1
 164 648 l 1
 181 718 l 1
 553 718 l 1
 536 648 l 1
 370 648 l 2
 280 648 227 527 227 489 c 0
 227 455 248 404 367 404 c 2
 449 404 l 1
 433 340 l 1
 323 340 l 2
 189 340 109 239 109 166 c 0
 109 108 167 70 243 70 c 0
EndSplineSet
Validated: 1
Substitution2: "'smcp' lowercase to small caps in Greek-1" sc.xi
EndChar

StartChar: omicron
Encoding: 959 959 386
Width: 561
Flags: HMW
AnchorPoint: "above" 352 526 basechar 0
AnchorPoint: "above_gk" 352 540 basechar 0
AnchorPoint: "below_gk" 225 -24 basechar 0
LayerCount: 2
Fore
SplineSet
354 530 m 0
 437 530 542 495 542 356 c 0
 542 228 470 78 353 20 c 0
 310 -1 265 -12 219 -12 c 0
 69 -12 32 90 32 167 c 0
 32 240 80 530 354 530 c 0
237 62 m 0
 416 62 449 285 449 342 c 0
 447 393 426 458 336 458 c 0
 166 458 124 243 124 181 c 0
 124 129 147 62 237 62 c 0
EndSplineSet
Validated: 1
Substitution2: "'smcp' lowercase to small caps in Greek-1" sc.o
EndChar

StartChar: pi
Encoding: 960 960 387
Width: 636
Flags: HMW
AnchorPoint: "above" 392 526 basechar 0
LayerCount: 2
Fore
SplineSet
523 64 m 0
 536 64 552 72 556 76 c 1
 556 14 l 1
 527 4 494 -4 478 -4 c 0
 433 -4 408 8 408 55 c 0
 408 71 411 91 417 114 c 2
 501 450 l 1
 265 450 l 1
 153 0 l 1
 59 -2 l 1
 172 450 l 1
 102 450 l 1
 119 520 l 1
 671 520 l 1
 653 450 l 1
 589 450 l 1
 506 116 l 2
 503.529 106.055 502 92 502 76 c 0
 502 68.25 510 64 523 64 c 0
EndSplineSet
Validated: 1
Substitution2: "'smcp' lowercase to small caps in Greek-1" sc.pi
EndChar

StartChar: rho
Encoding: 961 961 388
Width: 551
Flags: HMW
AnchorPoint: "above" 372 526 basechar 0
AnchorPoint: "above_gk" 372 540 basechar 0
LayerCount: 2
Fore
SplineSet
374 532 m 0
 526 532 564 430 564 355 c 0
 564 242 485.828 -10 239 -10 c 0
 211 -10 137 -5 104 61 c 1
 39 -200 l 1
 -49 -200 l 1
 68 270 l 2
 116 461 252 532 374 532 c 0
257 64 m 0
 428 64 471 273 471 338 c 0
 471 434 405 460 356 460 c 0
 186 460 143 248 143 182 c 0
 143 132 166 64 257 64 c 0
EndSplineSet
Validated: 1
Substitution2: "'smcp' lowercase to small caps in Greek-1" sc.p
Substitution2: "'locl' local. forms in Greek-1" rhosymbol
Substitution2: "'subs' subscript-phonetic" rhosub
EndChar

StartChar: sigmafinal
Encoding: 962 962 389
Width: 564
Flags: HMW
AnchorPoint: "above" 352 526 basechar 0
LayerCount: 2
Fore
SplineSet
52.9043 214.781 m 0
 52.9043 361.447 167.786 536 370.931 536 c 0
 485.984 536 554.544 473.337 554.544 375.229 c 0
 554.544 359.073 552.685 341.957 548.868 324 c 1
 457.868 324 l 1
 460.327 335.567 461.84 347.748 461.84 359.859 c 0
 461.84 409.524 436.393 458 346.351 458 c 0
 215.629 458 149.179 321.174 149.179 222.026 c 0
 149.179 112.866 247.324 98.3965 361.492 87 c 0
 421.679 78.2617 476.634 66.4688 476.634 2.9082 c 0
 476.634 -34.0732 463.863 -69.5527 392.314 -182 c 1
 309.116 -150 l 1
 358.775 -73.9043 375.255 -40.0439 375.255 -29.6699 c 0
 375.255 5.79199 269.116 -9.18359 197.551 12 c 0
 158.586 22.5195 52.9043 80.6826 52.9043 214.781 c 0
EndSplineSet
Validated: 1
Substitution2: "'smcp' lowercase to small caps in Greek-1" sc.sigma
EndChar

StartChar: sigma
Encoding: 963 963 390
Width: 627
Flags: HMW
AnchorPoint: "above" 362 526 basechar 0
LayerCount: 2
Fore
SplineSet
32 167 m 0
 32 240 80 530 354 530 c 0
 373 530 390 529 403 526 c 1
 667 526 l 1
 647 444 l 1
 511 444 l 1
 529 409 538 372 538 333 c 0
 538 255 474 -12 219 -12 c 0
 69 -12 32 90 32 167 c 0
237 62 m 0
 416 62 449 285 449 342 c 0
 447 393 426 458 336 458 c 0
 166 458 124 243 124 181 c 0
 124 129 147 62 237 62 c 0
EndSplineSet
Validated: 1
Substitution2: "'smcp' lowercase to small caps in Greek-1" sc.sigma
EndChar

StartChar: tau
Encoding: 964 964 391
Width: 505
Flags: HMW
AnchorPoint: "above" 332 526 basechar 0
LayerCount: 2
Fore
SplineSet
306 80 m 0
 315 80 334 83 340 85 c 1
 339 6 l 1
 323 2 286 -4 269 -4 c 0
 187 -4 172 24 172 86 c 0
 174 99 178 119 184 144 c 2
 260 450 l 1
 96 450 l 1
 113 518 l 1
 565 518 l 1
 548 450 l 1
 348 450 l 1
 274 152 l 2
 268 127 266 111 266 104 c 0
 271 85 280 80 306 80 c 0
EndSplineSet
Validated: 1
Substitution2: "'smcp' lowercase to small caps in Greek-1" sc.t
EndChar

StartChar: upsilon
Encoding: 965 965 392
Width: 549
Flags: HMW
AnchorPoint: "above" 342 526 basechar 0
AnchorPoint: "above_gk" 342 540 basechar 0
LayerCount: 2
Fore
SplineSet
131 133 m 0
 131 96 154 62 237 62 c 0
 371 62 391 154 410 232 c 2
 481 518 l 1
 569 518 l 1
 489 198 l 2
 452 43 377 -14 221 -14 c 0
 105 -14 37 10 37 108 c 0
 37 128 42 160 51 198 c 2
 131 518 l 1
 219 518 l 1
 148 232 l 2
 137 187 131 154 131 133 c 0
EndSplineSet
Validated: 1
Substitution2: "'smcp' lowercase to small caps in Greek-1" sc.upsilon
EndChar

StartChar: phi
Encoding: 966 966 393
Width: 715
Flags: HMW
AnchorPoint: "above" 442 526 basechar 0
LayerCount: 2
Fore
SplineSet
485 522 m 2
 659 522 703 404 703 322 c 0
 703 185 586 -10 385 -10 c 2
 353 -10 l 1
 305 -200 l 1
 217 -200 l 1
 265 -10 l 1
 243 -10 l 2
 161 -10 35 19 35 184 c 0
 44 388 205 485 268 514 c 1
 293 446 l 1
 198 393 122 305 122 211 c 0
 122 157 151 71 265 71 c 2
 285 71 l 1
 397 522 l 1
 485 522 l 2
397 71 m 2
 572 71 616 251 616 306 c 0
 616 356 589 432 483 432 c 2
 463 432 l 1
 373 71 l 1
 397 71 l 2
EndSplineSet
Validated: 1
Substitution2: "'smcp' lowercase to small caps in Greek-1" sc.phi
Substitution2: "'sups' superscript-phonetic" phisup
Substitution2: "'subs' subscript-phonetic" phisub
EndChar

StartChar: chi
Encoding: 967 967 394
Width: 579
Flags: HMW
AnchorPoint: "above" 382 526 basechar 0
LayerCount: 2
Fore
SplineSet
489 -200 m 1
 470 -208 452 -212 435 -212 c 2
 427 -212 l 2
 390 -212 353 -185 334 -123 c 2
 286 74 l 1
 34 -200 l 1
 -70 -200 l 1
 254 160 l 1
 170 420 l 2
 161 449 152 458 121 458 c 0
 110 455 102 454 96 454 c 1
 116 532 l 1
 125 534 167 538 173 538 c 0
 238 538 251 494 256 478 c 2
 326 234 l 1
 550 518 l 1
 646 518 l 1
 362 160 l 1
 430 -91 l 2
 440 -127 459 -127 473 -127 c 0
 488 -127 507 -122 509 -121 c 1
 489 -200 l 1
EndSplineSet
Validated: 1
Substitution2: "'smcp' lowercase to small caps in Greek-1" sc.x
Substitution2: "'sups' superscript-phonetic" chisup
Substitution2: "'subs' subscript-phonetic" chisub
EndChar

StartChar: psi
Encoding: 968 968 395
Width: 662
Flags: HMW
AnchorPoint: "above" 422 526 basechar 0
LayerCount: 2
Fore
SplineSet
248 -2 m 1
 77 -2 46 84 46 145 c 0
 46 166 49 189 55 214 c 2
 131 518 l 1
 221 518 l 1
 152 242 l 1
 146 213 142 189 141 168 c 0
 141 110 169 72 266 72 c 1
 373 500 l 1
 459 500 l 1
 352 72 l 1
 460 72 521 117 550 242 c 2
 619 518 l 1
 709 518 l 1
 633 214 l 2
 615 141 579 86 527 51 c 0
 475 16 411 -2 334 -2 c 1
 284 -200 l 1
 198 -200 l 1
 248 -2 l 1
EndSplineSet
Validated: 1
Substitution2: "'smcp' lowercase to small caps in Greek-1" sc.psi
EndChar

StartChar: omega
Encoding: 969 969 396
Width: 746
Flags: HMW
AnchorPoint: "above" 432 526 basechar 0
AnchorPoint: "above_gk" 442 540 basechar 0
AnchorPoint: "below_gk" 315 -24 basechar 0
LayerCount: 2
Fore
SplineSet
665 526 m 1
 708 483 716 384 717 348 c 1
 717 100.619 583.335 -9 454 -9 c 0
 357 -9 338 59 332 81 c 1
 270 -1 203 -9 166 -9 c 0
 54 -9 26 76 26 143 c 0
 26 316 156 483 221 526 c 1
 295 500 l 1
 235 453 110 316 110 158 c 0
 110 87 139 63 187 63 c 0
 264 67 298 112 308 153 c 2
 364 376 l 1
 448 376 l 1
 392 153 l 2
 390 146 390 139 390 132 c 0
 394 72 428 65 468 63 c 0
 599 63 633 268 633 323 c 0
 633 394 615 447 579 500 c 1
 665 526 l 1
EndSplineSet
Validated: 1
Substitution2: "'smcp' lowercase to small caps in Greek-1" sc.omega
EndChar

StartChar: Djecyr
Encoding: 1026 1026 404
Width: 781
Flags: HMW
AnchorPoint: "cyr-above" 405 728 basechar 0
LayerCount: 2
Fore
SplineSet
633 454 m 2
 741 454 768 383 768 332 c 0
 768 316 766 303 764 297 c 2
 699 0 l 2
 691 -38 660 -147 502 -147 c 2
 421 -147 l 1
 434 -82 l 1
 533 -82 l 2
 568 -82 595 -60 604 -16 c 2
 675 315 l 2
 676 320 677 325 677 329 c 0
 677 355 658 369 621 372 c 2
 383 372 l 1
 304 0 l 1
 211 0 l 1
 348 648 l 1
 149 648 l 1
 166 728 l 1
 656 728 l 1
 639 648 l 1
 442 648 l 1
 401 454 l 1
 633 454 l 2
EndSplineSet
Validated: 3073
Substitution2: "'c2sc' caps to small caps in Cyrillic-1" sc.cyr_dje
EndChar

StartChar: Ecyr
Encoding: 1028 1028 406
Width: 709
Flags: HMW
AnchorPoint: "cyr-above" 523 728 basechar 0
LayerCount: 2
Fore
SplineSet
664 503 m 1
 664 595 632 659 500 659 c 0
 374 659 271 567 222 414 c 1
 586 414 l 1
 568 332 l 1
 202 332 l 1
 198 307 196 283 196 261 c 0
 196 135 263 59 380 59 c 0
 529 59 592 169 627 266 c 1
 723 266 l 1
 660 73 540 -23 362 -23 c 0
 140 -23 101 142 101 249 c 0
 101 449.011 236.625 741 528 741 c 0
 683 741 759 668 759 518 c 0
 759 503 l 1
 664 503 l 1
EndSplineSet
Validated: 3073
Substitution2: "'c2sc' caps to small caps in Cyrillic-invariant" ecyr
EndChar

StartChar: Ljecyr
Encoding: 1033 1033 411
Width: 1002
Flags: HMW
AnchorPoint: "cyr-above" 636 728 basechar 0
LayerCount: 2
Fore
SplineSet
1004 238 m 0
 1004 181 952 0 744 0 c 2
 451 0 l 1
 587 647 l 1
 362 647 l 1
 308 393 238 0 20 0 c 1
 40 94 l 1
 174 94 247 544 277 689 c 2
 285 729 l 1
 698 729 l 1
 632 415 l 1
 776 415 l 2
 778 415 l 0
 929 415 1004 356 1004 238 c 0
913 240 m 0
 913 277 897 333 805 333 c 2
 614 333 l 1
 561 82 l 1
 752 82 l 2
 850 82 913 155 913 240 c 0
EndSplineSet
Validated: 3073
Substitution2: "'c2sc' caps to small caps in Cyrillic-invariant" ljecyr
EndChar

StartChar: Njecyr
Encoding: 1034 1034 412
Width: 1166
Flags: HMW
AnchorPoint: "cyr-above" 750 728 basechar 0
LayerCount: 2
Fore
SplineSet
1136 237 m 0
 1136 183 1084 0 876 0 c 2
 547 0 l 1
 617 332 l 1
 244 332 l 1
 174 0 l 1
 80 0 l 1
 234 729 l 1
 327 729 l 1
 261 414 l 1
 635 414 l 1
 701 729 l 1
 794 729 l 1
 728 415 l 1
 908 415 l 2
 1071.53 415 1136 350.572 1136 237 c 0
1045 237 m 0
 1045 278 1029 333 937 333 c 2
 710 333 l 1
 657 82 l 1
 884 82 l 2
 985 82 1045 159 1045 237 c 0
EndSplineSet
Validated: 3073
Substitution2: "'c2sc' caps to small caps in Cyrillic-invariant" njecyr
EndChar

StartChar: Tshecyr
Encoding: 1035 1035 413
Width: 772
Flags: HMW
AnchorPoint: "cyr-above" 410 728 basechar 0
LayerCount: 2
Fore
SplineSet
631 454 m 2
 740 454 767 383 767 332 c 0
 767 316 764 303 763 297 c 2
 700 0 l 1
 607 0 l 1
 674 315 l 2
 675 320 675 325 675 329 c 0
 675 355 657 369 620 372 c 2
 382 372 l 1
 303 0 l 1
 210 0 l 1
 346 648 l 1
 147 648 l 1
 164 728 l 1
 654 728 l 1
 637 648 l 1
 440 648 l 1
 399 454 l 1
 631 454 l 2
EndSplineSet
Validated: 3073
Substitution2: "'c2sc' caps to small caps in Cyrillic-1" sc.cyr_tshe
EndChar

StartChar: Dzhecyr
Encoding: 1039 1039 417
Width: 721
Flags: HMW
AnchorPoint: "cyr-above" 510 728 basechar 0
LayerCount: 2
Fore
SplineSet
329 0 m 1
 80 0 l 1
 235 729 l 1
 329 729 l 1
 191 82 l 1
 564 82 l 1
 702 729 l 1
 796 729 l 1
 641 0 l 1
 409 0 l 1
 380 -135 l 1
 300 -135 l 1
 329 0 l 1
EndSplineSet
Validated: 3073
Substitution2: "'c2sc' caps to small caps in Cyrillic-invariant" dzhecyr
EndChar

StartChar: Becyr
Encoding: 1041 1041 419
Width: 665
Flags: HMW
AnchorPoint: "cyr-above" 480 728 basechar 0
LayerCount: 2
Fore
SplineSet
669 238 m 0
 669 182 617 0 409 0 c 2
 80 0 l 1
 235 729 l 1
 724 729 l 1
 707 647 l 1
 311 647 l 1
 261 415 l 1
 445 415 l 2
 570.115 415 669 379.6 669 238 c 0
579 238 m 0
 579 277 562 333 471 333 c 2
 244 333 l 1
 190 82 l 1
 417 82 l 2
 515 82 579 154 579 238 c 0
EndSplineSet
Validated: 3073
Substitution2: "'c2sc' caps to small caps in Cyrillic-1" sc.cyr_be
EndChar

StartChar: Gecyr
Encoding: 1043 1043 421
Width: 590
Flags: HMW
AnchorPoint: "cyr-above" 483 728 basechar 0
LayerCount: 2
Fore
SplineSet
173 0 m 1
 80 0 l 1
 235 729 l 1
 724 729 l 1
 707 647 l 1
 311 647 l 1
 173 0 l 1
EndSplineSet
Validated: 3073
Substitution2: "'c2sc' caps to small caps in Cyrillic-invariant-B" gecyr
EndChar

StartChar: Decyr
Encoding: 1044 1044 422
Width: 807
Flags: HMW
AnchorPoint: "cyr-above" 614 728 basechar 0
LayerCount: 2
Fore
SplineSet
277 82 m 1
 608 82 l 1
 728 647 l 1
 466 647 l 1
 431 481 391 215 277 82 c 1
140 74 m 1
 277 132 325 424 390 729 c 1
 840 729 l 1
 701 74 l 1
 792 74 l 1
 747 -135 l 1
 667 -135 l 1
 696 0 l 1
 112 0 l 1
 83 -135 l 1
 3 -135 l 1
 48 74 l 1
 140 74 l 1
EndSplineSet
Validated: 3073
Substitution2: "'c2sc' caps to small caps in Cyrillic-invariant-B" decyr
EndChar

StartChar: Zhecyr
Encoding: 1046 1046 424
Width: 914
Flags: HMW
AnchorPoint: "cyr-above" 611 728 basechar 0
LayerCount: 2
Fore
SplineSet
480 324 m 1
 125 0 l 1
 15 0 l 1
 420 375 l 1
 208 729 l 1
 328 729 l 1
 501 421 l 1
 566 729 l 1
 659 729 l 1
 594 421 l 1
 897 729 l 1
 1017 729 l 1
 655 375 l 1
 900 0 l 1
 790 0 l 1
 573 324 l 1
 504 0 l 1
 411 0 l 1
 480 324 l 1
EndSplineSet
Validated: 3073
Substitution2: "'c2sc' caps to small caps in Cyrillic-invariant-B" zhecyr
EndChar

StartChar: Zecyr
Encoding: 1047 1047 425
Width: 653
Flags: HMW
AnchorPoint: "cyr-above" 491 728 basechar 0
LayerCount: 2
Fore
SplineSet
174 188 m 0
 174 135 200 59 349 59 c 0
 487 59 565 130 565 208 c 0
 565 261 514 321 428 321 c 2
 320 321 l 1
 337 403 l 1
 425 403 l 2
 506 403 615 480 615 565 c 0
 615 625 562 663 475 663 c 0
 359 663 283 610 262 515 c 1
 174 515 l 1
 205 658 321 741 489 741 c 0
 628 741 708 679 708 576 c 0
 708 500 673 417 565 374 c 1
 629 348 662 302 662 240 c 0
 662 102 537 -23 326 -23 c 0
 133 -23 84 83 84 162 c 0
 84 182 87 205 92 232 c 1
 180 232 l 1
 176 216 174 202 174 188 c 0
EndSplineSet
Validated: 3073
Substitution2: "'c2sc' caps to small caps in Cyrillic-invariant-B" zecyr
EndChar

StartChar: Iicyr
Encoding: 1048 1048 426
Width: 730
Flags: HMW
AnchorPoint: "cyr-above" 513 728 basechar 0
LayerCount: 2
Fore
SplineSet
235 729 m 1
 323 729 l 1
 196 133 l 1
 704 729 l 1
 805 729 l 1
 650 0 l 1
 562 0 l 1
 688 591 l 1
 185 0 l 1
 80 0 l 1
 235 729 l 1
EndSplineSet
Validated: 3073
Substitution2: "'c2sc' caps to small caps in Cyrillic-invariant-B" iicyr
EndChar

StartChar: Kacyr
Encoding: 1050 1050 428
Width: 674
Flags: HMW
AnchorPoint: "cyr-above" 513 728 basechar 0
LayerCount: 2
Fore
SplineSet
173 0 m 1
 80 0 l 1
 235 729 l 1
 328 729 l 1
 261 414 l 1
 691 729 l 1
 811 729 l 1
 324 375 l 1
 659 0 l 1
 549 0 l 1
 242 324 l 1
 173 0 l 1
EndSplineSet
Validated: 3073
Substitution2: "'c2sc' caps to small caps in Cyrillic-invariant-B" kacyr
EndChar

StartChar: Elcyr
Encoding: 1051 1051 429
Width: 656
Flags: HMW
AnchorPoint: "cyr-above" 497 728 basechar 0
LayerCount: 2
Fore
SplineSet
619 647 m 1
 357 647 l 1
 309 422 242 0 15 0 c 1
 35 94 l 1
 160 94 216 424 280 729 c 1
 730 729 l 1
 576 0 l 1
 482 0 l 1
 619 647 l 1
EndSplineSet
Validated: 3073
Substitution2: "'c2sc' caps to small caps in Cyrillic-invariant-B" elcyr
EndChar

StartChar: Pecyr
Encoding: 1055 1055 433
Width: 720
Flags: HMW
AnchorPoint: "cyr-above" 512 728 basechar 0
LayerCount: 2
Fore
SplineSet
685 647 m 1
 312 647 l 1
 174 0 l 1
 80 0 l 1
 235 729 l 1
 796 729 l 1
 641 0 l 1
 547 0 l 1
 685 647 l 1
EndSplineSet
Validated: 3073
Substitution2: "'c2sc' caps to small caps in Cyrillic-invariant-B" pecyr
EndChar

StartChar: Ucyr
Encoding: 1059 1059 437
Width: 605
Flags: HMW
AnchorPoint: "cyr-above" 445 728 basechar 0
LayerCount: 2
Fore
SplineSet
228 0 m 1
 115 0 l 1
 296 244 l 1
 157 729 l 1
 270 729 l 1
 374 350 l 1
 639 729 l 1
 750 729 l 1
 228 0 l 1
EndSplineSet
Validated: 3073
Substitution2: "'c2sc' caps to small caps in Cyrillic-1" sc.cyr_u
EndChar

StartChar: Efcyr
Encoding: 1060 1060 438
Width: 875
Flags: HMW
AnchorPoint: "cyr-above" 589 728 basechar 0
LayerCount: 2
Fore
SplineSet
410 94 m 1
 281 94 110 105 110 290 c 0
 110 593.005 328.449 635 497 635 c 0
 506 635 516 635 525 635 c 1
 546 729 l 1
 640 729 l 1
 620 635 l 1
 629 635 639 635 648 635 c 0
 770 635 924 624 924 455 c 0
 924 95.5693 606.985 94 505 94 c 1
 485 0 l 1
 391 0 l 1
 410 94 l 1
430 188 m 1
 505 541 l 1
 422 541 213 534 213 314 c 0
 213 199 308 187 382 187 c 0
 400 187 416 188 430 188 c 1
573 187 m 0
 774 187 820 330 820 419 c 0
 820 534 695 541 600 541 c 1
 525 188 l 1
 539 188 555 187 573 187 c 0
EndSplineSet
Validated: 3073
Substitution2: "'c2sc' caps to small caps in Cyrillic-1" sc.phi
EndChar

StartChar: Tsecyr
Encoding: 1062 1062 440
Width: 754
Flags: HMW
AnchorPoint: "cyr-above" 520 728 basechar 0
LayerCount: 2
Fore
SplineSet
564 82 m 1
 702 729 l 1
 796 729 l 1
 657 74 l 1
 749 74 l 1
 704 -135 l 1
 624 -135 l 1
 653 0 l 1
 80 0 l 1
 235 729 l 1
 329 729 l 1
 191 82 l 1
 564 82 l 1
EndSplineSet
Validated: 3073
Substitution2: "'c2sc' caps to small caps in Cyrillic-invariant-B" tsecyr
EndChar

StartChar: Checyr
Encoding: 1063 1063 441
Width: 612
Flags: HMW
AnchorPoint: "cyr-above" 450 728 basechar 0
LayerCount: 2
Fore
SplineSet
503 302 m 1
 218 302 l 2
 172 302 140 320 140 363 c 0
 140 369 140 376 142 383 c 2
 216 729 l 1
 309 729 l 1
 235 384 l 1
 520 384 l 1
 594 729 l 1
 687 729 l 1
 532 0 l 1
 439 0 l 1
 503 302 l 1
EndSplineSet
Validated: 3073
Substitution2: "'c2sc' caps to small caps in Cyrillic-invariant-B" checyr
EndChar

StartChar: Shacyr
Encoding: 1064 1064 442
Width: 830
Flags: HMW
AnchorPoint: "cyr-above" 575 728 basechar 0
LayerCount: 2
Fore
SplineSet
479 82 m 1
 673 82 l 1
 811 729 l 1
 905 729 l 1
 750 0 l 1
 80 0 l 1
 235 729 l 1
 329 729 l 1
 191 82 l 1
 385 82 l 1
 523 729 l 1
 617 729 l 1
 479 82 l 1
EndSplineSet
Validated: 3073
Substitution2: "'c2sc' caps to small caps in Cyrillic-invariant-B" shacyr
EndChar

StartChar: Shchacyr
Encoding: 1065 1065 443
Width: 872
Flags: HMW
AnchorPoint: "cyr-above" 569 728 basechar 0
LayerCount: 2
Fore
SplineSet
762 0 m 1
 80 0 l 1
 235 729 l 1
 329 729 l 1
 191 82 l 1
 385 82 l 1
 523 729 l 1
 617 729 l 1
 479 82 l 1
 673 82 l 1
 811 729 l 1
 905 729 l 1
 766 74 l 1
 858 74 l 1
 813 -135 l 1
 733 -135 l 1
 762 0 l 1
EndSplineSet
Validated: 3073
Substitution2: "'c2sc' caps to small caps in Cyrillic-invariant-B" shchacyr
EndChar

StartChar: Hardsigncyr
Encoding: 1066 1066 444
Width: 839
Flags: HMW
AnchorPoint: "cyr-above" 606 728 basechar 0
LayerCount: 2
Fore
SplineSet
841 237 m 0
 841 183 789 0 580 0 c 2
 251 0 l 1
 388 647 l 1
 158 647 l 1
 175 729 l 1
 499 729 l 1
 433 415 l 1
 613 415 l 2
 776.529 415 841 350.572 841 237 c 0
750 239 m 0
 750 279 734 333 642 333 c 2
 415 333 l 1
 362 82 l 1
 589 82 l 2
 687 82 750 155 750 239 c 0
EndSplineSet
Validated: 3073
Substitution2: "'c2sc' caps to small caps in Cyrillic-invariant-B" hardsigncyr
EndChar

StartChar: Yericyr
Encoding: 1067 1067 445
Width: 885
Flags: HMW
AnchorPoint: "cyr-above" 603 728 basechar 0
LayerCount: 2
Fore
SplineSet
960 729 m 1
 805 0 l 1
 711 0 l 1
 866 729 l 1
 960 729 l 1
669 238 m 0
 669 182 617 0 409 0 c 2
 80 0 l 1
 235 729 l 1
 328 729 l 1
 261 415 l 1
 441 415 l 2
 604.519 415 669 350.569 669 238 c 0
579 238 m 0
 579 277 562 333 471 333 c 2
 244 333 l 1
 190 82 l 1
 417 82 l 2
 515 82 579 154 579 238 c 0
EndSplineSet
Validated: 3073
Substitution2: "'c2sc' caps to small caps in Cyrillic-invariant-B" yericyr
EndChar

StartChar: Softsigncyr
Encoding: 1068 1068 446
Width: 668
Flags: HMW
AnchorPoint: "cyr-above" 496 728 basechar 0
LayerCount: 2
Fore
SplineSet
670 237 m 0
 670 183 618 0 409 0 c 2
 80 0 l 1
 235 729 l 1
 328 729 l 1
 262 415 l 1
 442 415 l 2
 605.529 415 670 350.572 670 237 c 0
579 239 m 0
 579 279 563 333 471 333 c 2
 244 333 l 1
 191 82 l 1
 418 82 l 2
 516 82 579 155 579 239 c 0
EndSplineSet
Validated: 3073
Substitution2: "'c2sc' caps to small caps in Cyrillic-invariant-B" softsigncyr
EndChar

StartChar: Ereversedcyr
Encoding: 1069 1069 447
Width: 708
Flags: HMW
AnchorPoint: "cyr-above" 493 728 basechar 0
LayerCount: 2
Fore
SplineSet
194 231 m 0
 194 131 232 59 354 59 c 0
 492 59 605 164 648 332 c 1
 282 332 l 1
 299 414 l 1
 663 414 l 1
 665 429 665 444 665 459 c 0
 665 585 602 659 489 659 c 0
 351 659 294 586 259 503 c 1
 164 503 l 1
 227 663 336 741 496 741 c 0
 720 741 759 575 759 465 c 0
 759 266.051 625.755 -23 337 -23 c 0
 176 -23 96 55 96 213 c 0
 96 230 97 247 99 266 c 1
 195 266 l 1
 194 254 194 242 194 231 c 0
EndSplineSet
Validated: 3073
Substitution2: "'c2sc' caps to small caps in Cyrillic-invariant-B" ereversedcyr
EndChar

StartChar: IUcyr
Encoding: 1070 1070 448
Width: 1099
Flags: HMW
AnchorPoint: "cyr-above" 551 728 basechar 0
LayerCount: 2
Fore
SplineSet
429 332 m 1
 244 332 l 1
 174 0 l 1
 80 0 l 1
 235 729 l 1
 328 729 l 1
 261 414 l 1
 449 414 l 1
 512 611 675 741 866 741 c 0
 1045 741 1149 634 1149 461 c 0
 1149 225.427 976.993 -23 705 -23 c 0
 528 -23 423 86 423 257 c 0
 423 281 425 306 429 332 c 1
849 659 m 0
 636.337 659 517 443.004 517 273 c 0
 517 142 593 59 722 59 c 0
 919.714 59 1054 250.837 1054 445 c 0
 1054 577 980 659 849 659 c 0
EndSplineSet
Validated: 3073
Substitution2: "'c2sc' caps to small caps in Cyrillic-invariant-B" iucyr
EndChar

StartChar: IAcyr
Encoding: 1071 1071 449
Width: 676
Flags: HMW
AnchorPoint: "cyr-above" 503 728 basechar 0
LayerCount: 2
Fore
SplineSet
172 491 m 0
 172 547 224 729 432 729 c 2
 761 729 l 1
 606 0 l 1
 513 0 l 1
 580 314 l 1
 469 314 l 1
 125 0 l 1
 15 0 l 1
 355 315 l 1
 225 321 172 388 172 491 c 0
262 491 m 0
 262 452 279 396 370 396 c 2
 597 396 l 1
 651 647 l 1
 424 647 l 2
 326 647 262 575 262 491 c 0
EndSplineSet
Validated: 3073
Substitution2: "'c2sc' caps to small caps in Cyrillic-invariant-B" iacyr
EndChar

StartChar: becyr
Encoding: 1073 1073 451
Width: 545
Flags: HMW
AnchorPoint: "cyr-above" 401 752 basechar 0
LayerCount: 2
Fore
SplineSet
581 349 m 0
 581 145 454 -23 275 -23 c 0
 153 -23 87 47 87 169 c 0
 87 196 90 226 97 258 c 0
 136 442 210 664 345 690 c 0
 402 701 551 703 567 775 c 1
 641 776 l 1
 610 621 505 654 375 611 c 0
 325 594 307 558 278 514 c 1
 313 530 352 539 393 539 c 0
 515 539 581 471 581 349 c 0
291 54 m 0
 462 54 492 276 492 329 c 0
 492 414 452 462 378 462 c 0
 207 462 176 237 176 187 c 0
 176 103 217 54 291 54 c 0
EndSplineSet
Validated: 3073
Substitution2: "'smcp' lowercase to small caps in Cyrillic-1" sc.cyr_be
Substitution2: "'locl' local. forms for South Slavic-1" cyr_serb_be
EndChar

StartChar: vecyr
Encoding: 1074 1074 452
Width: 521
Flags: MW
AnchorPoint: "cyr-above" 344 545 basechar 0
LayerCount: 2
Fore
SplineSet
524 184 m 0
 524 147 486 0 333 0 c 2
 70 0 l 1
 182 525 l 1
 421 525 l 2
 529 525 548 462 548 423 c 0
 548 335 483 291 451 277 c 1
 501 256 524 227 524 184 c 0
459 393 m 0
 459 415 441 449 368 449 c 2
 250 449 l 1
 219 307 l 1
 337 307 l 2
 435 307 459 357 459 393 c 0
435 184 m 0
 435 208 404 231 355 231 c 2
 203 231 l 1
 170 76 l 1
 322 76 l 2
 391 76 435 126 435 184 c 0
EndSplineSet
Validated: 3073
EndChar

StartChar: gecyr
Encoding: 1075 1075 453
Width: 375
Flags: MW
AnchorPoint: "cyr-above" 312 545 basechar 0
LayerCount: 2
Fore
SplineSet
181 524 m 1
 476 524 l 1
 460 448 l 1
 249 448 l 1
 154 0 l 1
 70 0 l 1
 181 524 l 1
EndSplineSet
Validated: 3073
EndChar

StartChar: decyr
Encoding: 1076 1076 454
Width: 572
Flags: HMW
AnchorPoint: "cyr-above" 427 545 basechar 0
LayerCount: 2
Fore
SplineSet
85 64 m 1
 156 71 215 292 264 524 c 1
 603 524 l 1
 506 64 l 1
 570 64 l 1
 531 -120 l 1
 461 -120 l 1
 486 0 l 1
 84 0 l 1
 59 -120 l 1
 -11 -120 l 1
 28 64 l 1
 85 64 l 1
203 76 m 1
 424 76 l 1
 503 448 l 1
 331 448 l 1
 310 341 277 173 203 76 c 1
EndSplineSet
Validated: 3073
EndChar

StartChar: zhecyr
Encoding: 1078 1078 456
Width: 815
Flags: HMW
AnchorPoint: "cyr-above" 515 545 basechar 0
LayerCount: 2
Fore
SplineSet
412 216 m 1
 108 0 l 1
 5 0 l 1
 365 264 l 1
 148 524 l 1
 255 524 l 1
 430 302 l 1
 477 524 l 1
 560 524 l 1
 513 302 l 1
 782 524 l 1
 889 524 l 1
 562 264 l 1
 810 0 l 1
 707 0 l 1
 495 216 l 1
 449 0 l 1
 366 0 l 1
 412 216 l 1
EndSplineSet
Validated: 3073
EndChar

StartChar: zecyr
Encoding: 1079 1079 457
Width: 488
Flags: HMW
AnchorPoint: "cyr-above" 347 545 basechar 0
LayerCount: 2
Fore
SplineSet
259 54 m 0
 375 54 396 127 396 148 c 0
 396 183 364 221 311 221 c 2
 237 221 l 1
 253 297 l 1
 315 297 l 2
 408 297 432 375 432 398 c 0
 432 437 396 462 336 462 c 0
 269 462 227 433 213 378 c 1
 125 378 l 1
 148 481 228 539 349 539 c 0
 456 539 520 491 520 413 c 0
 520 320 455 281 427 267 c 1
 470 246 491 218 491 177 c 0
 491 68 391 -23 236 -23 c 0
 118 -23 60 20 60 109 c 0
 60 123 62 139 65 156 c 1
 153 156 l 1
 152 147 152 139 152 132 c 0
 152 66 213 54 259 54 c 0
EndSplineSet
Validated: 3073
EndChar

StartChar: iicyr
Encoding: 1080 1080 458
Width: 557
Flags: HMW
AnchorPoint: "cyr-above" 378 545 basechar 0
LayerCount: 2
Fore
SplineSet
181 524 m 1
 265 524 l 1
 177 111 l 1
 500 524 l 1
 598 524 l 1
 487 0 l 1
 404 0 l 1
 491 413 l 1
 169 0 l 1
 70 0 l 1
 181 524 l 1
EndSplineSet
Validated: 3073
EndChar

StartChar: kacyr
Encoding: 1082 1082 460
Width: 519
Flags: MW
AnchorPoint: "cyr-above" 362 545 basechar 0
LayerCount: 2
Fore
SplineSet
264 524 m 1
 217 302 l 1
 486 524 l 1
 593 524 l 1
 266 264 l 1
 514 0 l 1
 411 0 l 1
 199 216 l 1
 153 0 l 1
 70 0 l 1
 181 524 l 1
 264 524 l 1
EndSplineSet
Validated: 3073
EndChar

StartChar: elcyr
Encoding: 1083 1083 461
Width: 508
Flags: HMW
AnchorPoint: "cyr-above" 381 545 basechar 0
LayerCount: 2
Fore
SplineSet
210 524 m 1
 549 524 l 1
 437 0 l 1
 353 0 l 1
 449 448 l 1
 277 448 l 1
 244 292 186 0 20 0 c 1
 37 80 l 1
 117 80 160 292 210 524 c 1
EndSplineSet
Validated: 3073
EndChar

StartChar: emcyr
Encoding: 1084 1084 462
Width: 618
Flags: MW
AnchorPoint: "cyr-above" 411 545 basechar 0
LayerCount: 2
Fore
SplineSet
181 524 m 1
 265 524 l 1
 354 213 l 1
 575 524 l 1
 659 524 l 1
 548 0 l 1
 464 0 l 1
 538 348 l 1
 352 86 l 1
 302 86 l 1
 228 348 l 1
 154 0 l 1
 70 0 l 1
 181 524 l 1
EndSplineSet
Validated: 3073
EndChar

StartChar: encyr
Encoding: 1085 1085 463
Width: 558
Flags: MW
AnchorPoint: "cyr-above" 389 545 basechar 0
LayerCount: 2
Fore
SplineSet
181 524 m 1
 265 524 l 1
 219 309 l 1
 469 309 l 1
 515 524 l 1
 599 524 l 1
 488 0 l 1
 404 0 l 1
 453 233 l 1
 203 233 l 1
 154 0 l 1
 70 0 l 1
 181 524 l 1
EndSplineSet
Validated: 3073
Substitution2: "'sups' superscript-phonetic" encyrsup
EndChar

StartChar: pecyr
Encoding: 1087 1087 465
Width: 557
Flags: MW
AnchorPoint: "cyr-above" 387 545 basechar 0
LayerCount: 2
Fore
SplineSet
181 524 m 1
 598 524 l 1
 487 0 l 1
 403 0 l 1
 498 448 l 1
 249 448 l 1
 154 0 l 1
 70 0 l 1
 181 524 l 1
EndSplineSet
Validated: 3073
EndChar

StartChar: tecyr
Encoding: 1090 1090 468
Width: 392
Flags: HMW
AnchorPoint: "cyr-above" 305 545 basechar 0
LayerCount: 2
Fore
SplineSet
121 524 m 1
 493 524 l 1
 477 448 l 1
 333 448 l 1
 238 0 l 1
 154 0 l 1
 249 448 l 1
 105 448 l 1
 121 524 l 1
EndSplineSet
Validated: 3073
EndChar

StartChar: efcyr
Encoding: 1092 1092 470
Width: 922
Flags: HMW
AnchorPoint: "cyr-above" 613 675 basechar 0
LayerCount: 2
Fore
SplineSet
957 347 m 0
 957 273 906 -23 664 -23 c 0
 596 -23 552 1 519 55 c 1
 461 -218 l 1
 378 -218 l 1
 437 60 l 1
 386 3 331 -23 258 -23 c 0
 145 -23 82 47 82 165 c 0
 82 321.661 184.827 539 381 539 c 0
 450 539 501 502 519 445 c 1
 568 674 l 1
 651 674 l 1
 602 445 l 1
 644 506 711 539 782 539 c 0
 894 539 957 467 957 347 c 0
665 55 m 0
 827 55 868 260 868 323 c 0
 868 409 826 461 752 461 c 0
 595 461 554 251 554 190 c 0
 554 106 595 55 665 55 c 0
290 55 m 0
 447 55 487 263 487 327 c 0
 487 411 448 461 377 461 c 0
 215 461 173 256 173 193 c 0
 173 108 216 55 290 55 c 0
EndSplineSet
Validated: 3073
Substitution2: "'smcp' lowercase to small caps in Cyrillic-1" sc.phi
EndChar

StartChar: tsecyr
Encoding: 1094 1094 472
Width: 588
Flags: HMW
AnchorPoint: "cyr-above" 397 545 basechar 0
LayerCount: 2
Fore
SplineSet
70 0 m 1
 181 524 l 1
 265 524 l 1
 170 76 l 1
 419 76 l 1
 514 524 l 1
 598 524 l 1
 501 64 l 1
 581 64 l 1
 542 -120 l 1
 472 -120 l 1
 498 0 l 1
 70 0 l 1
EndSplineSet
Validated: 3073
EndChar

StartChar: checyr
Encoding: 1095 1095 473
Width: 482
Flags: HMW
AnchorPoint: "cyr-above" 337 545 basechar 0
LayerCount: 2
Fore
SplineSet
160 524 m 1
 244 524 l 1
 196 299 l 1
 391 299 l 1
 439 524 l 1
 523 524 l 1
 412 0 l 1
 328 0 l 1
 375 223 l 1
 180 223 l 2
 128 223 108 236 108 267 c 0
 108 275 110 285 112 296 c 2
 160 524 l 1
EndSplineSet
Validated: 3073
EndChar

StartChar: shacyr
Encoding: 1096 1096 474
Width: 693
Flags: MW
AnchorPoint: "cyr-above" 454 545 basechar 0
LayerCount: 2
Fore
SplineSet
404 76 m 1
 554 76 l 1
 649 524 l 1
 733 524 l 1
 622 0 l 1
 70 0 l 1
 181 524 l 1
 265 524 l 1
 170 76 l 1
 320 76 l 1
 415 524 l 1
 499 524 l 1
 404 76 l 1
EndSplineSet
Validated: 3073
EndChar

StartChar: shchacyr
Encoding: 1097 1097 475
Width: 722
Flags: MW
AnchorPoint: "cyr-above" 453 545 basechar 0
LayerCount: 2
Fore
SplineSet
632 0 m 1
 70 0 l 1
 181 524 l 1
 265 524 l 1
 170 76 l 1
 320 76 l 1
 415 524 l 1
 499 524 l 1
 404 76 l 1
 554 76 l 1
 649 524 l 1
 733 524 l 1
 635 64 l 1
 715 64 l 1
 676 -120 l 1
 606 -120 l 1
 632 0 l 1
EndSplineSet
Validated: 3073
EndChar

StartChar: hardsigncyr
Encoding: 1098 1098 476
Width: 644
Flags: HMW
AnchorPoint: "cyr-above" 448 545 basechar 0
LayerCount: 2
Fore
SplineSet
646 188 m 0
 646 91 571 0 456 0 c 2
 193 0 l 1
 288 448 l 1
 105 448 l 1
 121 524 l 1
 388 525 l 1
 342 307 l 1
 464 307 l 2
 575.693 307 646 283.2 646 188 c 0
557 184 m 0
 557 210 525 231 478 231 c 2
 326 231 l 1
 293 76 l 1
 445 76 l 2
 513 76 557 124 557 184 c 0
EndSplineSet
Validated: 3073
EndChar

StartChar: yericyr
Encoding: 1099 1099 477
Width: 731
Flags: HMW
AnchorPoint: "cyr-above" 497 545 basechar 0
LayerCount: 2
Fore
SplineSet
772 524 m 1
 661 0 l 1
 578 0 l 1
 689 524 l 1
 772 524 l 1
523 188 m 0
 523 91 448 0 333 0 c 2
 70 0 l 1
 181 525 l 1
 265 525 l 1
 219 307 l 1
 341 307 l 2
 470 307 523 269 523 188 c 0
434 183 m 0
 434 209 403 231 355 231 c 2
 203 231 l 1
 170 76 l 1
 322 76 l 2
 390 76 434 125 434 183 c 0
EndSplineSet
Validated: 3073
EndChar

StartChar: softsigncyr
Encoding: 1100 1100 478
Width: 521
Flags: HMW
AnchorPoint: "cyr-above" 384 545 basechar 0
LayerCount: 2
Fore
SplineSet
523 188 m 0
 523 91 448 0 333 0 c 2
 70 0 l 1
 181 525 l 1
 265 525 l 1
 219 307 l 1
 341 307 l 2
 470 307 523 269 523 188 c 0
434 184 m 0
 434 210 402 231 355 231 c 2
 203 231 l 1
 170 76 l 1
 322 76 l 2
 390 76 434 124 434 184 c 0
EndSplineSet
Validated: 3073
EndChar

StartChar: ereversedcyr
Encoding: 1101 1101 479
Width: 509
Flags: HMW
AnchorPoint: "cyr-above" 366 545 basechar 0
LayerCount: 2
Fore
SplineSet
544 341 m 0
 544 266 495 -23 243 -23 c 0
 132 -23 70 36 70 139 c 0
 70 152 71 166 73 180 c 1
 157 180 l 1
 157 176 157 171 157 167 c 0
 157 92 191 54 258 54 c 0
 345 54 413 121 443 233 c 1
 217 232 l 1
 232 309 l 1
 456 309 l 1
 457 316 457 324 457 331 c 0
 457 414 418 462 346 462 c 0
 276 462 224 421 198 348 c 1
 114 348 l 1
 157 494 267 539 362 539 c 0
 477 539 544 464 544 341 c 0
EndSplineSet
Validated: 3073
EndChar

StartChar: iucyr
Encoding: 1102 1102 480
Width: 790
Flags: MW
AnchorPoint: "cyr-above" 437 545 basechar 0
LayerCount: 2
Fore
SplineSet
826 349 m 0
 826 145 699 -23 519 -23 c 0
 367 -23 331 82 331 168 c 0
 331 192 334 215 338 233 c 1
 205 233 l 1
 154 0 l 1
 70 0 l 1
 182 524 l 1
 266 524 l 1
 221 309 l 1
 356 309 l 1
 366 357 443 539 638 539 c 0
 760 539 826 471 826 349 c 0
536 54 m 0
 704 54 737 272 737 330 c 0
 737 414 696 462 622 462 c 0
 452 462 421 237 421 187 c 0
 421 103 462 54 536 54 c 0
EndSplineSet
Validated: 3073
EndChar

StartChar: iacyr
Encoding: 1103 1103 481
Width: 550
Flags: HMW
AnchorPoint: "cyr-above" 401 545 basechar 0
LayerCount: 2
Fore
SplineSet
138 338 m 0
 138 378 171 525 328 525 c 2
 591 525 l 1
 479 0 l 1
 395 0 l 1
 442 218 l 1
 414 218 l 1
 108 0 l 1
 5 0 l 1
 302 219 l 1
 189 223 138 261 138 338 c 0
227 341 m 0
 227 316 258 294 306 294 c 2
 458 294 l 1
 491 449 l 1
 339 449 l 2
 270 449 227 401 227 341 c 0
EndSplineSet
Validated: 3073
EndChar

StartChar: djecyr
Encoding: 1106 1106 484
Width: 566
Flags: HMW
LayerCount: 2
Fore
SplineSet
500 377 m 0
 500 422 464 451 411 451 c 0
 308 451 249 358 231 274 c 2
 174 0 l 1
 91 0 l 1
 218 596 l 1
 134 596 l 1
 147 663 l 1
 232 663 l 1
 246 729 l 1
 329 729 l 1
 315 663 l 1
 485 663 l 1
 472 596 l 1
 301 596 l 1
 266 437 l 1
 350 523 415 524 452 524 c 0
 570 524 591 459 591 415 c 0
 591 401 588 388 587 381 c 2
 527 106 l 1
 480 -71 299 -163 226 -163 c 0
 221 -163 216 -163 212 -162 c 1
 221 -122 l 1
 277 -120 414 -42 443 96 c 0
 497 348 l 2
 499 359 500 368 500 377 c 0
EndSplineSet
Validated: 3073
Substitution2: "'smcp' lowercase to small caps in Cyrillic-1" sc.cyr_dje
EndChar

StartChar: ecyr
Encoding: 1108 1108 486
Width: 506
Flags: HMW
AnchorPoint: "cyr-above" 375 545 basechar 0
LayerCount: 2
Fore
SplineSet
376 539 m 0
 446 539 545 510 545 392 c 0
 545 379 544 364 542 348 c 1
 458 348 l 1
 458 353 459 358 459 363 c 0
 459 427 423 462 358 462 c 0
 281 462 218 406 184 309 c 1
 408 309 l 1
 390 232 l 1
 165 233 l 1
 162 215 161 199 161 184 c 0
 161 102 201 54 274 54 c 0
 345 54 397 96 428 180 c 1
 512 180 l 1
 475 52 380 -23 255 -23 c 0
 138 -23 72 49 72 168 c 0
 72 261 135 539 376 539 c 0
EndSplineSet
Validated: 3073
EndChar

StartChar: ljecyr
Encoding: 1113 1113 491
Width: 793
Flags: HMW
AnchorPoint: "cyr-above" 489 545 basechar 0
LayerCount: 2
Fore
SplineSet
31 80 m 1
 132 80 182 450 204 524 c 1
 543 524 l 1
 497 310 l 1
 610 310 l 2
 733 310 798 285 798 200 c 0
 798 31 635 0 593 0 c 2
 347 0 l 1
 443 448 l 1
 271 448 l 1
 228 244 168 0 14 0 c 1
 31 80 l 1
705 179 m 0
 705 208 685 234 605 234 c 2
 481 234 l 1
 447 76 l 1
 571 76 l 2
 625.755 76 705 80.7962 705 179 c 0
EndSplineSet
Validated: 3073
EndChar

StartChar: njecyr
Encoding: 1114 1114 492
Width: 849
Flags: HMW
AnchorPoint: "cyr-above" 556 545 basechar 0
LayerCount: 2
Fore
SplineSet
855 200 m 0
 855 31 692 0 650 0 c 2
 404 0 l 1
 454 233 l 1
 204 233 l 1
 154 0 l 1
 70 0 l 1
 182 524 l 1
 266 524 l 1
 220 309 l 1
 470 309 l 1
 516 524 l 1
 600 524 l 1
 554 310 l 1
 667 310 l 2
 790 310 855 285 855 200 c 0
762 179 m 0
 762 208 742 234 662 234 c 2
 538 234 l 1
 504 76 l 1
 628 76 l 2
 682.755 76 762 84 762 179 c 0
EndSplineSet
Validated: 3073
EndChar

StartChar: tshecyr
Encoding: 1115 1115 493
Width: 576
Flags: HMW
LayerCount: 2
Fore
SplineSet
504 377 m 0
 504 422 468 451 414 451 c 0
 312 451 253 358 235 274 c 2
 178 0 l 1
 95 0 l 1
 221 596 l 1
 137 596 l 1
 151 663 l 1
 235 663 l 1
 249 729 l 1
 332 729 l 1
 318 663 l 1
 489 663 l 1
 475 596 l 1
 304 596 l 1
 269 437 l 1
 354 523 419 524 456 524 c 0
 574 524 594 459 594 415 c 0
 594 401 592 388 591 381 c 2
 509 0 l 1
 427 0 l 1
 500 348 l 2
 503 359 504 368 504 377 c 0
EndSplineSet
Validated: 3073
Substitution2: "'smcp' lowercase to small caps in Cyrillic-1" sc.cyr_tshe
EndChar

StartChar: dzhecyr
Encoding: 1119 1119 497
Width: 557
Flags: MW
AnchorPoint: "cyr-above" 387 545 basechar 0
LayerCount: 2
Fore
SplineSet
254 0 m 1
 70 0 l 1
 181 524 l 1
 265 524 l 1
 170 76 l 1
 419 76 l 1
 514 524 l 1
 598 524 l 1
 487 0 l 1
 323 0 l 1
 298 -120 l 1
 228 -120 l 1
 254 0 l 1
EndSplineSet
Validated: 3073
EndChar

StartChar: Semisoftcyr
Encoding: 1164 1164 498
Width: 685
Flags: HMW
LayerCount: 2
Fore
SplineSet
597 239 m 0
 597 279 581 333 489 333 c 2
 262 333 l 1
 209 82 l 1
 436 82 l 2
 534 82 597 155 597 239 c 0
688 237 m 0
 688 183 636 0 427 0 c 2
 98 0 l 1
 213 541 l 1
 125 541 l 1
 140 610 l 1
 228 610 l 1
 253 729 l 1
 346 729 l 1
 321 610 l 1
 415 610 l 1
 400 541 l 1
 306 541 l 1
 280 415 l 1
 460 415 l 2
 463 415 l 0
 625 415 688 349 688 237 c 0
EndSplineSet
Validated: 3073
Substitution2: "'c2sc' caps to small caps in Cyrillic-invariant" semisoftcry
EndChar

StartChar: semisoftcry
Encoding: 1165 1165 499
Width: 554
Flags: HMW
LayerCount: 2
Fore
SplineSet
469 184 m 0
 469 210 437 231 390 231 c 2
 238 231 l 1
 205 76 l 1
 357 76 l 2
 425 76 469 124 469 184 c 0
558 188 m 0
 558 91 483 0 368 0 c 2
 105 0 l 1
 185 382 l 1
 91 382 l 1
 106 449 l 1
 200 449 l 1
 216 525 l 1
 300 525 l 1
 284 449 l 1
 381 449 l 1
 368 382 l 1
 269 382 l 1
 254 307 l 1
 376 307 l 2
 505 307 558 269 558 188 c 0
EndSplineSet
Validated: 3073
EndChar

StartChar: Ertickcyr
Encoding: 1166 1166 500
Width: 656
Flags: HMW
LayerCount: 2
Fore
SplineSet
579 441 m 1
 606 469 623 512 623 552 c 0
 623 612 581 647 505 647 c 2
 311 647 l 1
 256 391 l 1
 450 391 l 2
 476 391 499 395 520 403 c 1
 461 462 l 1
 521 500 l 1
 579 441 l 1
722 576 m 0
 722 503 694 428 641 379 c 1
 715 305 l 1
 656 267 l 1
 585 338 l 1
 549 319 511 309 468 309 c 2
 239 309 l 1
 173 0 l 1
 80 0 l 1
 235 729 l 1
 536 729 l 2
 657 729 722 675 722 576 c 0
EndSplineSet
Validated: 3073
EndChar

StartChar: ertickcyr
Encoding: 1167 1167 501
Width: 606
Flags: HMW
LayerCount: 2
Fore
SplineSet
397 461 m 0
 241 461 200 253 200 190 c 0
 200 106 241 55 311 55 c 0
 351 55 389 71 420 98 c 1
 348 171 l 1
 407 209 l 1
 465 151 l 1
 483 180 513 245 513 322 c 0
 513 408 471 461 397 461 c 0
603 347 m 0
 603 291 587 179 523 93 c 1
 602 14 l 1
 542 -24 l 1
 477 42 l 1
 429 0 371 -23 309 -23 c 0
 241 -23 198 1 165 55 c 1
 107 -218 l 1
 23 -218 l 1
 181 524 l 1
 258 524 l 1
 241 445 l 1
 293 507 357 539 428 539 c 0
 540 539 603 467 603 347 c 0
EndSplineSet
Validated: 3073
EndChar

StartChar: Gheupturncyr
Encoding: 1168 1168 502
Width: 598
Flags: HMW
LayerCount: 2
Fore
SplineSet
173 0 m 1
 80 0 l 1
 235 729 l 1
 631 728 l 1
 652 825 l 1
 745 825 l 1
 707 647 l 1
 311 647 l 1
 173 0 l 1
EndSplineSet
Validated: 3073
Substitution2: "'c2sc' caps to small caps in Cyrillic-invariant" gheupturncyr
EndChar

StartChar: gheupturncyr
Encoding: 1169 1169 503
Width: 396
Flags: HMW
LayerCount: 2
Fore
SplineSet
182 524 m 1
 393 524 l 1
 415 629 l 1
 499 629 l 1
 460 448 l 1
 249 448 l 1
 154 0 l 1
 70 0 l 1
 182 524 l 1
EndSplineSet
Validated: 3073
EndChar

StartChar: Ghestrokecyr
Encoding: 1170 1170 504
Width: 611
Flags: HMW
LayerCount: 2
Fore
SplineSet
301 504 m 1
 393 504 l 1
 378 435 l 1
 287 435 l 1
 194 0 l 1
 101 0 l 1
 193 435 l 1
 103 435 l 1
 118 504 l 1
 208 504 l 1
 256 729 l 1
 745 729 l 1
 728 647 l 1
 332 647 l 1
 301 504 l 1
EndSplineSet
Validated: 3073
Substitution2: "'c2sc' caps to small caps in Cyrillic-invariant" ghestrokecyr
EndChar

StartChar: ghestrokecyr
Encoding: 1171 1171 505
Width: 409
Flags: HMW
LayerCount: 2
Fore
SplineSet
357 341 m 1
 343 274 l 1
 242 274 l 1
 184 0 l 1
 100 0 l 1
 158 274 l 1
 68 274 l 1
 82 341 l 1
 172 341 l 1
 211 524 l 1
 506 524 l 1
 490 448 l 1
 279 448 l 1
 256 341 l 1
 357 341 l 1
EndSplineSet
Validated: 3073
EndChar

StartChar: Ghemidhookcyr
Encoding: 1172 1172 506
Width: 592
Flags: HMW
LayerCount: 2
Fore
SplineSet
173 0 m 1
 80 0 l 1
 235 729 l 1
 724 729 l 1
 707 647 l 1
 310 647 l 1
 268 447 l 1
 428 447 l 2
 538 447 592 388 592 307 c 0
 592 294 591 279 587 264 c 2
 531 0 l 2
 514 -77 477 -140 367 -140 c 2
 284 -140 l 1
 307 -58 l 1
 349 -58 l 2
 414 -58 429 -28 438 10 c 2
 495 267 l 2
 498 278 499 288 499 298 c 0
 499 338 476 365 410 365 c 2
 251 365 l 1
 173 0 l 1
EndSplineSet
Validated: 3073
Substitution2: "'c2sc' caps to small caps in Cyrillic-invariant" ghemidhookcyr
EndChar

StartChar: ghemidhookcyr
Encoding: 1173 1173 507
Width: 448
Flags: HMW
LayerCount: 2
Fore
SplineSet
204 237 m 1
 154 0 l 1
 70 0 l 1
 181 524 l 1
 476 524 l 1
 460 448 l 1
 249 448 l 1
 220 309 l 1
 310 309 l 2
 394 309 445 262 445 183 c 0
 445 171 444 159 441 146 c 2
 410 0 l 2
 392 -85 360 -126 233 -126 c 1
 245 -71 l 1
 296 -71 316 -48 326 0 c 2
 350 113 l 2
 356 140 356 140 356 152 c 0
 356 203 322 237 271 237 c 2
 204 237 l 1
EndSplineSet
Validated: 3073
EndChar

StartChar: Zhedesccyr
Encoding: 1174 1174 508
Width: 921
Flags: HMW
LayerCount: 2
Fore
SplineSet
852 74 m 1
 916 74 l 1
 871 -135 l 1
 791 -135 l 1
 820 0 l 1
 790 0 l 1
 573 324 l 1
 504 0 l 1
 411 0 l 1
 480 324 l 1
 125 0 l 1
 15 0 l 1
 420 375 l 1
 208 729 l 1
 328 729 l 1
 501 421 l 1
 566 729 l 1
 659 729 l 1
 594 421 l 1
 897 729 l 1
 1017 729 l 1
 655 375 l 1
 852 74 l 1
EndSplineSet
Validated: 3073
Substitution2: "'c2sc' caps to small caps in Cyrillic-invariant" zhedesccyr
EndChar

StartChar: zhedesccyr
Encoding: 1175 1175 509
Width: 826
Flags: HMW
LayerCount: 2
Fore
SplineSet
755 64 m 1
 829 64 l 1
 790 -120 l 1
 720 -120 l 1
 746 0 l 1
 712 0 l 1
 500 216 l 1
 454 0 l 1
 371 0 l 1
 417 216 l 1
 113 0 l 1
 10 0 l 1
 370 264 l 1
 153 524 l 1
 260 524 l 1
 435 302 l 1
 482 524 l 1
 565 524 l 1
 518 302 l 1
 787 524 l 1
 894 524 l 1
 567 264 l 1
 755 64 l 1
EndSplineSet
Validated: 3073
EndChar

StartChar: Zedesccyr
Encoding: 1176 1176 510
Width: 657
Flags: HMW
LayerCount: 2
Fore
SplineSet
364 -116 m 0
 364 -63 303 -32 281 -21 c 1
 165 -9 84 51 84 162 c 0
 84 182 87 205 92 232 c 1
 180 232 l 1
 176 216 174 202 174 188 c 0
 174 101 242 59 349 59 c 0
 472 59 565 117 565 208 c 0
 565 261 514 321 428 321 c 2
 320 321 l 1
 337 403 l 1
 425 403 l 2
 517 403 615 485 615 565 c 0
 615 625 562 663 475 663 c 0
 359 663 283 610 262 515 c 1
 174 515 l 1
 205 658 321 741 489 741 c 0
 628 741 708 679 708 576 c 0
 708 476 648 407 565 374 c 1
 629 348 662 302 662 240 c 0
 662 75 539 -12 360 -22 c 1
 380 -34 l 2
 418 -59 439 -93 439 -130 c 0
 439 -177 390 -205 305 -205 c 0
 277 -205 258 -202 237 -195 c 1
 228 -150 l 1
 246 -156 271 -160 298 -160 c 0
 337 -160 364 -142 364 -116 c 0
EndSplineSet
Validated: 3073
Substitution2: "'c2sc' caps to small caps in Cyrillic-invariant" zedesccyr
EndChar

StartChar: zedesccyr
Encoding: 1177 1177 511
Width: 493
Flags: HMW
LayerCount: 2
Fore
SplineSet
153 132 m 0
 153 66 214 54 260 54 c 0
 333 54 397 93 397 148 c 0
 397 183 365 221 312 221 c 2
 238 221 l 1
 254 297 l 1
 316 297 l 2
 388 297 433 344 433 390 c 0
 433 429 397 462 337 462 c 0
 270 462 228 433 214 378 c 1
 126 378 l 1
 149 481 229 539 350 539 c 0
 457 539 521 491 521 413 c 0
 521 347 484 295 428 267 c 1
 471 246 492 210 492 169 c 0
 492 59 403 -11 273 -22 c 1
 294 -34 l 2
 332 -59 353 -93 353 -130 c 0
 353 -177 304 -205 219 -205 c 0
 191 -205 172 -202 151 -195 c 1
 142 -150 l 1
 160 -156 185 -160 212 -160 c 0
 251 -160 278 -142 278 -116 c 0
 278 -63 217 -32 195 -21 c 1
 105 -11 61 33 61 109 c 0
 61 123 63 139 66 156 c 1
 154 156 l 1
 153 147 153 139 153 132 c 0
EndSplineSet
Validated: 3073
EndChar

StartChar: Kadesccyr
Encoding: 1178 1178 512
Width: 680
Flags: HMW
LayerCount: 2
Fore
SplineSet
593 74 m 1
 675 74 l 1
 630 -135 l 1
 550 -135 l 1
 579 0 l 1
 549 0 l 1
 242 324 l 1
 173 0 l 1
 80 0 l 1
 235 729 l 1
 328 729 l 1
 261 414 l 1
 691 729 l 1
 811 729 l 1
 324 375 l 1
 593 74 l 1
EndSplineSet
Validated: 3073
Substitution2: "'c2sc' caps to small caps in Cyrillic-invariant" kadesccyr
EndChar

StartChar: kadesccyr
Encoding: 1179 1179 513
Width: 529
Flags: MW
LayerCount: 2
Fore
SplineSet
454 64 m 1
 527 64 l 1
 488 -120 l 1
 418 -120 l 1
 444 0 l 1
 411 0 l 1
 199 216 l 1
 153 0 l 1
 70 0 l 1
 181 524 l 1
 264 524 l 1
 217 302 l 1
 486 524 l 1
 593 524 l 1
 266 264 l 1
 454 64 l 1
EndSplineSet
Validated: 3073
EndChar

StartChar: Kavertstrokecyr
Encoding: 1180 1180 514
Width: 678
Flags: HMW
LayerCount: 2
Fore
SplineSet
298 265 m 1
 242 324 l 1
 173 0 l 1
 80 0 l 1
 235 729 l 1
 328 729 l 1
 261 414 l 1
 342 474 l 1
 377 637 l 1
 461 637 l 1
 442 546 l 1
 691 729 l 1
 811 729 l 1
 420 445 l 1
 390 303 l 1
 668 0 l 1
 549 0 l 1
 367 192 l 1
 350 113 l 1
 266 113 l 1
 298 265 l 1
EndSplineSet
Validated: 3073
Substitution2: "'c2sc' caps to small caps in Cyrillic-invariant" kavertstrokecyr
EndChar

StartChar: kavertstrokecyr
Encoding: 1181 1181 515
Width: 524
Flags: MW
LayerCount: 2
Fore
SplineSet
228 186 m 1
 199 216 l 1
 153 0 l 1
 70 0 l 1
 181 524 l 1
 264 524 l 1
 217 302 l 1
 260 338 l 1
 287 464 l 1
 351 464 l 1
 338 402 l 1
 486 524 l 1
 593 524 l 1
 317 305 l 1
 301 227 l 1
 514 0 l 1
 411 0 l 1
 281 132 l 1
 270 80 l 1
 206 80 l 1
 228 186 l 1
EndSplineSet
Validated: 3073
EndChar

StartChar: Kastrokecyr
Encoding: 1182 1182 516
Width: 695
Flags: HMW
LayerCount: 2
Fore
SplineSet
331 638 m 1
 421 638 l 1
 406 569 l 1
 316 569 l 1
 283 414 l 1
 713 729 l 1
 833 729 l 1
 346 375 l 1
 681 0 l 1
 571 0 l 1
 264 324 l 1
 195 0 l 1
 102 0 l 1
 223 569 l 1
 131 569 l 1
 146 638 l 1
 238 638 l 1
 257 729 l 1
 350 729 l 1
 331 638 l 1
EndSplineSet
Validated: 3073
Substitution2: "'c2sc' caps to small caps in Cyrillic-invariant" kastrokecyr
EndChar

StartChar: kastrokecyr
Encoding: 1183 1183 517
Width: 528
Flags: HMW
LayerCount: 2
Fore
SplineSet
172 464 m 1
 185 524 l 1
 268 524 l 1
 255 464 l 1
 315 464 l 1
 299 397 l 1
 241 397 l 1
 221 302 l 1
 490 524 l 1
 597 524 l 1
 270 264 l 1
 518 0 l 1
 415 0 l 1
 203 216 l 1
 157 0 l 1
 74 0 l 1
 158 397 l 1
 94 397 l 1
 110 464 l 1
 172 464 l 1
EndSplineSet
Validated: 3073
EndChar

StartChar: Kabashkircyr
Encoding: 1184 1184 518
Width: 846
Flags: HMW
LayerCount: 2
Fore
SplineSet
490 729 m 1
 424 414 l 1
 854 729 l 1
 974 729 l 1
 487 375 l 1
 831 0 l 1
 712 0 l 1
 405 324 l 1
 336 0 l 1
 242 0 l 1
 379 647 l 1
 149 647 l 1
 166 729 l 1
 490 729 l 1
EndSplineSet
Validated: 3073
Substitution2: "'c2sc' caps to small caps in Cyrillic-invariant" kabashkircyr
EndChar

StartChar: kabashkircyr
Encoding: 1185 1185 519
Width: 650
Flags: HMW
LayerCount: 2
Fore
SplineSet
391 525 m 1
 343 302 l 1
 612 524 l 1
 719 524 l 1
 392 264 l 1
 640 0 l 1
 537 0 l 1
 325 216 l 1
 279 0 l 1
 196 0 l 1
 291 448 l 1
 108 448 l 1
 124 524 l 1
 391 525 l 1
EndSplineSet
Validated: 3073
EndChar

StartChar: Endesccyr
Encoding: 1186 1186 520
Width: 741
Flags: HMW
LayerCount: 2
Fore
SplineSet
641 0 m 1
 547 0 l 1
 618 332 l 1
 245 332 l 1
 174 0 l 1
 80 0 l 1
 235 729 l 1
 328 729 l 1
 261 414 l 1
 635 414 l 1
 702 729 l 1
 796 729 l 1
 656 74 l 1
 737 74 l 1
 692 -135 l 1
 612 -135 l 1
 641 0 l 1
EndSplineSet
Validated: 3073
Substitution2: "'c2sc' caps to small caps in Cyrillic-invariant" entailcyr
EndChar

StartChar: endesccyr
Encoding: 1187 1187 521
Width: 578
Flags: MW
LayerCount: 2
Fore
SplineSet
488 0 m 1
 404 0 l 1
 453 233 l 1
 203 233 l 1
 154 0 l 1
 70 0 l 1
 181 524 l 1
 265 524 l 1
 219 309 l 1
 469 309 l 1
 515 524 l 1
 599 524 l 1
 501 64 l 1
 571 64 l 1
 532 -120 l 1
 462 -120 l 1
 488 0 l 1
EndSplineSet
Validated: 3073
EndChar

StartChar: Enghecyr
Encoding: 1188 1188 522
Width: 992
Flags: HMW
LayerCount: 2
Fore
SplineSet
639 0 m 1
 547 0 l 1
 618 332 l 1
 245 332 l 1
 174 0 l 1
 80 0 l 1
 235 729 l 1
 329 729 l 1
 262 414 l 1
 635 414 l 1
 701 729 l 1
 1130 729 l 1
 1113 647 l 1
 777 647 l 1
 639 0 l 1
EndSplineSet
Validated: 3073
Substitution2: "'c2sc' caps to small caps in Cyrillic-invariant" enghecyr
EndChar

StartChar: enghecyr
Encoding: 1189 1189 523
Width: 700
Flags: MW
LayerCount: 2
Fore
SplineSet
487 0 m 1
 404 0 l 1
 453 233 l 1
 203 233 l 1
 154 0 l 1
 70 0 l 1
 181 524 l 1
 265 524 l 1
 219 309 l 1
 469 309 l 1
 514 524 l 1
 799 524 l 1
 783 448 l 1
 582 448 l 1
 487 0 l 1
EndSplineSet
Validated: 3073
EndChar

StartChar: Pemidhookcyr
Encoding: 1190 1190 524
Width: 1047
Flags: HMW
LayerCount: 2
Fore
SplineSet
796 729 m 1
 738 447 l 1
 898 447 l 2
 1008 447 1062 388 1062 307 c 0
 1062 294 1061 279 1057 264 c 2
 1001 0 l 2
 984 -77 947 -140 837 -140 c 2
 754 -140 l 1
 777 -58 l 1
 819 -58 l 2
 884 -58 899 -28 908 10 c 2
 965 267 l 2
 968 278 969 288 969 298 c 0
 969 338 946 365 880 365 c 2
 721 365 l 1
 643 0 l 1
 547 0 l 1
 685 647 l 1
 312 647 l 1
 174 0 l 1
 80 0 l 1
 235 729 l 1
 796 729 l 1
EndSplineSet
Validated: 3073
Substitution2: "'c2sc' caps to small caps in Cyrillic-invariant" pemidhookcyr
EndChar

StartChar: pemidhookcyr
Encoding: 1191 1191 525
Width: 778
Flags: MW
LayerCount: 2
Fore
SplineSet
552 309 m 1
 642 309 l 2
 726 309 777 262 777 183 c 0
 777 171 776 159 773 146 c 2
 742 0 l 2
 724 -85 692 -126 565 -126 c 1
 577 -71 l 1
 628 -71 648 -48 658 0 c 2
 682 113 l 2
 688 140 688 140 688 152 c 0
 688 203 654 237 603 237 c 2
 536 237 l 1
 486 0 l 1
 403 0 l 1
 498 448 l 1
 249 448 l 1
 154 0 l 1
 70 0 l 1
 181 524 l 1
 598 524 l 1
 552 309 l 1
EndSplineSet
Validated: 3073
EndChar

StartChar: Esdesccyr
Encoding: 1194 1194 526
Width: 709
Flags: HMW
LayerCount: 2
Fore
SplineSet
723 266 m 1
 670 141 606 -3 389 -22 c 1
 410 -34 l 2
 448 -59 469 -93 469 -130 c 0
 469 -177 420 -205 335 -205 c 0
 307 -205 288 -202 267 -195 c 1
 258 -150 l 1
 276 -156 301 -160 328 -160 c 0
 367 -160 394 -142 394 -116 c 0
 394 -63 333 -32 311 -21 c 1
 120 2 100 183 100 242 c 0
 100 367 149 505 228 600 c 0
 306 694 403 741 520 741 c 0
 615 741 748 703 758 503 c 1
 662 503 l 1
 654 611 604 660 503 660 c 0
 257 660 196 354 196 260 c 0
 196 139 265 58 369 58 c 0
 523 58 581 165 625 266 c 1
 723 266 l 1
EndSplineSet
Validated: 3073
Substitution2: "'c2sc' caps to small caps in Cyrillic-invariant" esdesccyr
EndChar

StartChar: esdesccyr
Encoding: 1195 1195 527
Width: 509
Flags: HMW
LayerCount: 2
Fore
SplineSet
293 -21 m 1
 315 -32 374 -67 374 -130 c 0
 374 -177 325 -205 240 -205 c 0
 212 -205 193 -202 172 -195 c 1
 163 -150 l 1
 181 -156 206 -160 233 -160 c 0
 272 -160 299 -142 299 -116 c 0
 299 -23 172 -30 117 39 c 0
 89 74 73 123 73 170 c 0
 73 378 194 539 378 539 c 0
 484 539 551 470 551 392 c 0
 551 389 550 378 549 363 c 2
 548 348 l 1
 464 348 l 1
 465 357 465 364 465 370 c 0
 465 427 426 462 363 462 c 0
 193 462 161 238 161 181 c 0
 161 103 205 54 274 54 c 0
 346 54 401 98 431 180 c 1
 515 180 l 1
 488 87 437 -6 293 -21 c 1
EndSplineSet
Validated: 3073
EndChar

StartChar: Tedesccyr
Encoding: 1196 1196 528
Width: 611
Flags: MW
LayerCount: 2
Fore
SplineSet
353 0 m 1
 260 0 l 1
 398 647 l 1
 158 647 l 1
 175 729 l 1
 747 729 l 1
 730 647 l 1
 491 647 l 1
 369 74 l 1
 449 74 l 1
 404 -135 l 1
 324 -135 l 1
 353 0 l 1
EndSplineSet
Validated: 1
Substitution2: "'c2sc' caps to small caps in Cyrillic-invariant" tedesccyr
EndChar

StartChar: tedesccyr
Encoding: 1197 1197 529
Width: 393
Flags: HMW
LayerCount: 2
Fore
SplineSet
252 64 m 1
 322 64 l 1
 283 -120 l 1
 213 -120 l 1
 239 0 l 1
 155 0 l 1
 250 448 l 1
 106 448 l 1
 122 524 l 1
 494 524 l 1
 478 448 l 1
 334 448 l 1
 252 64 l 1
EndSplineSet
Validated: 3073
EndChar

StartChar: Ustraightcyr
Encoding: 1198 1198 530
Width: 664
Flags: HMW
LayerCount: 2
Fore
SplineSet
445 286 m 1
 384 0 l 1
 290 0 l 1
 351 286 l 1
 165 729 l 1
 277 729 l 1
 413 372 l 1
 702 729 l 1
 813 729 l 1
 445 286 l 1
EndSplineSet
Validated: 3073
Substitution2: "'c2sc' caps to small caps in Cyrillic-1" sc.y
EndChar

StartChar: ustraightcyr
Encoding: 1199 1199 531
Width: 580
Flags: HMW
LayerCount: 2
Fore
SplineSet
389 86 m 1
 348 -200 l 1
 255 -200 l 1
 296 86 l 1
 117 524 l 1
 232 524 l 1
 357 174 l 1
 574 524 l 1
 685 524 l 1
 389 86 l 1
EndSplineSet
Validated: 3073
Substitution2: "'smcp' lowercase to small caps in Cyrillic-1" sc.y
EndChar

StartChar: Ustraightstrokecyr
Encoding: 1200 1200 532
Width: 668
Flags: HMW
LayerCount: 2
Fore
SplineSet
340 190 m 1
 120 190 l 1
 134 260 l 1
 354 260 l 1
 359 286 l 1
 165 729 l 1
 280 729 l 1
 424 374 l 1
 702 729 l 1
 813 729 l 1
 452 286 l 1
 447 260 l 1
 667 260 l 1
 653 190 l 1
 433 190 l 1
 395 0 l 1
 302 0 l 1
 340 190 l 1
EndSplineSet
Validated: 3073
Substitution2: "'c2sc' caps to small caps in Cyrillic-1" sc.uk_precherknuty
EndChar

StartChar: ustraightstrokecyr
Encoding: 1201 1201 533
Width: 617
Flags: HMW
LayerCount: 2
Fore
SplineSet
392 86 m 1
 612 86 l 1
 601 19 l 1
 382 19 l 1
 351 -200 l 1
 258 -200 l 1
 289 19 l 1
 68 19 l 1
 79 86 l 1
 299 86 l 1
 121 524 l 1
 236 524 l 1
 360 174 l 1
 578 524 l 1
 689 524 l 1
 392 86 l 1
EndSplineSet
Validated: 3073
Substitution2: "'smcp' lowercase to small caps in Cyrillic-1" sc.uk_precherknuty
EndChar

StartChar: Hadesccyr
Encoding: 1202 1202 534
Width: 664
Flags: HMW
LayerCount: 2
Fore
SplineSet
607 74 m 1
 658 74 l 1
 613 -135 l 1
 533 -135 l 1
 562 0 l 1
 527 0 l 1
 393 304 l 1
 128 0 l 1
 15 0 l 1
 353 374 l 1
 186 729 l 1
 299 729 l 1
 425 443 l 1
 674 729 l 1
 785 729 l 1
 464 374 l 1
 607 74 l 1
EndSplineSet
Validated: 3073
Substitution2: "'c2sc' caps to small caps in Cyrillic-invariant" hadesccyr
EndChar

StartChar: hadesccyr
Encoding: 1203 1203 535
Width: 489
Flags: HMW
LayerCount: 2
Fore
SplineSet
437 64 m 1
 479 64 l 1
 440 -120 l 1
 370 -120 l 1
 396 0 l 1
 369 0 l 1
 280 201 l 1
 105 0 l 1
 10 0 l 1
 251 267 l 1
 131 524 l 1
 226 524 l 1
 312 334 l 1
 478 524 l 1
 572 524 l 1
 342 271 l 1
 437 64 l 1
EndSplineSet
Validated: 3073
EndChar

StartChar: Tetsecyr
Encoding: 1204 1204 536
Width: 905
Flags: HMW
LayerCount: 2
Fore
SplineSet
464 647 m 1
 342 82 l 1
 715 82 l 1
 853 729 l 1
 947 729 l 1
 808 74 l 1
 900 74 l 1
 855 -135 l 1
 775 -135 l 1
 804 0 l 1
 232 0 l 1
 370 647 l 1
 149 647 l 1
 166 729 l 1
 699 729 l 1
 682 647 l 1
 464 647 l 1
EndSplineSet
Validated: 3073
Substitution2: "'c2sc' caps to small caps in Cyrillic-invariant" tetsecyr
EndChar

StartChar: tetsecyr
Encoding: 1205 1205 537
Width: 662
Flags: HMW
LayerCount: 2
Fore
SplineSet
323 448 m 1
 244 76 l 1
 493 76 l 1
 588 524 l 1
 672 524 l 1
 575 64 l 1
 655 64 l 1
 616 -120 l 1
 546 -120 l 1
 572 0 l 1
 144 0 l 1
 239 448 l 1
 105 448 l 1
 121 524 l 1
 473 524 l 1
 457 448 l 1
 323 448 l 1
EndSplineSet
Validated: 3073
EndChar

StartChar: Chedesccyr
Encoding: 1206 1206 538
Width: 631
Flags: HMW
LayerCount: 2
Fore
SplineSet
531 0 m 1
 426 0 l 1
 486 282 l 1
 306 282 l 2
 196 282 142 341 142 422 c 0
 142 435 143 450 147 465 c 2
 203 729 l 1
 296 729 l 1
 239 462 l 2
 236 451 235 441 235 431 c 0
 235 391 258 364 324 364 c 2
 503 364 l 1
 581 729 l 1
 674 729 l 1
 535 74 l 1
 627 74 l 1
 582 -135 l 1
 502 -135 l 1
 531 0 l 1
EndSplineSet
Validated: 3073
Substitution2: "'c2sc' caps to small caps in Cyrillic-invariant" chedesccyr
EndChar

StartChar: chedesccyr
Encoding: 1207 1207 539
Width: 498
Flags: HMW
LayerCount: 2
Fore
SplineSet
413 0 m 1
 318 0 l 1
 362 208 l 1
 245 208 l 2
 146 208 111 253 111 318 c 0
 111 334 114 351 117 369 c 2
 150 524 l 1
 234 524 l 1
 199 359 l 2
 197 350 196 342 196 333 c 0
 196 307 208 284 251 284 c 2
 378 284 l 1
 429 524 l 1
 513 524 l 1
 416 64 l 1
 496 64 l 1
 457 -120 l 1
 387 -120 l 1
 413 0 l 1
EndSplineSet
Validated: 3073
EndChar

StartChar: Chevertstrokecyr
Encoding: 1208 1208 540
Width: 597
Flags: HMW
LayerCount: 2
Fore
SplineSet
332 364 m 1
 360 494 l 1
 444 494 l 1
 416 364 l 1
 501 364 l 1
 579 729 l 1
 672 729 l 1
 517 0 l 1
 424 0 l 1
 484 282 l 1
 399 282 l 1
 371 150 l 1
 287 150 l 1
 315 282 l 1
 304 282 l 2
 194 282 140 341 140 422 c 0
 140 435 141 450 145 465 c 2
 201 729 l 1
 294 729 l 1
 237 462 l 2
 234 451 233 441 233 431 c 0
 233 391 256 364 322 364 c 2
 332 364 l 1
EndSplineSet
Validated: 3073
Substitution2: "'c2sc' caps to small caps in Cyrillic-invariant" chevertstrokecyr
EndChar

StartChar: chevertstrokecyr
Encoding: 1209 1209 541
Width: 472
Flags: HMW
LayerCount: 2
Fore
SplineSet
232 208 m 1
 143 212 111 256 111 318 c 0
 111 334 114 351 117 369 c 2
 150 524 l 1
 234 524 l 1
 199 359 l 2
 197 350 196 342 196 333 c 0
 196 308 207 285 248 284 c 1
 270 387 l 1
 340 387 l 1
 318 284 l 1
 378 284 l 1
 429 524 l 1
 513 524 l 1
 402 0 l 1
 318 0 l 1
 362 208 l 1
 302 208 l 1
 282 113 l 1
 212 113 l 1
 232 208 l 1
EndSplineSet
Validated: 3073
EndChar

StartChar: Shhacyr
Encoding: 1210 1210 542
Width: 597
Flags: HMW
LayerCount: 2
Fore
SplineSet
268 447 m 1
 448 447 l 2
 558 447 612 388 612 307 c 0
 612 294 611 279 607 264 c 2
 551 0 l 1
 458 0 l 1
 515 267 l 2
 518 278 519 288 519 298 c 0
 519 338 496 365 430 365 c 2
 251 365 l 1
 173 0 l 1
 80 0 l 1
 235 729 l 1
 328 729 l 1
 268 447 l 1
EndSplineSet
Validated: 3073
Substitution2: "'c2sc' caps to small caps in Cyrillic-invariant" shhacyr
EndChar

StartChar: shhacyr
Encoding: 1211 1211 543
Width: 471
Flags: HMW
LayerCount: 2
Fore
SplineSet
433 0 m 1
 349 0 l 1
 384 165 l 2
 386 174 387 182 387 191 c 0
 387 217 375 240 332 240 c 2
 205 240 l 1
 154 0 l 1
 70 0 l 1
 181 524 l 1
 265 524 l 1
 221 316 l 1
 338 316 l 2
 437 316 472 271 472 206 c 0
 472 190 469 173 466 155 c 2
 433 0 l 1
EndSplineSet
Validated: 3073
EndChar

StartChar: Cheabkhazcyr
Encoding: 1212 1212 544
Width: 927
Flags: HMW
LayerCount: 2
Fore
SplineSet
873.052 466 m 1
 874.08 480.744 874.906 495.777 874.906 510.618 c 0
 874.906 587.375 852.799 659 722.075 659 c 0
 607.075 659 510.559 586 456.052 466 c 1
 873.052 466 l 1
580.111 -23 m 0
 373.742 -23 316.961 117.243 316.961 251.1 c 0
 316.961 304.26 325.285 344.783 333.622 384 c 1
 213.245 386.502 166.158 455.753 166.158 536.674 c 0
 166.158 635.084 232.401 757 347.905 757 c 0
 412.662 757 449.482 725.523 449.482 666.758 c 0
 449.482 659.278 448.885 651.356 447.674 643 c 1
 367.674 643 l 1
 367.674 654.091 359.247 680 325.538 680 c 0
 279.161 680 248.242 603.721 248.242 556.089 c 0
 248.242 499.198 287.8 466 341.052 466 c 2
 361.052 466 l 1
 391.993 541 439.021 607 497.438 656 c 0
 565.766 714 643.504 741 738.504 741 c 0
 843.295 741 978.243 708.148 978.243 510.269 c 0
 978.243 473.996 973.708 432.178 963.622 384 c 1
 427.622 384 l 1
 421.689 366.426 410.071 309.046 410.071 259.076 c 0
 410.071 133.107 473.354 59 586.541 59 c 0
 705.541 59 774.019 113 816.699 215 c 1
 911.699 215 l 1
 848.69 55 740.111 -23 580.111 -23 c 0
EndSplineSet
Validated: 3073
Substitution2: "'c2sc' caps to small caps in Cyrillic-invariant" cheabkhazcyr
EndChar

StartChar: cheabkhazcyr
Encoding: 1213 1213 545
Width: 716
Flags: HMW
LayerCount: 2
Fore
SplineSet
353.192 302 m 1
 647.192 302 l 1
 648.617 304 649.042 306 649.468 308 c 0
 652.06 320.194 653.308 332.026 653.308 343.353 c 0
 653.308 411.916 607.574 462 537.201 462 c 0
 453.201 462 380.811 399 353.192 302 c 1
336.738 234 m 1
 332.84 213.698 331.065 195.561 331.065 179.381 c 0
 331.065 79.2016 399.1 54 452.479 54 c 0
 519.479 54 574.13 90 611.797 159 c 1
 695.797 159 l 1
 650.565 45 553.111 -23 433.111 -23 c 0
 311.856 -23 244.305 48.7355 244.305 170.583 c 0
 244.305 190.424 246.096 211.595 249.738 234 c 1
 154.916 235.67 119.184 285.783 119.184 345.641 c 0
 119.184 412.425 161.674 504 242.129 504 c 0
 285.233 504 308.165 477.389 308.165 435.029 c 0
 308.165 430.217 307.869 425.202 307.273 420 c 1
 249.273 420 l 1
 249.273 433.5 242.512 440 227.524 440 c 0
 195.84 440 187.919 375.939 187.919 353.581 c 0
 187.919 320.855 203.652 302 232.192 302 c 2
 266.192 302 l 1
 313.013 447 422.568 539 554.568 539 c 0
 660.565 539 740.277 477.061 740.277 362.894 c 0
 740.277 330.357 734.647 290.026 722.738 234 c 1
 336.738 234 l 1
EndSplineSet
Validated: 3073
EndChar

StartChar: Chedescabkhazcyr
Encoding: 1214 1214 546
Width: 927
Flags: MW
LayerCount: 2
Fore
SplineSet
856.168 466 m 1
 856.473 475.109 856.697 484.329 856.697 493.545 c 0
 856.697 576.399 838.583 659 698.199 659 c 0
 583.199 659 489.327 586 439.168 466 c 1
 856.168 466 l 1
300.902 680 m 0
 257.169 680 228.013 610.209 228.013 560.645 c 0
 228.013 500.974 269.509 466 324.168 466 c 2
 344.168 466 l 1
 364.866 521 456.658 741 711.658 741 c 0
 819.314 741 960.05 706.327 960.05 493.669 c 0
 960.05 461.382 956.806 424.993 949.71 384 c 1
 413.71 384 l 1
 404.175 352.363 400.432 295.416 400.432 273.27 c 0
 400.432 138.692 467.028 59 584.403 59 c 0
 703.403 59 769.925 113 808.91 215 c 1
 903.91 215 l 1
 850.285 64 752.531 -14 606.121 -22 c 1
 575.264 -197 l 1
 503.264 -197 l 1
 534.474 -20 l 1
 357.084 0.736547 307.533 140.424 307.533 268.679 c 0
 307.533 301.233 310.726 333.051 315.83 362 c 2
 319.71 384 l 1
 195.425 386.581 146.575 460.208 146.575 544.398 c 0
 146.575 642.803 208.736 757 320.479 757 c 0
 387.153 757 425.42 723.633 425.42 661.47 c 0
 425.42 655.571 425.076 649.413 424.378 643 c 1
 344.378 643 l 1
 344.378 654.667 334.902 680 300.902 680 c 0
EndSplineSet
Validated: 3073
Substitution2: "'c2sc' caps to small caps in Cyrillic-invariant" chedescabkhazcyr
EndChar

StartChar: chedescabkhazcyr
Encoding: 1215 1215 547
Width: 699
Flags: MW
LayerCount: 2
Fore
SplineSet
100.588 351.476 m 0
 100.588 418.782 140.668 504 217.869 504 c 0
 262.449 504 286.483 475.535 286.483 430.621 c 0
 286.483 427.176 286.342 423.633 286.058 420 c 1
 228.058 420 l 1
 228.058 434 220.584 440 205.584 440 c 0
 172.479 440 169.04 372.827 169.04 357.451 c 0
 169.04 322.345 185.604 302 215.251 302 c 2
 249.251 302 l 1
 290.818 447 397.04 539 529.04 539 c 0
 687.565 539 720.197 436.7 720.197 344.847 c 0
 720.197 301.695 712.995 260.849 708.261 234 c 1
 322.261 234 l 1
 319.633 217.131 318.417 201.758 318.417 187.759 c 0
 318.417 80.5973 389.685 54 444.521 54 c 0
 511.521 54 564.869 90 600.036 159 c 1
 684.036 159 l 1
 647.051 57 567.59 -8 466.297 -21 c 1
 435.264 -197 l 1
 363.264 -197 l 1
 394.297 -21 l 1
 290.424 -7.83541 231.806 65.4087 231.806 182.508 c 0
 231.806 198.834 232.946 216.013 235.261 234 c 1
 137.392 235.722 100.588 289.357 100.588 351.476 c 0
336.251 302 m 1
 631.251 302 l 1
 633.542 314.995 634.615 327.141 634.615 338.457 c 0
 634.615 423.802 573.619 462 514.463 462 c 0
 430.463 462 360.354 399 336.251 302 c 1
EndSplineSet
Validated: 3073
EndChar

StartChar: Palochkacyr
Encoding: 1216 1216 548
Width: 254
Flags: HMW
LayerCount: 2
Fore
SplineSet
329 729 m 1
 174 0 l 1
 80 0 l 1
 235 729 l 1
 329 729 l 1
EndSplineSet
Validated: 3073
Substitution2: "'c2sc' caps to small caps in Cyrillic-invariant" sc.i
EndChar

StartChar: Kahookcyr
Encoding: 1219 1219 551
Width: 665
Flags: HMW
LayerCount: 2
Fore
SplineSet
460 294 m 2
 236 294 l 1
 173 0 l 1
 80 0 l 1
 235 729 l 1
 328 729 l 1
 261 414 l 1
 691 729 l 1
 811 729 l 1
 324 375 l 1
 480 375 l 2
 577 374 647 298 647 226 c 0
 647 219 647 211 645 204 c 2
 612 0 l 2
 596 -77 558 -140 448 -140 c 2
 365 -140 l 1
 388 -58 l 1
 430 -58 l 2
 495 -58 510 -28 519 10 c 2
 559 201 l 2
 560 204 560 208 560 212 c 0
 560 248 521 294 460 294 c 2
EndSplineSet
Validated: 3073
Substitution2: "'c2sc' caps to small caps in Cyrillic-invariant" kahookcyr
EndChar

StartChar: kahookcyr
Encoding: 1220 1220 552
Width: 510
Flags: MW
LayerCount: 2
Fore
SplineSet
483 143 m 0
 483 131 482 119 479 106 c 2
 460 0 l 2
 442 -85 410 -126 283 -126 c 1
 295 -71 l 1
 346 -71 366 -48 376 0 c 2
 396 93 l 2
 402 120 402 120 402 132 c 0
 402 184 358 196 324 196 c 2
 195 196 l 1
 153 0 l 1
 70 0 l 1
 181 524 l 1
 264 524 l 1
 217 302 l 1
 486 524 l 1
 593 524 l 1
 266 264 l 1
 356 264 l 2
 460 264 483 210 483 143 c 0
EndSplineSet
Validated: 1
EndChar

StartChar: Enhookcyr
Encoding: 1223 1223 553
Width: 721
Flags: HMW
LayerCount: 2
Fore
SplineSet
547 0 m 2
 618 332 l 1
 245 332 l 1
 174 0 l 1
 80 0 l 1
 235 729 l 1
 329 729 l 1
 262 414 l 1
 635 414 l 1
 702 729 l 1
 796 729 l 1
 641 0 l 2
 625 -77 587 -140 477 -140 c 2
 394 -140 l 1
 417 -58 l 1
 459 -58 l 2
 524 -58 542 -23 547 0 c 2
EndSplineSet
Validated: 3073
Substitution2: "'c2sc' caps to small caps in Cyrillic-invariant" enhookcyr
EndChar

StartChar: enhookcyr
Encoding: 1224 1224 554
Width: 558
Flags: MW
LayerCount: 2
Fore
SplineSet
404 0 m 2
 453 233 l 1
 203 233 l 1
 154 0 l 1
 70 0 l 1
 181 524 l 1
 265 524 l 1
 219 309 l 1
 469 309 l 1
 515 524 l 1
 599 524 l 1
 488 0 l 2
 470 -85 438 -126 311 -126 c 1
 323 -71 l 1
 374 -71 394 -48 404 0 c 2
EndSplineSet
Validated: 3073
EndChar

StartChar: Chekhakasscyr
Encoding: 1227 1227 555
Width: 599
Flags: HMW
LayerCount: 2
Fore
SplineSet
415 0 m 1
 385 -135 l 1
 305 -135 l 1
 350 74 l 1
 442 74 l 1
 486 282 l 1
 306 282 l 2
 196 282 142 341 142 422 c 0
 142 435 143 450 147 465 c 2
 203 729 l 1
 296 729 l 1
 239 462 l 2
 236 451 235 441 235 431 c 0
 235 391 258 364 324 364 c 2
 503 364 l 1
 581 729 l 1
 674 729 l 1
 519 0 l 1
 415 0 l 1
EndSplineSet
Validated: 3073
Substitution2: "'c2sc' caps to small caps in Cyrillic-invariant" chekhakasscyr
EndChar

StartChar: chekhakasscyr
Encoding: 1228 1228 556
Width: 472
Flags: HMW
LayerCount: 2
Fore
SplineSet
308 0 m 1
 282 -120 l 1
 212 -120 l 1
 251 64 l 1
 331 64 l 1
 362 208 l 1
 245 208 l 2
 146 208 111 253 111 318 c 0
 111 334 114 351 117 369 c 2
 150 524 l 1
 234 524 l 1
 199 359 l 2
 197 350 196 342 196 333 c 0
 196 307 208 284 251 284 c 2
 378 284 l 1
 429 524 l 1
 513 524 l 1
 402 0 l 1
 308 0 l 1
EndSplineSet
Validated: 3073
EndChar

StartChar: Schwacyr
Encoding: 1240 1240 565
Width: 722
Flags: HMW
AnchorPoint: "cyr-above" 523 728 basechar 0
LayerCount: 2
Fore
SplineSet
515 741 m 0
 721 741 770 582 770 476 c 0
 770 229.93 609 -23 350 -23 c 0
 167.714 -23 110 70.0532 110 297 c 1
 645 297 l 1
 664 349 674 405 674 458 c 0
 674 579 605 660 501 660 c 0
 347 660 289 553 245 452 c 1
 147 452 l 1
 217.423 619.773 304.594 741 515 741 c 0
608 215 m 1
 208 215 l 1
 216 107 266 58 367 58 c 0
 470.761 58 547.246 117.794 608 215 c 1
EndSplineSet
Validated: 3073
Substitution2: "'c2sc' caps to small caps in Cyrillic-invariant" schwacyr
EndChar

StartChar: schwacyr
Encoding: 1241 1241 566
Width: 511
Flags: HMW
AnchorPoint: "cyr-above" 363 545 basechar 0
LayerCount: 2
Fore
SplineSet
241 -23 m 0
 135 -23 68 46 68 124 c 0
 68 162 75 218 84 244 c 1
 446 244 l 1
 454 275 458 306 458 335 c 0
 458 413 414 462 345 462 c 0
 273 462 218 418 188 336 c 1
 104 336 l 1
 119 387 161 539 359 539 c 0
 509 539 546 417 546 346 c 0
 546 138 425 -23 241 -23 c 0
418 168 m 1
 155 168 l 1
 154 159 154 152 154 146 c 0
 154 89 193 54 256 54 c 0
 353 54 403 133 418 168 c 1
EndSplineSet
Validated: 3073
EndChar

StartChar: uni0531
Encoding: 1329 1329 595
Width: 722
Flags: HMW
AnchorPoint: "above" 437 729 basechar 0
LayerCount: 2
Fore
SplineSet
150 195 m 0
 150 97 231 75 298 73 c 0
 448 73 504 141 540 303 c 2
 627 716 l 1
 722 716 l 1
 596 120 l 1
 663 27 l 1
 590 -41 l 1
 520 60 l 1
 477 21 371 -12 288 -12 c 0
 141 -12 55 37 55 177 c 0
 55 203 57 229 71 302 c 2
 159 716 l 1
 253 716 l 1
 166 303 l 2
 157 261 150 226 150 195 c 0
EndSplineSet
Validated: 1
EndChar

StartChar: uni0532
Encoding: 1330 1330 596
Width: 705
Flags: HMW
LayerCount: 2
Fore
SplineSet
439 726 m 0
 623 726 667 623 667 557 c 0
 667 499 665.417 468.567 653 412 c 2
 635 330 l 1
 540 330 l 1
 557 411 l 2
 566 452 571 486 571 515 c 0
 571 604 525 639 413 641 c 0
 231.004 641 200.27 491.589 185.505 420 c 2
 149 243 l 1
 614 243 l 1
 594 150 l 1
 129 150 l 1
 96 -2 l 1
 2 -2 l 1
 90 412 l 2
 134 621 230 726 439 726 c 0
EndSplineSet
Validated: 3073
EndChar

StartChar: uni0533
Encoding: 1331 1331 597
Width: 774
Flags: HMW
LayerCount: 2
Fore
SplineSet
440 726 m 0
 623 726 669 633 669 573 c 0
 669 528 650 453 642 412 c 2
 605 230 l 1
 715 230 l 1
 694 134 l 1
 587 134 l 1
 559 -1 l 1
 464 -1 l 1
 492 134 l 1
 277 134 l 2
 161 134 95 202 83 322 c 2
 94 412 l 2
 108 479 146 726 440 726 c 0
182 387 m 0
 182 294 209 230 332 230 c 2
 512 230 l 1
 575 531 l 2
 576.333 537.371 576.97 543.436 576.97 549.203 c 0
 576.97 611.665 502.322 639.169 430 641 c 0
 216 641 199 503 182 387 c 0
EndSplineSet
Validated: 3073
EndChar

StartChar: uni0534
Encoding: 1332 1332 598
Width: 754
Flags: HMW
LayerCount: 2
Fore
SplineSet
439 729 m 0
 669 729 670 594 670 516 c 0
 670 498 664.051 459.284 657.04 422 c 2
 618 239 l 1
 700 239 l 1
 680 145 l 1
 598 145 l 1
 568 1 l 1
 473 1 l 1
 560 414 l 2
 566 442 576 492 576 522 c 0
 576 620 501 644 429 644 c 0
 279 644 223 576 187 414 c 2
 170 333 l 1
 75 333 l 1
 93 415 l 2
 118.795 532.508 168 729 439 729 c 0
EndSplineSet
Validated: 3073
EndChar

StartChar: uni0535
Encoding: 1333 1333 599
Width: 722
Flags: HMW
LayerCount: 2
Fore
SplineSet
148 210 m 0
 148 115 232 91 295 91 c 0
 445 91 502 158 537 320 c 2
 554 401 l 1
 649 401 l 1
 615 235 581 9 285 5 c 0
 110 5 52 81 52 194 c 0
 52 236 60 278 69 320 c 2
 156 733 l 1
 250 733 l 1
 219 581 l 1
 684 581 l 1
 664 488 l 1
 199 488 l 1
 163 320 l 2
 153 274 148 237 148 210 c 0
EndSplineSet
Validated: 3073
EndChar

StartChar: uni0536
Encoding: 1334 1334 600
Width: 751
Flags: HMW
LayerCount: 2
Fore
SplineSet
525 131 m 2
 620 131 636 74 636 36 c 0
 636 23 635 9 632 -6 c 1
 549 -5 l 1
 550 1 551 6 551 11 c 0
 551 38 531 51 493 52 c 2
 70 52 l 1
 58 -2 l 1
 -32 -2 l 1
 8 184 l 1
 98 184 l 1
 86 129 l 1
 213 129 l 2
 293.919 129 586 250.702 586 497 c 0
 586 642.447 449.984 660 406 660 c 0
 290.398 660 169.138 579.688 141 439 c 1
 329 440 l 1
 312 359 l 1
 30 359 l 1
 43.7339 468.871 110.2 735 431 735 c 0
 509.272 735 662 706.911 662 515 c 0
 662 385 549 200 402 131 c 1
 525 131 l 2
EndSplineSet
Validated: 3073
EndChar

StartChar: uni0537
Encoding: 1335 1335 601
Width: 485
Flags: MW
LayerCount: 2
Fore
SplineSet
274 79 m 1
 257 0 l 1
 7 0 l 1
 161 721 l 1
 257 721 l 1
 207 488 l 1
 457 488 l 1
 441 411 l 1
 191 411 l 1
 120 79 l 1
 274 79 l 1
EndSplineSet
Validated: 1
EndChar

StartChar: uni0538
Encoding: 1336 1336 602
Width: 722
Flags: HMW
LayerCount: 2
Fore
SplineSet
618 274 m 1
 523 274 l 1
 553 414 l 2
 561 454 566 488 566 516 c 0
 566 606 520 642 408 644 c 0
 268 644 214 570 179 414 c 2
 109 88 l 1
 580 87 l 1
 560 0 l 1
 -3 1 l 1
 85 415 l 2
 129 624 225 729 434 729 c 0
 618 729 663 626 663 553 c 1
 663 517.25 660.733 489.803 658 476 c 2
 658 476 637 372.333 618 274 c 1
EndSplineSet
Validated: 1
EndChar

StartChar: uni0539
Encoding: 1337 1337 603
Width: 782
Flags: HMW
LayerCount: 2
Fore
SplineSet
299 152 m 0
 299 93 326 76 420 76 c 0
 522 76 582 120 602 213 c 2
 635 368 l 1
 456 368 l 2
 398 368 299 354 299 152 c 0
570 728 m 2
 727 728 767 635 767 564 c 0
 767 551 766 537 763 523 c 2
 747 448 l 1
 801 448 l 1
 784 370 l 1
 730 370 l 1
 696 206 l 2
 653 -2 445.5 -2 384 -2 c 0
 309 -2 205 15 205 131 c 0
 205 279 258 448 472 448 c 2
 652 448 l 1
 666 514 l 2
 670 532 672 547 672 561 c 0
 672 637 600 651 547 651 c 2
 343 651 l 2
 261 651 209 605 190 514 c 2
 81 0 l 1
 -14 0 l 1
 97 523 l 2
 131 677 264 728 379 728 c 2
 570 728 l 2
EndSplineSet
Validated: 3073
EndChar

StartChar: uni053A
Encoding: 1338 1338 604
Width: 655
Flags: HMW
LayerCount: 2
Fore
SplineSet
227 -10 m 0
 141 -10 28 22 28 151 c 0
 28 165 30 180 33 195 c 2
 60 321 l 2
 80 420 170 523 341 526 c 2
 484 526 l 1
 524 718 l 1
 616 718 l 1
 576 526 l 1
 675 526 l 1
 659 451 l 1
 563 451 l 1
 508 195 l 2
 489 98 398 -7 227 -10 c 0
124 156 m 0
 124 105 154 65 243 65 c 0
 340 65 389 99 415 202 c 2
 468 451 l 1
 304 451 l 2
 274 451 186 446 152 309 c 2
 130 202 l 2
 126 185 124 169 124 156 c 0
EndSplineSet
Validated: 3073
EndChar

StartChar: uni053B
Encoding: 1339 1339 605
Width: 699
Flags: MW
LayerCount: 2
Fore
SplineSet
383 575 m 0
 477 575 607 552 617 402 c 2
 617 359 l 2
 613 304 598 240 587 186 c 1
 493 186 l 1
 493 186 522 300 522 368 c 0
 522 462 442 486 377 486 c 0
 186 486 163 386 140 286 c 2
 79 0 l 1
 -15 0 l 1
 141 732 l 1
 239 732 l 1
 193 518 l 1
 215 552 323 575 383 575 c 0
EndSplineSet
Validated: 1
EndChar

StartChar: uni053C
Encoding: 1340 1340 606
Width: 417
Flags: MW
LayerCount: 2
Fore
SplineSet
17 0 m 1
 169 716 l 1
 264 716 l 1
 132 94 l 1
 317 93 l 1
 297 0 l 1
 17 0 l 1
EndSplineSet
Validated: 1
EndChar

StartChar: uni053D
Encoding: 1341 1341 607
Width: 853
Flags: HMW
LayerCount: 2
Fore
SplineSet
474 -12 m 0
 300 -12 242 61 242 175 c 0
 242 217 248.875 259.026 258 302 c 2
 289 448 l 1
 181 448 l 1
 85 0 l 1
 -10 0 l 1
 144 723 l 1
 239 723 l 1
 198 528 l 1
 400 527 l 1
 353 303 l 2
 344 262 338 226 338 196 c 0
 338 91 426.991 73 484 73 c 0
 627 73 652.598 197.252 669 273 c 2
 724 527 l 1
 819 527 l 1
 772 302 l 2
 708.752 -0.783717 570 -12 474 -12 c 0
EndSplineSet
Validated: 3073
EndChar

StartChar: uni053E
Encoding: 1342 1342 608
Width: 791
Flags: HMW
LayerCount: 2
Fore
SplineSet
199 762 m 1
 199 726 217.208 707 284 707 c 2
 699 707 l 2
 813.42 707 821.892 654.289 825 646 c 1
 746 583 l 1
 746 613.377 738.717 627 695 627 c 2
 569 628 l 1
 636 604 707 512 707 398 c 1
 707 135.769 469.405 -4 294 -4 c 0
 132 -4 28 110 28 254 c 0
 28 492.382 268.818 627.403 294 631 c 1
 213 632 l 2
 158 632 103 647 103 696 c 0
 103 706 104.333 710.667 108 721 c 1
 199 762 l 1
306 70 m 0
 444 70 620 194 620 377 c 0
 620 496 543 582 427 582 c 0
 252 582 110 399 110 262 c 0
 110 224 137 73 306 70 c 0
EndSplineSet
Validated: 3073
EndChar

StartChar: uni053F
Encoding: 1343 1343 609
Width: 711
Flags: MW
LayerCount: 2
Fore
SplineSet
177 369 m 0
 177 265 264 249 323 247 c 0
 527 247 544 373 565 477 c 2
 582 553 l 1
 677 553 l 1
 558 1 l 1
 461 1 l 1
 507 216 l 1
 490 192 423 159 316 159 c 0
 117 159 81 263 81 343 c 0
 81 396 92 451 97 476 c 2
 152 733 l 1
 246 733 l 1
 191 477 l 2
 182 432 177 397 177 369 c 0
EndSplineSet
Validated: 1
EndChar

StartChar: uni0540
Encoding: 1344 1344 610
Width: 588
Flags: HMW
LayerCount: 2
Fore
SplineSet
627 607 m 1
 619.589 618.858 605 639 581 639 c 0
 547 639 507 605 495 593 c 2
 154 265 l 1
 501 89 l 1
 466 -74 l 1
 434 -74 l 1
 435 -52 l 2
 432 -6 393 34 344 59 c 2
 2 229 l 1
 468 669 l 1
 495 696 537 725 589 725 c 0
 605 725 638 721 649 710 c 1
 627 607 l 1
EndSplineSet
Validated: 3073
EndChar

StartChar: uni0541
Encoding: 1345 1345 611
Width: 663
Flags: HMW
LayerCount: 2
Fore
SplineSet
532 522 m 0
 532 627 426 653 398 653 c 0
 210.887 653 193.543 441.2 192 434 c 1
 98 436 l 1
 111.816 501 174 728 414 728 c 1
 502 728 627 690 627 537 c 0
 627 476.466 603.768 238.551 350 84 c 1
 372 61 393 21 411 -8 c 1
 331 -42 l 1
 308 -18 289 4 273 36 c 1
 231.528 18.6085 190 -11 125 -11 c 0
 19 -11 0 48 0 88 c 0
 0 118 23 233 151 237 c 0
 209.369 237 286.335 207.943 307 138 c 1
 474.29 230.009 532 439.079 532 522 c 0
140 161 m 0
 96 161 85 108 85 97 c 0
 85 67.3333 135 64 140 64 c 0
 176 64 213 89 225 99 c 1
 219 113 191 161 140 161 c 0
EndSplineSet
Validated: 3073
EndChar

StartChar: uni0542
Encoding: 1346 1346 612
Width: 665
Flags: MW
LayerCount: 2
Fore
SplineSet
393 728 m 0
 549 728 591 639 591 564 c 0
 591 551 590 537 587 523 c 2
 492 75 l 1
 589 75 l 1
 573 0 l 1
 381 0 l 1
 491 517 l 2
 494 535 496 551 496 564 c 0
 496 640 427 652 377 653 c 0
 289 653 227 618 207 517 c 2
 163 313 l 1
 68 313 l 1
 113 523 l 2
 134 624 230 728 393 728 c 0
EndSplineSet
Validated: 1
EndChar

StartChar: uni0543
Encoding: 1347 1347 613
Width: 665
Flags: HMW
LayerCount: 2
Fore
SplineSet
304 643 m 1
 321 638 357 627 385 606 c 1
 440 648 540 695 607 724 c 1
 659 657 l 1
 618 640 494 587 451 557 c 1
 456.796 557 566 414.965 566 176 c 0
 566 119 561 60 548 0 c 1
 -30 0 l 1
 45.3554 342.867 287.229 535.038 293 536 c 1
 279 547 250 562 229 572 c 1
 304 643 l 1
480 96 m 1
 477.014 199.018 464.123 374.985 370 496 c 1
 279 414 171 279 93 96 c 1
 480 96 l 1
EndSplineSet
Validated: 3073
EndChar

StartChar: uni0544
Encoding: 1348 1348 614
Width: 756
Flags: MW
LayerCount: 2
Fore
SplineSet
248 0 m 0
 65 0 19 88 19 201 c 0
 19 238 25 270 34 314 c 2
 122 728 l 1
 217 728 l 1
 129 314 l 2
 121 274 116 240 116 212 c 0
 116 122 161 85 274 85 c 0
 416 85 472 165 503 314 c 2
 591 729 l 1
 790 729 l 1
 772 636 l 1
 665 635 l 1
 597 314 l 2
 554 112 467 0 248 0 c 0
EndSplineSet
Validated: 1
EndChar

StartChar: uni0545
Encoding: 1349 1349 615
Width: 623
Flags: HMW
LayerCount: 2
Fore
SplineSet
321 429 m 2
 418 429 482 486 482 572 c 0
 482 647 376 653 362 653 c 0
 289 653 229 615 217 556 c 1
 121 556 l 1
 141 646 224 728 379 728 c 0
 546 728 575 640 575 581 c 0
 575 538 554 424 453 386 c 1
 485 382 528 336 528 266 c 0
 528 99 393 -12 219 -12 c 0
 182 -12 10 0 10 155 c 0
 10 168.038 11 181 14 194 c 1
 107 194 l 1
 105 184 104 174 104 165 c 0
 104 83 223 63 238 63 c 0
 261 63 434 77 434 255 c 0
 434 334 348 352 306 352 c 2
 74 352 l 1
 90 429 l 1
 321 429 l 2
EndSplineSet
Validated: 3073
EndChar

StartChar: uni0546
Encoding: 1350 1350 616
Width: 773
Flags: HMW
LayerCount: 2
Fore
SplineSet
369 0 m 0
 184 0 138 79 138 188 c 0
 138 229 143 270 152 314 c 2
 220 635 l 1
 67 636 l 1
 86 729 l 1
 335 729 l 1
 247 314 l 2
 238 272 232 237 232 208 c 0
 232 103 320 85 379 85 c 0
 533 85 587 158 620 314 c 2
 650 454 l 1
 745 454 l 1
 715 314 l 2
 679.923 129.845 586.763 0 369 0 c 0
EndSplineSet
Validated: 3073
EndChar

StartChar: uni0547
Encoding: 1351 1351 617
Width: 603
Flags: HMW
LayerCount: 2
Fore
SplineSet
221 -12 m 0
 90 -12 4 72 4 179 c 0
 4 191 6 203 8 215 c 2
 34 333 l 2
 75 531 229 606 288 625 c 1
 154 655 l 1
 172 739 l 1
 573 642 l 1
 556 559 l 1
 442 586 l 2
 436.763 587.24 420 588 408 588 c 0
 356.25 588 180.229 571.846 132 333 c 2
 112 242 l 2
 108 224 106 207 106 192 c 0
 106 114.6 161.5 63 237 63 c 0
 292 63 404.274 94.3505 430 221 c 2
 443 285 l 1
 539 285 l 1
 524 215 l 2
 513 158 424 -12 221 -12 c 0
EndSplineSet
Validated: 3073
EndChar

StartChar: uni0548
Encoding: 1352 1352 618
Width: 722
Flags: HMW
LayerCount: 2
Fore
SplineSet
560 1 m 1
 465 1 l 1
 552 414 l 2
 561 455 566 489 566 518 c 0
 566 607 520 642 408 644 c 0
 268 644 215 568 178 414 c 2
 91 1 l 1
 -3 1 l 1
 85 415 l 2
 129 624 225 729 434 729 c 0
 618 729 663 626 663 553 c 0
 663 497.8 659.691 470 648 415 c 2
 560 1 l 1
EndSplineSet
Validated: 1
EndChar

StartChar: uni0549
Encoding: 1353 1353 619
Width: 648
Flags: HMW
LayerCount: 2
Fore
SplineSet
399 728 m 0
 529 728 616 653 616 540 c 0
 616 496.578 598.643 165.572 282 108 c 1
 425 68 l 1
 409 -14 l 1
 29 91 l 1
 48 176 l 1
 171 139 l 1
 497.492 166.208 519 476.141 519 533 c 0
 519 629 435 653 383 653 c 0
 198.499 653 182.437 457.406 177 431 c 1
 82 430 l 1
 114 564 168 728 399 728 c 0
EndSplineSet
Validated: 3073
EndChar

StartChar: uni054A
Encoding: 1354 1354 620
Width: 722
Flags: HMW
LayerCount: 2
Fore
SplineSet
365 223 m 1
 270 223 l 1
 359 644 l 1
 224.624 644 188.584 463.391 169 372 c 1
 75 372 l 1
 85 415 l 2
 129 624 225 729 434 729 c 0
 618 729 663 626 663 553 c 0
 663 487 660.989 476.109 648 415 c 2
 560 1 l 1
 465 1 l 1
 552 414 l 2
 561 455 565 489 565 518 c 0
 565 616 514 629 457 645 c 1
 367.137 226 367.605 224.303 365 223 c 1
EndSplineSet
Validated: 1
EndChar

StartChar: uni054B
Encoding: 1355 1355 621
Width: 751
Flags: HMW
LayerCount: 2
Fore
SplineSet
500 281 m 1
 515 303 585 396 585 499 c 0
 585 645 444 660 406 660 c 0
 278 660 170 558 137 434 c 1
 266.492 434 490.789 421.796 500 281 c 1
526 131 m 2
 575 131 636 112 636 34 c 0
 636 21 635 7 632 -8 c 1
 550 -5 l 1
 551 1 552 6 552 11 c 0
 552 38 532 51 493 52 c 2
 70 52 l 1
 58 -2 l 1
 -32 -2 l 1
 8 184 l 1
 98 184 l 1
 86 129 l 1
 213 129 l 2
 271 129 390 147 414 250 c 1
 414 337 283 360 157 360 c 2
 157 360 93 360 41 360 c 1
 60 449 l 2
 77 523 141 735 431 735 c 0
 524 735 662 700 662 515 c 0
 662 385 547 200 403 131 c 1
 526 131 l 2
EndSplineSet
Validated: 3073
EndChar

StartChar: uni054C
Encoding: 1356 1356 622
Width: 750
Flags: HMW
LayerCount: 2
Fore
SplineSet
613 250 m 1
 688 250 l 1
 672 169 l 1
 592 169 l 1
 558 1 l 1
 465 1 l 1
 552 414 l 2
 561 455 566 489 566 518 c 0
 566 607 520 642 408 644 c 0
 268 644 215 568 178 414 c 2
 91 1 l 1
 -3 1 l 1
 85 415 l 2
 129 624 225 729 434 729 c 0
 662.957 729 663 583.567 663 531 c 0
 663 502.746 658.474 462.164 649.219 420 c 2
 649.219 420 630.5 333.5 613 250 c 1
EndSplineSet
Validated: 1
EndChar

StartChar: uni054D
Encoding: 1357 1357 623
Width: 722
Flags: HMW
LayerCount: 2
Fore
SplineSet
147 195 m 0
 147 97 228 75 295 73 c 0
 445 73 501 141 537 303 c 2
 624 716 l 1
 719 716 l 1
 631 302 l 2
 612.471 207.874 561.8 -12 285 -12 c 0
 138 -12 52 37 52 177 c 0
 52 203 54 229 68 302 c 2
 156 716 l 1
 250 716 l 1
 163 303 l 2
 154 261 147 226 147 195 c 0
EndSplineSet
Validated: 3073
EndChar

StartChar: uni054E
Encoding: 1358 1358 624
Width: 748
Flags: MW
LayerCount: 2
Fore
SplineSet
177 369 m 0
 177 265 264 248 324 247 c 0
 398 247 453 266 494 299 c 0
 532 330 550 405 566 477 c 2
 619 729 l 1
 714 729 l 1
 580 95 l 1
 670 95 l 1
 650 1 l 1
 462 1 l 1
 507 216 l 1
 492 192 423 159 316 159 c 0
 141 159 82 238 82 344 c 0
 82 420 106 513 119 577 c 1
 213 577 l 1
 192 477 l 2
 182 432 177 396 177 369 c 0
EndSplineSet
Validated: 1
EndChar

StartChar: uni054F
Encoding: 1359 1359 625
Width: 667
Flags: HMW
LayerCount: 2
Fore
SplineSet
271 -12 m 0
 51 -12 13 103 13 184 c 0
 13 199 15 214 18 230 c 1
 108 238 l 1
 107 229 106 220 106 212 c 0
 106 156.4 126 73 285 73 c 0
 408 73 491 140 491 217 c 0
 491 249 475 276 426 295 c 0
 328.344 340.255 106 333.882 106 496 c 0
 106 613.634 219.413 728 403 728 c 0
 588 728 631 609 631 563 c 0
 631 547 627.923 523.615 626 514 c 1
 534 507 l 1
 535 514 535 522 535 528 c 0
 535 592 504 643 389 645 c 0
 274 645 200 594 200 516 c 0
 200 476 223 452 348 423 c 0
 519 383 582 357 586 229 c 0
 562 61 405 -12 271 -12 c 0
EndSplineSet
Validated: 3073
EndChar

StartChar: uni0550
Encoding: 1360 1360 626
Width: 699
Flags: HMW
LayerCount: 2
Fore
SplineSet
622 294 m 1
 527 294 l 1
 552 414 l 2
 561 455 566 489 566 518 c 0
 566 607 520 642 408 644 c 0
 268 644 215 568 178 414 c 2
 91 1 l 1
 -3 1 l 1
 85 415 l 2
 129 624 225 729 434 729 c 0
 662.957 729 663 583.567 663 531 c 0
 663 501.394 658.659 463.793 650.636 426 c 2
 650.636 426 637.333 364 622 294 c 1
EndSplineSet
Validated: 1
EndChar

StartChar: uni0551
Encoding: 1361 1361 627
Width: 623
Flags: HMW
LayerCount: 2
Fore
SplineSet
250 63 m 0
 362 63 448 139 448 252 c 0
 448 347.97 362.565 354.585 314 359 c 0
 245 359 194 341 164 306 c 1
 58 307 l 1
 71 333 94 372 174 404 c 1
 157 410 114 438 114 498 c 0
 114 587 169 728 391 728 c 0
 540 728 590 672 590 586 c 0
 590 472 503 418 468 406 c 1
 530 391 545 304 545 273 c 0
 545 118 420 -12 234 -12 c 0
 66 -12 23 80 23 156 c 0
 23 171 24 186 27 203 c 1
 120 203 l 1
 118 192 116 181 116 172 c 0
 116 149.748 129 63 250 63 c 0
495 569 m 0
 495 637 414 652 374 652 c 0
 304.473 652 207 611.057 207 521 c 0
 207 469 260 432 328 432 c 0
 421 432 495 486 495 569 c 0
EndSplineSet
Validated: 3073
EndChar

StartChar: uni0552
Encoding: 1362 1362 628
Width: 417
Flags: MW
LayerCount: 2
Fore
SplineSet
153 723 m 1
 248 723 l 1
 195 475 l 1
 375 475 l 1
 358 395 l 1
 178 395 l 1
 94 0 l 1
 -1 0 l 1
 153 723 l 1
EndSplineSet
Validated: 1
EndChar

StartChar: uni0553
Encoding: 1363 1363 629
Width: 785
Flags: HMW
LayerCount: 2
Fore
SplineSet
278 48 m 1
 227 55 33 95 33 281 c 0
 33 492.273 187.108 641.632 410 670 c 1
 422 725 l 1
 516 725 l 1
 504 670 l 1
 562.364 670 749 619.013 749 443 c 0
 749 128 444 55 372 48 c 1
 362 1 l 1
 268 1 l 1
 278 48 l 1
393 591 m 1
 217 572 130 419 130 306 c 0
 130 245.633 139.573 158.721 295 126 c 1
 393 591 l 1
389 126 m 1
 636 170 654 370 654 417 c 0
 654 521 592 577 487 591 c 1
 389 126 l 1
EndSplineSet
Validated: 3073
EndChar

StartChar: uni0554
Encoding: 1364 1364 630
Width: 638
Flags: HMW
LayerCount: 2
Fore
SplineSet
438 728 m 0
 513 728 631 703 631 564 c 0
 631 451.74 550.106 275 352 275 c 0
 262 275 220 314 211 335 c 1
 182 199 l 1
 563 199 l 1
 546 121 l 1
 164 121 l 1
 139 0 l 1
 46 0 l 1
 71 121 l 1
 -16 121 l 1
 1 199 l 1
 88 199 l 1
 88 199 156.898 545.028 163 549 c 2
 180.956 632.795 294 728 438 728 c 0
536 556 m 0
 536 616 485 651 422 653 c 0
 363 653 273 618 251 518 c 2
 241 472 l 2
 240 465 239 459 239 452 c 0
 239 398 290 352 369 352 c 0
 473 352 536 450 536 556 c 0
EndSplineSet
Validated: 3073
EndChar

StartChar: uni0555
Encoding: 1365 1365 631
Width: 778
Flags: HMW
LayerCount: 2
Fore
SplineSet
312 -12 m 0
 96 -12 38 146 38 266 c 0
 38 458.532 181.352 726.142 470 729 c 0
 581 729 743 674 743 456 c 0
 743 193.199 540.166 -12 312 -12 c 0
453 647 m 0
 182 647 134 341 134 265 c 0
 134 147 208 69 328 69 c 0
 589 69 645 359 645 439 c 0
 645 605 536 647 453 647 c 0
EndSplineSet
Validated: 3073
EndChar

StartChar: uni0556
Encoding: 1366 1366 632
Width: 716
Flags: HMW
LayerCount: 2
Fore
SplineSet
566 326 m 0
 566 370 543 433 452 433 c 2
 406 433 l 1
 328 67 l 1
 374 67 l 2
 446 67 526 111 548 218 c 2
 560 273 l 2
 564 293 566 310 566 326 c 0
200 561 m 0
 200 516 285 507 330 507 c 1
 361 653 l 1
 282 653 200 634 200 561 c 0
270 434 m 2
 227 434 129 462 129 555 c 0
 129 623 166 725 373 725 c 2
 468 725 l 1
 422 508 l 1
 468 508 l 2
 625 508 664 414 664 344 c 0
 664 330 663 314 660 298 c 2
 642 212 l 2
 624 122 536.025 -8 358 -8 c 2
 198 -8 l 2
 3.5 -8 -4 120 -4 142 c 0
 -4 152 -2 164 0 175 c 1
 93 175 l 1
 91 166 89 157 89 148 c 0
 89 88 147 66 237 66 c 1
 315 434 l 1
 270 434 l 2
EndSplineSet
Validated: 3073
EndChar

StartChar: uni055A
Encoding: 1370 1370 633
Width: 222
Flags: HMW
LayerCount: 2
Fore
SplineSet
195.998 621 m 1
 239.679 723 l 1
 333.679 723 l 1
 299.674 643 l 2
 260.693 549 223.104 518 152.94 489 c 1
 146.167 523 l 1
 187.931 536 222.008 574 240.998 621 c 1
 195.998 621 l 1
EndSplineSet
Validated: 3073
EndChar

StartChar: uni055B
Encoding: 1371 1371 634
Width: 133
Flags: HMW
LayerCount: 2
Fore
SplineSet
134.983 588 m 1
 278.615 718 l 1
 319.615 718 l 1
 159.983 588 l 1
 134.983 588 l 1
EndSplineSet
Validated: 3073
EndChar

StartChar: uni055C
Encoding: 1372 1372 635
Width: 325
Flags: HMW
LayerCount: 2
Fore
SplineSet
247.823 640 m 2
 204.832 640 182.476 623.479 140.346 585 c 1
 152.336 632 l 1
 172.587 652 225.602 685 267.602 685 c 2
 359.964 685 l 2
 404.845 685 448.011 713.071 472.166 730 c 1
 453.602 685 l 1
 424.639 663.481 393.602 640 348.036 640 c 2
 247.823 640 l 2
EndSplineSet
Validated: 3073
EndChar

StartChar: uni055D
Encoding: 1373 1373 636
Width: 333
Flags: MW
LayerCount: 2
Fore
SplineSet
212 583 m 1
 141 583 l 1
 58 720 l 1
 176 720 l 1
 212 583 l 1
EndSplineSet
Validated: 1
EndChar

StartChar: uni055E
Encoding: 1374 1374 637
Width: 333
Flags: HMW
LayerCount: 2
Fore
SplineSet
156.823 639 m 2
 171.49 708 217 782 368.219 782 c 0
 420.759 782 448.339 755.386 448.339 710.951 c 0
 448.339 653.351 411.564 595 330.471 595 c 0
 283.854 595 256.165 612.324 256.165 655.625 c 0
 256.165 664.341 257.287 674.109 259.602 685 c 1
 303.602 685 l 1
 302.08 677.843 301.287 671.565 301.287 666.104 c 0
 301.287 644.86 313.297 636 341.186 636 c 0
 395.54 636 401.891 681.238 401.891 697.249 c 0
 401.891 726.663 376.35 739 335.079 739 c 0
 271.079 739 219.553 713 197.447 609 c 1
 150.447 609 l 1
 156.823 639 l 2
EndSplineSet
Validated: 3073
EndChar

StartChar: uni0561
Encoding: 1377 1377 638
Width: 833
Flags: HMW
AnchorPoint: "above" 468 526 basechar 0
LayerCount: 2
Fore
SplineSet
130 132 m 0
 130 79 174 66 205 66 c 0
 237 66 335 77 364 219 c 2
 428 520 l 1
 516 520 l 1
 445 183 l 2
 441 165 439 149 439 135 c 0
 439 90 460 66 512 66 c 0
 646 66 671 214 679 251 c 2
 736 520 l 1
 824 520 l 1
 714 1 l 1
 635 1 l 1
 651 74 l 1
 615 31 550 -10 476 -10 c 0
 404 -10 357 19 349 81 c 1
 295 20 236 -10 170 -10 c 0
 83 -10 40 29 40 107 c 0
 40 124 42 143 46 164 c 0
 121 520 l 1
 209 520 l 1
 140 193 l 2
 135 169 130 149 130 132 c 0
EndSplineSet
Validated: 1
EndChar

StartChar: uni0562
Encoding: 1378 1378 639
Width: 556
Flags: HMW
LayerCount: 2
Fore
SplineSet
501 189 m 1
 413 189 l 1
 413 189 448 344 448 377 c 0
 448 438.6 398.263 454 363 454 c 0
 222 454 196 316 187 277 c 2
 150 96 l 1
 480 96 l 1
 459 0 l 1
 129 0 l 1
 83 -211 l 1
 -5 -211 l 1
 150 518 l 1
 229 518 l 1
 213 441 l 1
 265 500 327 529 396 529 c 0
 458.071 529 537.363 507.475 541 402 c 0
 541 366 509 227 501 189 c 1
EndSplineSet
Validated: 3073
EndChar

StartChar: uni0563
Encoding: 1379 1379 640
Width: 572
Flags: HMW
LayerCount: 2
Fore
SplineSet
224 -12 m 0
 158 -12 48 27 48 181 c 0
 48 341.82 153.045 530 333 530 c 0
 406 530 441 503 467 451 c 1
 481 519 l 1
 561 519 l 1
 467 79 l 1
 544 79 l 1
 527 0 l 1
 450 0 l 1
 405 -209 l 1
 319 -208 l 1
 374 54 l 1
 339 19 290 -10 224 -12 c 0
246 61 m 0
 405 61 434 279 434 329 c 0
 434 408 390 461 327 461 c 0
 175 461 138 251 138 187 c 0
 138 86 202 61 246 61 c 0
EndSplineSet
Validated: 3073
EndChar

StartChar: uni0564
Encoding: 1380 1380 641
Width: 581
Flags: MW
LayerCount: 2
Fore
SplineSet
398 515 m 0
 494 515 518 456 518 411 c 0
 518 403 518 394 516 385 c 0
 448 62 l 1
 548 62 l 1
 534 0 l 1
 434 0 l 1
 390 -209 l 1
 304 -209 l 1
 422 347 l 2
 425 359 426 370 426 380 c 0
 426 420 405 439 362 440 c 0
 253 440 202 349 184 270 c 2
 126 0 l 1
 40 0 l 1
 148 505 l 1
 231 505 l 1
 214 425 l 1
 242 456 288 515 398 515 c 0
EndSplineSet
Validated: 1
EndChar

StartChar: echarmenian
Encoding: 1381 1381 642
Width: 546
Flags: HMW
LayerCount: 2
Fore
SplineSet
107 143 m 0
 107 81 159 65 194 65 c 0
 334 65 361 199 369 236 c 2
 389 333 l 1
 476 333 l 1
 406 0 l 1
 327 0 l 1
 342 74 l 1
 292 18 232 -11 159 -11 c 0
 99 -11 18 3 14 115 c 0
 17 145 21 172 27 200 c 2
 137 719 l 1
 227 721 l 1
 184 520 l 1
 521 519 l 1
 501 427 l 1
 164 427 l 1
 116 204 l 2
 111 181 107 161 107 143 c 0
EndSplineSet
Validated: 3073
EndChar

StartChar: uni0566
Encoding: 1382 1382 643
Width: 588
Flags: HMW
LayerCount: 2
Fore
SplineSet
334 518 m 0
 410 518 449 484 460 451 c 1
 472 505 l 1
 554 505 l 1
 414 -151 l 1
 513 -151 l 1
 501 -209 l 1
 317 -209 l 1
 374 62 l 1
 340 21 280 -14 207 -14 c 0
 92 -14 54 74 54 183 c 0
 54 352 182.983 518 334 518 c 0
249 56 m 0
 348.201 56 425.828 208.464 425.828 323.465 c 0
 425.828 393.1 397.367 449 328 449 c 0
 182 449 144 252 144 188 c 0
 144 130 158 56 249 56 c 0
EndSplineSet
Validated: 3073
EndChar

StartChar: uni0567
Encoding: 1383 1383 644
Width: 448
Flags: MW
LayerCount: 2
Fore
SplineSet
270 74 m 1
 229 -121 l 1
 154 -119 l 1
 178 0 l 1
 30 0 l 1
 183 721 l 1
 269 721 l 1
 218 478 l 1
 395 478 l 1
 378 401 l 1
 201 401 l 1
 132 74 l 1
 270 74 l 1
EndSplineSet
Validated: 1
EndChar

StartChar: uni0568
Encoding: 1384 1384 645
Width: 556
Flags: HMW
LayerCount: 2
Fore
SplineSet
385 529 m 0
 447 529 526 507 530 402 c 0
 530 360 461 49 450 -1 c 1
 362 -1 l 1
 423 287 l 2
 432 329 437 358 437 373 c 0
 437 437.8 391 454 351 454 c 0
 211 454 185 316 176 277 c 2
 93 -116 l 1
 421 -116 l 1
 402 -208 l 1
 -15 -206 l 1
 139 518 l 1
 218 518 l 1
 202 441 l 1
 254 500 315 529 385 529 c 0
EndSplineSet
Validated: 3073
EndChar

StartChar: uni0569
Encoding: 1385 1385 646
Width: 568
Flags: HMW
LayerCount: 2
Fore
SplineSet
199 93 m 0
 199 132 242 276 383 276 c 2
 466 276 l 1
 480 341 l 2
 481.652 348.67 482 357 482 364 c 0
 482 428 440 457 372 457 c 0
 293 457 215 409 181 300 c 2
 71 -220 l 1
 -11 -221 l 1
 146 505 l 1
 224 505 l 1
 210 440 l 1
 270 512 332 518 372 518 c 0
 452.47 518 552 499.956 552 387 c 0
 552 376 550.555 365.024 548 353 c 2
 531 273 l 1
 580 273 l 1
 568 213 l 1
 520 213 l 1
 496 110 458 -15 325 -15 c 0
 249 -15 199 24 199 93 c 0
361 215 m 2
 305 215 268 146 268 107 c 0
 268 71 302 50 339 50 c 0
 414 50 442 144 456 215 c 1
 361 215 l 2
EndSplineSet
Validated: 3073
EndChar

StartChar: uni056A
Encoding: 1386 1386 647
Width: 582
Flags: HMW
LayerCount: 2
Fore
SplineSet
18 171 m 0
 18 339.386 127.038 512 288 512 c 2
 428 512 l 1
 473 723 l 1
 562 723 l 1
 517 511 l 1
 615 511 l 1
 601 443 l 1
 503 443 l 1
 453 210 l 2
 435.215 109.843 348.862 -14 172 -14 c 0
 124 -14 18 0 18 171 c 0
107 175 m 0
 107 86 146 57 209 56 c 0
 353 56 371 236 417 446 c 1
 295 446 l 2
 136 446 107 232 107 175 c 0
EndSplineSet
Validated: 3073
EndChar

StartChar: iniarmenian
Encoding: 1387 1387 648
Width: 552
Flags: HMW
LayerCount: 2
Fore
SplineSet
361 530 m 0
 478 530 508 466 508 414 c 0
 508 386 502 351 498 329 c 2
 428 0 l 1
 340 0 l 1
 410 329 l 2
 413 346 415 361 415 374 c 0
 415 427 387 453 327 455 c 0
 288 455 190 444 154 284 c 2
 50 -205 l 1
 -38 -205 l 1
 158 716 l 1
 246 716 l 1
 191 459 l 1
 242 506 299 530 361 530 c 0
EndSplineSet
Validated: 3073
EndChar

StartChar: uni056C
Encoding: 1388 1388 649
Width: 301
Flags: MW
LayerCount: 2
Fore
SplineSet
187 -125 m 1
 170 -208 l 1
 -16 -208 l 1
 137 519 l 1
 224 519 l 1
 88 -125 l 1
 187 -125 l 1
EndSplineSet
Validated: 1
EndChar

StartChar: xeharmenian
Encoding: 1389 1389 650
Width: 799
Flags: HMW
LayerCount: 2
Fore
SplineSet
426 -13 m 0
 366 -13 281 6 281 113 c 0
 283 144 287 171 293 199 c 2
 344 439 l 1
 191 439 l 1
 53 -210 l 1
 -32 -210 l 1
 164 713 l 1
 249 713 l 1
 208 520 l 1
 450 520 l 1
 382 202 l 2
 377 179 374 160 374 142 c 0
 374 79 423 65 460 63 c 0
 599 63 626 197 634 234 c 2
 695 518 l 1
 783 518 l 1
 672 -1 l 1
 593 -1 l 1
 609 73 l 1
 559 16 498 -12 426 -13 c 0
EndSplineSet
Validated: 3073
EndChar

StartChar: uni056E
Encoding: 1390 1390 651
Width: 556
Flags: HMW
LayerCount: 2
Fore
SplineSet
338 616 m 0
 338 595 355 552 408 510 c 1
 554 510 l 1
 540 446 l 1
 438 446 l 1
 448 438 465 399 465 339 c 0
 465 144 351 -14 189 -14 c 0
 47 -14 12 102 12 176 c 0
 12 367.695 148.078 517 282 517 c 0
 304 518 l 1
 290 529 261 563 261 604 c 0
 261 681 344 726 372 742 c 1
 412 690 l 1
 368 675 338 651 338 616 c 0
100 174 m 0
 100 74 164 56 207 56 c 0
 333.996 56 384 241.795 384 335 c 0
 384 431 345 456 317 456 c 0
 117.234 456 100 228.132 100 174 c 0
EndSplineSet
Validated: 3073
EndChar

StartChar: uni056F
Encoding: 1391 1391 652
Width: 554
Flags: HMW
LayerCount: 2
Fore
SplineSet
195 -5 m 0
 134 -5 50 13 50 116 c 0
 50 138 52 165 59 197 c 2
 170 721 l 1
 258 721 l 1
 147 197 l 2
 143 180 141 165 141 151 c 0
 141 99 170 71 230 71 c 0
 267 71 372 84 403 242 c 2
 463 521 l 1
 551 521 l 1
 395 -211 l 1
 307 -210 l 1
 366 66 l 1
 315 19 258 -4 195 -5 c 0
EndSplineSet
Validated: 3073
EndChar

StartChar: uni0570
Encoding: 1392 1392 653
Width: 533
Flags: MW
LayerCount: 2
Fore
SplineSet
346 530 m 0
 461 530 492 466 492 412 c 0
 492 385 487 352 482 329 c 2
 412 0 l 1
 324 0 l 1
 394 329 l 2
 397 346 399 360 399 374 c 0
 399 427 371 453 312 455 c 0
 273 455 174 444 138 284 c 2
 78 0 l 1
 -10 0 l 1
 142 716 l 1
 230 716 l 1
 175 459 l 1
 226 506 284 530 346 530 c 0
EndSplineSet
Validated: 1
EndChar

StartChar: uni0571
Encoding: 1393 1393 654
Width: 548
Flags: HMW
LayerCount: 2
Fore
SplineSet
344 517 m 1
 461 492 462 375 462 343 c 0
 462 322 459 299 454 276 c 2
 395 0 l 1
 318 0 l 1
 332 63 l 1
 317 39 266 -14 180 -14 c 0
 116 -14 16 10 9 183 c 0
 9 270 46 350 107 411 c 0
 156 476 325 562 355 602 c 0
 355 612 227 604.888 227 645 c 0
 227 680 269 718 288 736 c 1
 360 736 l 1
 346 715.5 328.495 698.649 328.495 685.043 c 0
 328.495 652.437 458 686.03 458 635 c 0
 458 591 402 557 344 517 c 1
99 185 m 0
 99 136 112 58 203 56 c 0
 349 56 387 272 387 328 c 0
 387 398 346 453 292 453 c 0
 194.206 453 99 319.265 99 185 c 0
EndSplineSet
Validated: 3073
EndChar

StartChar: uni0572
Encoding: 1394 1394 655
Width: 552
Flags: HMW
LayerCount: 2
Fore
SplineSet
363 515 m 0
 460 515 484 457 484 411 c 0
 484 403 483 394 481 385 c 2
 368 -146 l 1
 468 -146 l 1
 455 -209 l 1
 270 -209 l 1
 388 347 l 2
 391 359 392 370 392 380 c 0
 392 420 370 439 327 440 c 0
 294 440 191 434 152 281 c 2
 92 0 l 1
 6 0 l 1
 114 505 l 1
 196 505 l 1
 178 422 l 1
 221.78 464.412 258.05 515 363 515 c 0
EndSplineSet
Validated: 3073
EndChar

StartChar: uni0573
Encoding: 1395 1395 656
Width: 552
Flags: HMW
LayerCount: 2
Fore
SplineSet
-33 0 m 1
 -7 195 145 376 225 461 c 1
 172 510 l 1
 234 574 l 1
 286 524 l 1
 359 595 456 675 536 731 c 1
 574 683 l 1
 345 486 l 1
 410 393 441 293 441 143 c 0
 438.798 118.342 429.522 25.3491 418 0 c 1
 -33 0 l 1
359 70 m 1
 361 96 362 122 362 148 c 0
 362 297 298 422 283 422 c 1
 279.7 418.7 111.501 233.462 75 70 c 1
 359 70 l 1
EndSplineSet
Validated: 3073
EndChar

StartChar: menarmenian
Encoding: 1396 1396 657
Width: 544
Flags: HMW
LayerCount: 2
Fore
SplineSet
445 657 m 0
 409 657 385 653 385 625 c 0
 385 582.109 484 521.348 484 442 c 0
 484 433 483 424 481 414 c 2
 393 0 l 1
 309 0 l 1
 321 56 l 1
 247.845 14.8506 217.421 -10 142 -10 c 0
 44 -10 19 50 19 95 c 0
 19 102 20 109 21 115 c 2
 104 505 l 1
 190 505 l 1
 116 153 l 2
 113 140 112 129 112 119 c 0
 112 82 133 65 177 65 c 0
 212 65 320 70 353 214 c 2
 397 417 l 2
 398 423 399 429 399 434 c 0
 399 498 300 535 300 613 c 0
 300 703 373 725 466 725 c 0
 527.6 725 534 724 543 724 c 1
 528 656 l 1
 501 656.5 473.5 657 445 657 c 0
EndSplineSet
Validated: 3073
EndChar

StartChar: uni0575
Encoding: 1397 1397 658
Width: 222
Flags: MW
LayerCount: 2
Fore
SplineSet
-122 -201 m 1
 -89 -126 l 1
 -71 -131 -58 -133 -49 -133 c 0
 0 -133 10 -97 27 -26 c 2
 142 519 l 1
 230 519 l 1
 114 -28 l 2
 93 -133 57 -210 -54 -210 c 0
 -79 -210 -102 -208 -122 -201 c 1
EndSplineSet
Validated: 1
EndChar

StartChar: nowarmenian
Encoding: 1398 1398 659
Width: 544
Flags: HMW
LayerCount: 2
Fore
SplineSet
110 124 m 0
 110 74 144 63 174 61 c 0
 269.372 61 313.095 114.04 345 198 c 1
 410 505 l 1
 497 505 l 1
 390 0 l 1
 310 0 l 1
 328 83 l 1
 228.008 -2.70716 228.02 -5.22109 142 -10 c 0
 51.4775 -10 18.8784 45.0674 18.8784 75.2456 c 0
 18.8784 89.5 19.8996 106.861 21 112 c 2
 112 537 l 2
 140 654 238 726 334 726 c 2
 399 726 l 1
 386 665 l 1
 219 665 214 590 190 511 c 2
 112 148 l 2
 110 139 110 132 110 124 c 0
EndSplineSet
Validated: 3073
EndChar

StartChar: uni0577
Encoding: 1399 1399 660
Width: 456
Flags: HMW
LayerCount: 2
Fore
SplineSet
356 342 m 0
 356 391 325 432 278 432 c 0
 244 432 208 414 169 376 c 1
 138 434 l 1
 179 474 232 507 299 510 c 0
 374 510 436 455 436 375 c 0
 436 293 378 229 329 173 c 2
 285 125 l 2
 245 82 85 -85 85 -118 c 0
 85 -138 115 -146 175 -146 c 2
 330 -146 l 1
 317 -209 l 1
 190 -209 l 2
 -11.0806 -209 -3.10692 -185.862 -6 -128 c 1
 0 -104 41 -46 68 -13 c 2
 332 278 l 2
 346 294 356 316 356 342 c 0
EndSplineSet
Validated: 3073
EndChar

StartChar: uni0578
Encoding: 1400 1400 661
Width: 556
Flags: HMW
AnchorPoint: "above" 349 526 basechar 0
LayerCount: 2
Fore
SplineSet
369 529 m 0
 425 529 513 510 513 402 c 0
 513 377.434 505.772 336.03 502 320 c 2
 434 -1 l 1
 346 -1 l 1
 407 287 l 2
 419.421 343.586 420 363.8 420 383 c 0
 420 428 383 454 335 454 c 0
 194 454 167 310 160 277 c 2
 101 -1 l 1
 13 -1 l 1
 123 518 l 1
 202 518 l 1
 186 441 l 1
 238 500 299 529 369 529 c 0
EndSplineSet
Validated: 1
EndChar

StartChar: uni0579
Encoding: 1401 1401 662
Width: 390
Flags: HMW
LayerCount: 2
Fore
SplineSet
226 196 m 0
 226 224 122 302 122 332 c 0
 122 350 169.937 408.436 280 521 c 1
 362 502 l 1
 317.021 459.52 215.747 369.326 215.747 341.237 c 0
 215.747 328.77 317 248.843 317 206 c 0
 317 184 301 164 281 143 c 2
 192 49 l 2
 74 -73 71 -85 68 -117 c 0
 69 -138 98 -146 155 -146 c 2
 293 -146 l 1
 279 -209 l 1
 172 -209 l 2
 122 -209 89 -208 70 -206 c 0
 -22.9859 -206 -23 -150.678 -23 -128 c 0
 -23 -101 -16.3811 -77.4326 36 -21 c 2
 217 174 l 2
 223 181 226 189 226 196 c 0
EndSplineSet
Validated: 3073
EndChar

StartChar: uni057A
Encoding: 1402 1402 663
Width: 833
Flags: MW
LayerCount: 2
Fore
SplineSet
152 131 m 0
 152 79 196 66 226 66 c 0
 258 66 354 75 386 219 c 2
 450 520 l 1
 538 520 l 1
 466 183 l 2
 462 166 461 150 461 136 c 0
 461 91 481 66 533 66 c 0
 667 66 693 214 701 251 c 2
 758 520 l 1
 846 520 l 1
 690 -213 l 1
 611 -213 l 1
 672 74 l 1
 638 31 570 -10 497 -10 c 0
 427 -10 377 19 371 81 c 1
 317 20 257 -10 191 -10 c 0
 104 -10 61 29 61 107 c 0
 61 124 63 143 67 164 c 0
 143 520 l 1
 231 520 l 1
 161 193 l 2
 156 168 152 148 152 131 c 0
EndSplineSet
Validated: 1
EndChar

StartChar: uni057B
Encoding: 1403 1403 664
Width: 509
Flags: HMW
LayerCount: 2
Fore
SplineSet
68 277 m 0
 68 490 268 532 318 532 c 0
 366 532 500 524 500 363 c 0
 500 91 113 -53 113 -117 c 0
 113 -137 145.5 -146 217 -146 c 2
 348 -146 l 1
 334 -209 l 1
 187 -209 l 2
 86 -209 18 -207 18 -149 c 0
 18 -70 178 -17 178 69 c 0
 178 153 68 149 68 277 c 0
297 458 m 0
 172 458 137 336 137 304 c 0
 137 206 234 195 234 92 c 0
 234 80 232 67 230 53 c 1
 306 103 428 231 428 349 c 0
 428 384 422 458 297 458 c 0
EndSplineSet
Validated: 3073
EndChar

StartChar: uni057C
Encoding: 1404 1404 665
Width: 547
Flags: HMW
LayerCount: 2
Fore
SplineSet
437 368 m 0
 437 400 421 451 346 454 c 0
 205 454 178 311 171 277 c 2
 112 -1 l 1
 24 -1 l 1
 134 518 l 1
 213 518 l 1
 197 441 l 1
 249 500 309 529 379 529 c 0
 524 529 524 428.095 524 384 c 0
 524 256.303 391.331 163.939 290 79 c 1
 406 79 l 1
 388 -2 l 1
 212 -1 l 1
 228 76 l 1
 232.502 76 437 233.892 437 368 c 0
EndSplineSet
Validated: 3073
EndChar

StartChar: uni057D
Encoding: 1405 1405 666
Width: 533
Flags: MW
LayerCount: 2
Fore
SplineSet
132 141 m 0
 132 79 183 64 219 64 c 0
 359 64 386 207 393 241 c 2
 452 519 l 1
 540 519 l 1
 430 0 l 1
 352 0 l 1
 368 76 l 1
 316 18 255 -12 185 -12 c 0
 125 -12 40 13 40 115 c 0
 40 137 47 173 52 197 c 2
 120 519 l 1
 208 519 l 1
 147 231 l 2
 140 196 132 166 132 141 c 0
EndSplineSet
Validated: 1
EndChar

StartChar: vewarmenian
Encoding: 1406 1406 667
Width: 610
Flags: MW
LayerCount: 2
Fore
SplineSet
195 -5 m 0
 136 -5 50 13 50 116 c 0
 50 138 52 165 59 197 c 0
 128 521 l 1
 216 521 l 1
 147 197 l 2
 144 181 142 166 142 153 c 0
 142 99 170 71 230 71 c 0
 267 71 369 82 404 242 c 2
 505 716 l 1
 593 716 l 1
 409 -136 l 1
 497 -136 l 1
 481 -211 l 1
 308 -210 l 1
 366 66 l 1
 315 19 258 -4 195 -5 c 0
EndSplineSet
Validated: 1
EndChar

StartChar: uni057F
Encoding: 1407 1407 668
Width: 887
Flags: HMW
LayerCount: 2
Fore
SplineSet
140 140 m 0
 140 78 191 63 227 63 c 0
 354 63 385.775 168.26 401 240 c 2
 460 518 l 1
 545 518 l 1
 529 441 l 1
 581 500 642 529 712 529 c 0
 855 529 857 429 857 402 c 0
 857 388.35 849.763 342.474 839.494 294 c 2
 777 -1 l 1
 689 -1 l 1
 750 287 l 2
 759.785 334.839 764 358.835 764 379 c 0
 764 427 728 454 679 454 c 0
 549.333 454 516.89 342.448 503 277 c 2
 444 -1 l 1
 360 -1 l 1
 376 75 l 1
 324 17 262 -13 192 -13 c 0
 143.404 -13 47 0 47 114 c 0
 47 144.15 53 165 60 196 c 2
 128 518 l 1
 216 518 l 1
 155 230 l 2
 148.649 200.015 140 165 140 140 c 0
EndSplineSet
Validated: 3073
EndChar

StartChar: uni0580
Encoding: 1408 1408 669
Width: 556
Flags: HMW
LayerCount: 2
Fore
SplineSet
392 529 m 0
 455 529 536 504 536 402 c 0
 536 360 467 49 456 -1 c 1
 368 -1 l 1
 429 287 l 2
 441.731 347.108 443 363.333 443 382 c 0
 443 422 411 454 358 454 c 0
 217 454 191 316 182 277 c 2
 78 -211 l 1
 -10 -211 l 1
 145 518 l 1
 224 518 l 1
 208 441 l 1
 260 500 322 529 392 529 c 0
EndSplineSet
Validated: 3073
EndChar

StartChar: uni0581
Encoding: 1409 1409 670
Width: 545
Flags: HMW
LayerCount: 2
Fore
SplineSet
176 -210 m 0
 36 -210 1 -142 1 -91 c 0
 1 -77 3 -61 7 -43 c 1
 89 -56 l 1
 89 -84.9836 90 -138 191 -138 c 0
 342 -138 359 -29 380 68 c 1
 333 23 280 0 222 0 c 0
 72 0 46 118 46 190 c 0
 46 271 104 530 336 530 c 0
 397 530 442 506 471 456 c 1
 484 519 l 1
 565 519 l 1
 470 70 l 2
 451.866 -14.8413 418.298 -210 176 -210 c 0
437 332 m 0
 437 431 371 458 326 458 c 0
 166 458 138 250 138 193 c 0
 138 91 203 73 247 73 c 0
 407 73 437 281 437 332 c 0
EndSplineSet
Validated: 3073
EndChar

StartChar: uni0582
Encoding: 1410 1410 671
Width: 301
Flags: MW
LayerCount: 2
Fore
SplineSet
215 505 m 1
 121 62 l 1
 247 62 l 1
 233 0 l 1
 22 0 l 1
 130 505 l 1
 215 505 l 1
EndSplineSet
Validated: 3073
EndChar

StartChar: uni0583
Encoding: 1411 1411 672
Width: 853
Flags: HMW
LayerCount: 2
Fore
SplineSet
649 454 m 0
 509 454 482 315 474 277 c 2
 371 -206 l 1
 286 -206 l 1
 346 75 l 1
 294 17 233 -13 163 -13 c 0
 116.988 -13 18 2.33333 18 114 c 0
 18 131 25 175 30 196 c 2
 98 518 l 1
 186 518 l 1
 125 230 l 2
 116 185 111 155 111 141 c 0
 111 78.268 158.618 63 196 63 c 0
 337 63 364 204 372 240 c 2
 475 723 l 1
 559 723 l 1
 499 441 l 1
 551 500 612 529 682 529 c 0
 821 529 828 425 828 402 c 0
 828 381 823 358 815 320 c 2
 747 -1 l 1
 659 -1 l 1
 720 287 l 2
 729 332 735 361 735 376 c 0
 735 438.4 684.558 454 649 454 c 0
EndSplineSet
Validated: 3073
EndChar

StartChar: uni0584
Encoding: 1412 1412 673
Width: 632
Flags: HMW
LayerCount: 2
Fore
SplineSet
267 440 m 1
 280 465 334 518 421 518 c 0
 500 518 599 482 599 340 c 0
 590 147 481 42 315 34 c 0
 257 34 222 60 199 99 c 1
 164 -66 l 1
 473 -66 l 1
 461 -124 l 1
 152 -124 l 1
 134 -209 l 1
 48 -209 l 1
 66 -124 l 1
 -34 -124 l 1
 -22 -66 l 1
 78 -66 l 1
 200 505 l 1
 281 505 l 1
 267 440 l 1
513 345 m 0
 513 405 485 449 402 449 c 0
 265 449 231 276 231 223 c 0
 231 156 261 103 326 100 c 0
 502.78 100 513 318.878 513 345 c 0
EndSplineSet
Validated: 3073
EndChar

StartChar: uni0585
Encoding: 1413 1413 674
Width: 579
Flags: HMW
AnchorPoint: "above" 340 526 basechar 0
LayerCount: 2
Fore
SplineSet
40 174 m 0
 40 371 169 530 351 530 c 0
 506 530 546 417 546 341 c 0
 546 271 506 -6 235 -12 c 0
 80 -12 40 94 40 174 c 0
335 458 m 0
 163 458 132 239 132 188 c 0
 132 86 200 61 251 61 c 0
 420 61 453 271 453 326 c 0
 453 406 408 456 335 458 c 0
EndSplineSet
Validated: 1
EndChar

StartChar: uni0586
Encoding: 1414 1414 675
Width: 690
Flags: HMW
LayerCount: 2
Fore
SplineSet
631 323 m 0
 631 250 574 0 357 0 c 2
 312 0 l 1
 268 -209 l 1
 181 -209 l 1
 225 0 l 1
 169 0 l 2
 154.25 0 14 7 14 111 c 0
 14 121 15 131 17 142 c 1
 95 142 l 1
 94 138 94 134 94 130 c 0
 94 89 142 68 240 68 c 1
 317 434 l 1
 296 433 l 2
 216 433 153 478 153 546 c 0
 153 652 240 725 374 725 c 2
 464 725 l 1
 417 502 l 1
 478 502 l 2
 593 502 631 425 631 323 c 0
364 68 m 2
 511 68 548 264 548 324 c 0
 548 397 510 434 436 434 c 2
 404 434 l 1
 327 68 l 1
 364 68 l 2
364 659 m 1
 295 659 239 637 239 561 c 0
 239 513 276 502 331 502 c 1
 364 659 l 1
EndSplineSet
Validated: 3073
EndChar

StartChar: uni0587
Encoding: 1415 1415 676
Width: 545
Flags: HMW
LayerCount: 2
Fore
SplineSet
139 -8 m 0
 73 -8 17 31 17 92 c 0
 17 99 17.4726 107.801 19 115 c 2
 148 723 l 1
 234 723 l 1
 113 155 l 2
 111 143 109 133 109 124 c 0
 109 86 130 67 174 67 c 0
 277 67 330 127 348 210 c 0
 379 356 l 1
 465 356 l 1
 403 71 l 1
 483 71 l 1
 470 2 l 1
 306 2 l 1
 324 84 l 1
 266.266 26.2662 241.29 -3.12903 139 -8 c 0
EndSplineSet
Validated: 3073
LCarets2: 1 0
Ligature2: "'hlig' Historic Ligatures in Armenian subtable" echarmenian uni0582
EndChar

StartChar: uni0589
Encoding: 1417 1417 677
Width: 278
Flags: MW
LayerCount: 2
Fore
SplineSet
124 418 m 1
 145 519 l 1
 245 519 l 1
 224 418 l 1
 124 418 l 1
35 0 m 1
 56 100 l 1
 156 100 l 1
 135 0 l 1
 35 0 l 1
EndSplineSet
Validated: 1
EndChar

StartChar: uni058A
Encoding: 1418 1418 678
Width: 367
Flags: MW
LayerCount: 2
Fore
SplineSet
68 263 m 1
 93 245 113 223 182 220 c 0
 209 220 238 225 272 235 c 1
 292 203 l 1
 241 179 200 168 134 166 c 0
 86 166 47 177 6 187 c 1
 68 263 l 1
EndSplineSet
Validated: 1
EndChar

StartChar: hiriqhebrew
Encoding: 1460 1460 683
Width: 0
Flags: HMW
AnchorPoint: "heb-vowel-low" 350 0 mark 0
AnchorPoint: "vowel_below_yiddish" 351 0 mark 0
LayerCount: 2
Fore
SplineSet
311 -60 m 1
 382 -60 l 1
 367 -131 l 1
 296 -131 l 1
 311 -60 l 1
EndSplineSet
Validated: 3073
EndChar

StartChar: patahhebrew
Encoding: 1463 1463 686
Width: 0
Flags: HMW
AnchorPoint: "heb-vowel-low" 250 -0.166667 mark 0
AnchorPoint: "vowel_below_yiddish" 251 -0.333333 mark 0
LayerCount: 2
Fore
SplineSet
144 -60 m 1
 332 -60 l 1
 317 -131 l 1
 129 -131 l 1
 144 -60 l 1
EndSplineSet
Validated: 3073
EndChar

StartChar: qamatshebrew
Encoding: 1464 1464 687
Width: 0
Flags: HMW
AnchorPoint: "heb-vowel-low" 250 0 mark 0
AnchorPoint: "vowel_below_yiddish" 251 0 mark 0
LayerCount: 2
Fore
SplineSet
267 -131 m 1
 254 -193 l 1
 183 -193 l 1
 196 -131 l 1
 137 -131 l 1
 152 -60 l 1
 340 -60 l 1
 325 -131 l 1
 267 -131 l 1
EndSplineSet
Validated: 3073
EndChar

StartChar: holamhebrew
Encoding: 1465 1465 688
Width: 0
Flags: HMW
AnchorPoint: "heb-point-abv" 237 600 mark 0
LayerCount: 2
Fore
SplineSet
226 731 m 1
 297 731 l 1
 282 660 l 1
 211 660 l 1
 226 731 l 1
EndSplineSet
Validated: 3073
EndChar

StartChar: dageshhebrew
Encoding: 1468 1468 690
Width: 0
Flags: HMW
AnchorPoint: "heb-dagesh" 340 300 mark 0
LayerCount: 2
Fore
SplineSet
307 341 m 1
 378 341 l 1
 363 270 l 1
 292 270 l 1
 307 341 l 1
EndSplineSet
Validated: 3073
EndChar

StartChar: siluqhebrew
Encoding: 1469 1469 691
Width: 0
Flags: HMW
LayerCount: 2
Fore
SplineSet
261 -60 m 1
 221 -248 l 1
 150 -248 l 1
 190 -60 l 1
 261 -60 l 1
EndSplineSet
Validated: 3073
EndChar

StartChar: maqafhebrew
Encoding: 1470 1470 692
Width: 488
Flags: HMW
AnchorPoint: "heb-point-abv" 380 600 basechar 0
LayerCount: 2
Fore
SplineSet
556 524 m 1
 160 524 l 1
 176 600 l 1
 572 600 l 1
 556 524 l 1
EndSplineSet
Validated: 3073
EndChar

StartChar: paseqhebrew
Encoding: 1472 1472 694
Width: 212
Flags: HMW
LayerCount: 2
Fore
SplineSet
31 -100 m 1
 201 700 l 1
 288 700 l 1
 118 -100 l 1
 31 -100 l 1
EndSplineSet
Validated: 3073
EndChar

StartChar: shindothebrew
Encoding: 1473 1473 695
Width: 0
Flags: HMW
LayerCount: 2
Fore
SplineSet
795 711 m 1
 866 711 l 1
 851 640 l 1
 780 640 l 1
 795 711 l 1
EndSplineSet
Validated: 3073
EndChar

